<?xml version="1.0" standalone="no"?>
<!DOCTYPE svg PUBLIC "-//W3C//DTD SVG 1.1//EN" "http://www.w3.org/Graphics/SVG/1.1/DTD/svg11.dtd" >
<svg>
<metadata>
Created by FontForge 20090622 at Thu Apr  4 23:47:24 2019
 By deploy user
Typeface and data copyright 1996 Microsoft Corporation. All Rights Reserved.
</metadata>
<defs>
<font id="Georgia-Bold" horiz-adv-x="1024" >
  <font-face 
    font-family="Georgia"
    font-weight="700"
    font-stretch="normal"
    units-per-em="2048"
    panose-1="2 4 8 2 5 4 5 2 2 3"
    ascent="1638"
    descent="-410"
    x-height="992"
    cap-height="1419"
    bbox="-390 -444 2653 1868"
    underline-thickness="122"
    underline-position="-119"
    unicode-range="U+0020-U+F010"
  />
<missing-glyph horiz-adv-x="2048" 
d="M256 0v1536h1536v-1536h-1536zM384 128h1280v1280h-1280v-1280z" />
    <glyph glyph-name=".notdef" horiz-adv-x="2048" 
d="M256 0v1536h1536v-1536h-1536zM384 128h1280v1280h-1280v-1280z" />
    <glyph glyph-name=".null" horiz-adv-x="0" 
 />
    <glyph glyph-name="nonmarkingreturn" horiz-adv-x="520" 
 />
    <glyph glyph-name="space" unicode=" " horiz-adv-x="520" 
 />
    <glyph glyph-name="space" unicode="&#xa0;" horiz-adv-x="520" 
 />
    <glyph glyph-name="exclam" unicode="!" horiz-adv-x="771" 
d="M580 1261q0 -41 -14.5 -108.5t-36.5 -158.5q-21 -86 -48 -214.5t-57 -317.5h-77q-30 191 -57 318t-48 213q-19 79 -35 154.5t-16 113.5q0 77 57 131.5t137 54.5q79 0 137 -54.5t58 -131.5zM578 156q0 -76 -57.5 -130.5t-134.5 -54.5q-78 0 -135.5 54.5t-57.5 130.5
t57.5 131.5t135.5 55.5q77 0 134.5 -55.5t57.5 -131.5z" />
    <glyph glyph-name="quotedbl" unicode="&#x22;" horiz-adv-x="1044" 
d="M924 1369q0 -55 -48.5 -213.5t-82.5 -332.5h-69q-35 174 -83 332.5t-48 213.5q0 64 43 112t123 48q78 0 121.5 -48t43.5 -112zM451 1369q0 -55 -48.5 -213.5t-82.5 -332.5h-69q-35 174 -83 332.5t-48 213.5q0 64 43 112t123 48q78 0 121.5 -48t43.5 -112z" />
    <glyph glyph-name="numbersign" unicode="#" horiz-adv-x="1440" 
d="M1285 748h-262l-78 -257h280v-160h-328l-101 -331h-149l101 331h-230l-101 -331h-149l101 331h-214v160h262l79 257h-281v160h329l104 341h149l-104 -341h230l104 341h149l-104 -341h213v-160zM877 750h-233l-79 -261h232z" />
    <glyph glyph-name="dollar" unicode="$" horiz-adv-x="1312" 
d="M1207 411q0 -186 -142 -300.5t-351 -128.5v-281h-99v281q-211 4 -360 96.5t-149 214.5q0 71 43 120t119 49q79 0 125.5 -41.5t46.5 -112.5q0 -51 -17 -102.5t-28 -80.5q27 -14 89.5 -36t130.5 -22v449q-14 2 -27 3.5l-30 3.5q-192 18 -303 116t-111 256q0 70 26 137
t80 125q55 60 145.5 100.5t219.5 48.5v218h99v-218q205 -8 332 -85.5t127 -191.5q0 -68 -41.5 -115.5t-114.5 -47.5q-76 0 -120 40t-44 108q0 47 15.5 92l27.5 81q-27 14 -75.5 23t-106.5 11v-409q15 -1 38 -5t40 -6q205 -30 310 -130t105 -260zM615 821v400
q-114 -12 -174.5 -67t-60.5 -132q0 -89 49.5 -135t143.5 -60q15 -2 22.5 -3.5t19.5 -2.5zM973 293q0 83 -49 134.5t-155 71.5q-11 2 -26 4l-29 4v-440q137 13 198 75.5t61 150.5z" />
    <glyph glyph-name="percent" unicode="%" horiz-adv-x="1801" 
d="M870 1086q0 -167 -112.5 -270.5t-276.5 -103.5q-166 0 -278 103.5t-112 270.5t112 270.5t277 103.5t277.5 -103.5t112.5 -270.5zM605 1084q0 138 -27 220.5t-99 82.5q-65 0 -94 -77.5t-29 -215.5q0 -144 26.5 -226.5t100.5 -82.5q64 0 93 77.5t29 221.5zM1710 339
q0 -167 -112.5 -270.5t-276.5 -103.5q-166 0 -278 103.5t-112 270.5t112 270.5t277 103.5t277.5 -103.5t112.5 -270.5zM1445 337q0 138 -27 220.5t-99 82.5q-65 0 -94 -77.5t-29 -215.5q0 -144 26.5 -226.5t100.5 -82.5q64 0 93 77.5t29 221.5zM1574 1428l-1183 -1428h-163
l1180 1428h166z" />
    <glyph glyph-name="ampersand" unicode="&#x26;" horiz-adv-x="1637" 
d="M1646 0h-588l-62 70.5t-65 77.5q-106 -98 -211.5 -140.5t-224.5 -42.5q-187 0 -306.5 101t-119.5 263q0 81 21.5 139t69.5 116q46 56 114 100.5t153 83.5q-90 114 -125.5 194t-35.5 164q0 144 120 237.5t287 93.5q156 0 253 -74t97 -196q0 -106 -58 -189.5t-193 -163.5
q109 -140 168.5 -210.5l158.5 -185.5q63 93 94.5 171t31.5 131q0 30 -44.5 48.5t-125.5 34.5v76h559v-76q-91 -8 -134.5 -22t-85.5 -57q-18 -18 -44.5 -63.5l-50.5 -87.5l-62 -107t-80 -117q92 -108 151.5 -161.5t97.5 -73.5q43 -23 109 -36.5t131 -17.5v-80zM871 1172
q0 88 -42.5 138.5t-110.5 50.5q-65 0 -105 -41.5t-40 -108.5q0 -58 37 -131.5t114 -178.5q76 53 111.5 123.5t35.5 147.5zM878 213l-195.5 235l-207.5 255q-53 -52 -76.5 -121.5t-23.5 -139.5q0 -133 85 -217t216 -84q61 0 106 15.5t96 56.5z" />
    <glyph glyph-name="quotesingle" unicode="'" horiz-adv-x="551" 
d="M441 1369q0 -55 -48.5 -213.5t-82.5 -332.5h-69q-35 174 -83 332.5t-48 213.5q0 64 43 112t123 48q78 0 121.5 -48t43.5 -112z" />
    <glyph glyph-name="parenleft" unicode="(" horiz-adv-x="915" 
d="M848 -328q-137 18 -268.5 81t-234.5 177q-104 114 -167 280.5t-63 391.5t63 391.5t167 280.5q103 113 234.5 176.5t268.5 81.5v-90q-189 -35 -290 -243.5t-101 -596.5t101 -596.5t290 -243.5v-90z" />
    <glyph glyph-name="parenright" unicode=")" horiz-adv-x="915" 
d="M801 602q0 -225 -63 -391.5t-167 -280.5q-103 -113 -234.5 -176.5t-268.5 -81.5v90q189 35 290 243.5t101 596.5t-101 596.5t-290 243.5v90q137 -18 268.5 -81.5t234.5 -176.5q104 -114 167 -280.5t63 -391.5z" />
    <glyph glyph-name="asterisk" unicode="*" horiz-adv-x="987" 
d="M907 1083q0 -45 -25.5 -65.5t-64.5 -20.5q-25 0 -103.5 22t-166.5 33q58 -76 128 -143t70 -114q0 -33 -29 -57.5t-61 -24.5q-22 0 -41 12.5t-33 35.5q-12 22 -32.5 100t-54.5 160q-33 -78 -55 -160.5t-32 -99.5q-16 -25 -32.5 -36.5t-41.5 -11.5q-33 0 -61.5 23.5
t-28.5 58.5q0 47 70 114t128 143q-84 -10 -165 -32.5t-105 -22.5q-39 0 -64.5 20.5t-25.5 65.5q0 41 25.5 63.5t64.5 22.5q31 0 99.5 -20.5t170.5 -32.5q-66 84 -132 147.5t-66 109.5q0 33 29 57.5t61 24.5q23 0 41.5 -12t32.5 -35q12 -22 33 -101t54 -160q33 82 54.5 161
t32.5 100q12 21 31.5 34t42.5 13q33 0 61.5 -23.5t28.5 -58.5q0 -46 -62.5 -107.5t-134.5 -149.5q100 13 171.5 33t97.5 20q39 0 64.5 -22.5t25.5 -63.5z" />
    <glyph glyph-name="plus" unicode="+" horiz-adv-x="1440" 
d="M1275 493h-473v-473h-165v473h-473v163h473v473h165v-473h473v-163z" />
    <glyph glyph-name="comma" unicode="," horiz-adv-x="672" 
d="M539 53q0 -122 -102 -249.5t-245 -192.5l-44 71q49 26 92.5 56t77.5 70q35 42 55.5 85.5t25.5 106.5h-56q-102 0 -154 46t-52 127q0 64 50 115.5t123 51.5q112 0 170.5 -76.5t58.5 -210.5z" />
    <glyph glyph-name="hyphen" unicode="-" horiz-adv-x="776" 
d="M691 435h-606v221h606v-221z" />
    <glyph glyph-name="hyphen" unicode="&#xad;" horiz-adv-x="776" 
d="M691 435h-606v221h606v-221z" />
    <glyph glyph-name="period" unicode="." horiz-adv-x="672" 
d="M534 166q0 -79 -58.5 -137t-138.5 -58q-81 0 -139.5 57.5t-58.5 137.5t58.5 138.5t139.5 58.5q80 0 138.5 -59t58.5 -138z" />
    <glyph glyph-name="slash" unicode="/" horiz-adv-x="966" 
d="M898 1523l-691 -1947h-180l689 1947h182z" />
    <glyph glyph-name="zero" unicode="0" horiz-adv-x="1436" 
d="M1184 932q76 -80 112.5 -182.5t36.5 -212.5q0 -131 -45.5 -236.5t-124.5 -178.5q-83 -76 -193 -116t-253 -40q-151 0 -266.5 47t-192.5 124q-76 76 -115.5 179t-39.5 221q0 117 37.5 217t115.5 181q76 79 193 126.5t269 47.5q157 0 274 -49t192 -128zM902 187
q29 67 41.5 149.5t12.5 200.5q0 106 -11.5 191t-38.5 151q-28 68 -74 105t-113 37q-68 0 -114 -36.5t-75 -103.5q-26 -61 -38 -149.5t-12 -194.5q0 -111 10.5 -189t38.5 -150q25 -65 72 -105t116 -40q64 0 111 36t74 98z" />
    <glyph glyph-name="one" unicode="1" horiz-adv-x="1003" 
d="M946 0h-825v76q30 2 95.5 10t89.5 16q30 10 47 34t17 66v634h-253v95h55q87 0 150.5 19t105.5 46q43 28 70.5 58t43.5 53h176q-3 -65 -6 -152t-3 -156v-586q0 -36 15.5 -62.5t44.5 -40.5q26 -12 87 -22t90 -12v-76z" />
    <glyph glyph-name="two" unicode="2" horiz-adv-x="1283" 
d="M1194 0h-1084v181q71 72 155.5 131.5t171.5 105.5q93 49 156 87.5t99 80.5q36 39 51.5 85t15.5 103q0 127 -60 185t-159 58q-31 0 -58.5 -4.5t-57.5 -16.5q15 -45 29 -93t14 -107q0 -71 -51 -113t-130 -42q-75 0 -119.5 49t-44.5 119q0 122 142 211t346 89
q236 0 381.5 -81t145.5 -261q0 -93 -38.5 -150t-113.5 -100q-67 -39 -148.5 -64t-174.5 -48q-99 -25 -172.5 -53t-130.5 -67v-11h835v-274z" />
    <glyph glyph-name="three" unicode="3" horiz-adv-x="1279" 
d="M1036 336q60 -40 100 -106.5t40 -163.5q0 -187 -179 -311t-461 -124q-202 0 -343 86.5t-141 212.5q0 71 45.5 120t121.5 49q79 0 129.5 -42.5t50.5 -113.5q0 -49 -17.5 -109.5t-27.5 -89.5q22 -10 57 -15.5t82 -5.5q58 0 113.5 19t96.5 62q43 45 66.5 105.5t23.5 160.5
q0 57 -10.5 108t-38.5 89t-76.5 59.5t-123.5 21.5h-127v121h90q126 0 182.5 74.5t56.5 227.5q0 123 -54.5 184.5t-157.5 61.5q-39 0 -68 -4.5t-59 -16.5q11 -34 27 -95t16 -104q0 -71 -49 -113t-128 -42q-75 0 -119.5 49t-44.5 119q0 124 143.5 211.5t360.5 87.5
q150 0 248.5 -35t155.5 -86q56 -50 77.5 -107.5t21.5 -103.5q0 -44 -18.5 -99.5t-54.5 -97.5q-44 -51 -115 -88t-166 -57v-16q65 -4 140.5 -24t133.5 -59z" />
    <glyph glyph-name="four" unicode="4" horiz-adv-x="1330" 
d="M1261 10h-215v-379h-335v379h-662v184l718 909h279v-882h215v-211zM711 221v643l-509 -643h509z" />
    <glyph glyph-name="five" unicode="5" horiz-adv-x="1227" 
d="M964 474q75 -50 126 -134.5t51 -209.5q0 -220 -170.5 -359.5t-435.5 -139.5q-205 0 -342 88t-137 208q0 71 45.5 120t121.5 49q79 0 129.5 -42.5t50.5 -113.5q0 -50 -17 -109t-28 -90q24 -9 56 -13.5t60 -4.5q57 0 112 25.5t94 74.5q45 56 68 132.5t23 173.5
q0 141 -75.5 231.5t-195.5 90.5q-93 0 -156 -37.5t-113 -98.5l-78 26l97 736h845v-276h-773l-41 -330q54 34 139 65t200 31q89 0 175.5 -19.5t168.5 -73.5z" />
    <glyph glyph-name="six" unicode="6" horiz-adv-x="1327" 
d="M1243 463q0 -212 -159.5 -355t-407.5 -143q-259 0 -416 162.5t-157 436.5q0 366 247 605t671 289l23 -99l-106 -18q-121 -33 -202.5 -90.5t-134.5 -131.5q-51 -71 -80 -160.5t-44 -176.5q87 78 172.5 105t183.5 27q172 0 291 -125.5t119 -325.5zM873 436q0 158 -55.5 251
t-148.5 93q-62 0 -107.5 -21t-91.5 -88q0 -5 -0.5 -17.5t-1.5 -32.5q-1 -22 -1.5 -41t-0.5 -32q0 -240 58.5 -367.5t150.5 -127.5q89 0 143.5 100t54.5 283z" />
    <glyph glyph-name="seven" unicode="7" horiz-adv-x="1135" 
d="M1144 958l-728 -1327h-150l674 1177h-458q-87 0 -136 -1t-90 -20q-33 -15 -56.5 -69.5t-37.5 -133.5h-73v493h1055v-119z" />
    <glyph glyph-name="eight" unicode="8" horiz-adv-x="1385" 
d="M1281 397q0 -184 -164.5 -309t-447.5 -125q-253 0 -409 107t-156 274q0 129 83.5 212.5t263.5 125.5q-144 65 -217.5 164t-73.5 221q0 167 159.5 280t394.5 113q228 0 369.5 -100t141.5 -248q0 -114 -77 -191.5t-230 -123.5q192 -69 277.5 -169.5t85.5 -230.5zM891 1114
q0 116 -51.5 187.5t-143.5 71.5q-87 0 -144 -61t-57 -156q0 -66 25 -110.5t71 -77.5q42 -31 118.5 -68l136.5 -67q22 50 33.5 122.5t11.5 158.5zM945 296q0 70 -30 116t-86 83q-56 36 -142.5 74t-164.5 77q-33 -39 -58 -117t-25 -165q0 -147 71 -230t187 -83t182 68t66 177z
" />
    <glyph glyph-name="nine" unicode="9" horiz-adv-x="1327" 
d="M1224 508q0 -364 -246 -595.5t-672 -287.5l-23 99l106 18q123 35 204 90t133 128q54 75 82 159t42 173q-88 -77 -170.5 -101.5t-185.5 -24.5q-86 0 -161 34t-130 93q-56 60 -87.5 144.5t-31.5 183.5q0 211 162 349.5t405 138.5q263 0 418 -163t155 -438zM859 453
q0 14 1 34t1 39q0 240 -57.5 367.5t-149.5 127.5q-89 0 -144.5 -97t-55.5 -280q0 -160 56.5 -255t148.5 -95q58 0 107 23t91 86q0 5 1 17.5t1 32.5z" />
    <glyph glyph-name="colon" unicode=":" horiz-adv-x="752" 
d="M574 799q0 -79 -58.5 -137t-138.5 -58q-81 0 -139.5 57.5t-58.5 137.5t58.5 138.5t139.5 58.5q80 0 138.5 -59t58.5 -138zM574 166q0 -79 -58.5 -137t-138.5 -58q-81 0 -139.5 57.5t-58.5 137.5t58.5 138.5t139.5 58.5q80 0 138.5 -59t58.5 -138z" />
    <glyph glyph-name="semicolon" unicode=";" horiz-adv-x="752" 
d="M574 799q0 -79 -58.5 -137t-138.5 -58q-81 0 -139.5 57.5t-58.5 137.5t58.5 138.5t139.5 58.5q80 0 138.5 -59t58.5 -138zM579 53q0 -122 -102 -249.5t-245 -192.5l-44 71q49 26 92.5 56t77.5 70q35 42 55.5 85.5t25.5 106.5h-56q-102 0 -154 46t-52 127q0 64 50 115.5
t123 51.5q112 0 170.5 -76.5t58.5 -210.5z" />
    <glyph glyph-name="semicolon" unicode="&#x37e;" horiz-adv-x="752" 
d="M574 799q0 -79 -58.5 -137t-138.5 -58q-81 0 -139.5 57.5t-58.5 137.5t58.5 138.5t139.5 58.5q80 0 138.5 -59t58.5 -138zM579 53q0 -122 -102 -249.5t-245 -192.5l-44 71q49 26 92.5 56t77.5 70q35 42 55.5 85.5t25.5 106.5h-56q-102 0 -154 46t-52 127q0 64 50 115.5
t123 51.5q112 0 170.5 -76.5t58.5 -210.5z" />
    <glyph glyph-name="less" unicode="&#x3c;" horiz-adv-x="1440" 
d="M1209 6l-1000 500v139l1000 500v-188l-786 -382l786 -381v-188z" />
    <glyph glyph-name="equal" unicode="=" horiz-adv-x="1440" 
d="M1255 700h-1070v163h1070v-163zM1255 286h-1070v163h1070v-163z" />
    <glyph glyph-name="greater" unicode="&#x3e;" horiz-adv-x="1440" 
d="M1231 506l-1000 -500v188l786 381l-786 382v188l1000 -500v-139z" />
    <glyph glyph-name="question" unicode="?" horiz-adv-x="1123" 
d="M1016 1037q0 -201 -138 -326t-368 -143l-6 -136h-89v389q145 12 227 91.5t82 216.5q0 109 -57.5 174.5t-154.5 65.5q-41 0 -73 -8.5t-62 -26.5q10 -32 23.5 -82.5t13.5 -93.5q0 -70 -45.5 -108.5t-126.5 -38.5q-76 0 -119.5 48t-43.5 118q0 115 131 195t316 80
q219 0 354.5 -114t135.5 -301zM656 156q0 -76 -57.5 -130.5t-134.5 -54.5q-78 0 -135.5 54.5t-57.5 130.5t57.5 131.5t135.5 55.5q77 0 134.5 -55.5t57.5 -131.5z" />
    <glyph glyph-name="at" unicode="@" horiz-adv-x="1980" 
d="M1658 1173q87 -92 129.5 -210.5t42.5 -245.5q0 -252 -142.5 -427t-354.5 -175q-110 0 -181 37.5t-91 95.5h-5l-48.5 -50.5t-54.5 -42.5q-32 -18 -60 -26.5t-75 -8.5q-123 0 -191.5 77.5t-68.5 204.5q0 96 40.5 197.5t110.5 185.5q68 81 164 133.5t199 52.5
q69 0 104.5 -24.5t52.5 -74.5h2l32 87h257l-201 -555q-8 -20 -14.5 -56t-6.5 -55q0 -41 18 -64.5t57 -23.5q157 0 252 144.5t95 378.5q0 117 -39 216t-116 173t-193 116.5t-265 42.5q-143 0 -276.5 -53.5t-242.5 -157.5q-107 -101 -172.5 -247.5t-65.5 -327.5
q0 -177 52 -311.5t143 -224.5q92 -91 216 -137t274 -46q171 0 303 44.5t236 125.5l39 -62q-114 -91 -256.5 -146.5t-328.5 -55.5q-157 0 -316 50.5t-280 149.5q-123 99 -198.5 250t-75.5 350q0 175 68 336.5t193 287.5q123 124 303.5 200t393.5 76q188 0 321.5 -55.5
t220.5 -148.5zM1189 760q-1 55 -27.5 90t-78.5 35q-50 0 -96.5 -45t-83.5 -118q-36 -72 -57.5 -164.5t-21.5 -181.5q0 -68 19.5 -104t62.5 -36q38 0 68 19.5t62 63.5z" />
    <glyph glyph-name="A" unicode="A" horiz-adv-x="1553" 
d="M1609 0h-773v78q54 4 127 19.5t73 38.5q0 8 -1.5 18t-8.5 27l-121 294h-490q-17 -41 -37.5 -96l-35.5 -98q-19 -56 -22.5 -81t-3.5 -35q0 -32 48.5 -54.5t161.5 -32.5v-78h-582v78q33 2 74.5 10.5t65.5 23.5q41 24 69.5 59t47.5 83l232.5 563l257.5 622h200l307 -762
l189 -464q13 -30 33 -54.5t57 -46.5q28 -16 65 -24t67 -10v-78zM864 574l-206 514l-203 -514h409z" />
    <glyph glyph-name="B" unicode="B" horiz-adv-x="1551" 
d="M1322 651q64 -44 104 -110.5t40 -156.5q0 -108 -45.5 -182.5t-130.5 -117.5q-90 -46 -207.5 -65t-276.5 -19h-737v78q31 3 78 9t66 14q37 15 50.5 39.5t13.5 63.5v1000q0 36 -11 60t-53 42q-31 13 -72 21.5t-72 13.5v78h771q291 0 420 -80t129 -236q0 -72 -29 -126.5
t-83 -94.5q-49 -37 -117 -64t-146 -45v-19q78 -8 162 -34.5t146 -68.5zM1000 1078q0 118 -66.5 184t-199.5 66q-19 0 -49.5 -1.5l-52.5 -2.5v-526h52q162 0 239 75.5t77 204.5zM1070 397q0 148 -88 227t-253 79q-19 0 -50.5 -1.5t-46.5 -2.5v-519q9 -37 56 -62.5t114 -25.5
q119 0 193.5 80t74.5 225z" />
    <glyph glyph-name="C" unicode="C" horiz-adv-x="1465" 
d="M813 -38q-156 0 -292 50.5t-237 146.5q-99 94 -156 232.5t-57 304.5q0 165 57.5 305.5t161.5 243.5q102 101 245 156.5t306 55.5q118 0 215 -28.5t164 -64.5l62 55h87l9 -518h-88q-75 237 -180 348t-256 111q-188 0 -286 -165.5t-98 -464.5q0 -169 33.5 -288.5
t87.5 -192.5q58 -76 137 -111.5t175 -35.5q140 0 249.5 76t199.5 230l86 -52q-43 -88 -98 -157.5t-127 -119.5q-79 -55 -174.5 -86t-225.5 -31z" />
    <glyph glyph-name="D" unicode="D" horiz-adv-x="1708" 
d="M1347 1273q130 -85 210 -226.5t80 -346.5q0 -180 -71.5 -313.5t-189.5 -218.5q-120 -85 -272.5 -126.5t-319.5 -41.5h-715v78q32 1 80 6t64 12q36 15 50 40.5t14 61.5v1006q0 34 -13 61.5t-51 44.5t-80.5 23t-65.5 8v78h755q121 0 259 -31t266 -115zM1143 256
q49 80 71.5 190.5t22.5 254.5q0 141 -30 257t-88 198t-144.5 127t-196.5 45q-35 0 -79.5 -1.5t-66.5 -2.5v-1077q0 -36 9.5 -63.5t32.5 -48.5t56.5 -32.5t87.5 -11.5q113 0 194 42t131 123z" />
    <glyph glyph-name="E" unicode="E" horiz-adv-x="1477" 
d="M1327 1057h-76q-29 81 -100 164t-141 98q-30 7 -83.5 8.5t-88.5 1.5h-206v-548h146q55 0 100 13t82 50q23 23 46.5 81t30.5 101h76v-592h-76q-6 42 -30.5 105.5t-46.5 87.5q-33 36 -78 49.5t-104 13.5h-146v-409q0 -64 9.5 -101.5t35.5 -57.5q25 -19 68.5 -25t118.5 -6
q35 0 84 1t86 6q42 5 78.5 15t54.5 29q48 49 108 149.5t79 150.5h73l-27 -442h-1331v78q28 2 76 8t68 14q38 16 51 40.5t13 62.5v1001q0 36 -11 59.5t-53 42.5q-26 12 -73 22t-71 13v78h1258v-362z" />
    <glyph glyph-name="F" unicode="F" horiz-adv-x="1375" 
d="M1344 1040h-77q-29 83 -102.5 176.5t-139.5 102.5q-30 4 -80 7t-92 3h-221v-557h141q60 0 104 13.5t78 48.5q25 25 48.5 83.5t28.5 100.5h76v-597h-76q-4 45 -31 109.5t-46 85.5q-29 32 -74 47.5t-108 15.5h-141v-470q0 -36 13.5 -61.5t51.5 -41.5q22 -9 60.5 -16.5
t76.5 -11.5v-78h-765v78q29 3 77 8.5t67 13.5q36 14 50 39t14 64v1001q0 34 -12.5 59.5t-51.5 42.5q-28 12 -74 22t-70 13v78h1275v-379z" />
    <glyph glyph-name="G" unicode="G" horiz-adv-x="1653" 
d="M1649 577q-31 -3 -55 -7t-60 -16q-41 -13 -54 -43t-13 -63v-165q0 -50 1 -80.5t3 -75.5q-100 -60 -295.5 -113t-359.5 -53q-154 0 -289 47t-237 141q-102 93 -160.5 231t-58.5 316q0 166 55 307t159 243q102 101 248.5 156t324.5 55q121 0 224 -29.5t170 -63.5l62 55h87
l9 -518h-88q-76 233 -182 346t-268 113q-192 0 -296.5 -168t-104.5 -463q0 -313 102.5 -490t290.5 -177q88 0 156.5 26.5t106.5 61.5v288q0 36 -13 60.5t-52 42.5q-30 14 -75 23t-75 13v78h737v-78z" />
    <glyph glyph-name="H" unicode="H" horiz-adv-x="1870" 
d="M1801 0h-767v78l73 6t66 12q37 15 51 39.5t14 62.5v489h-606v-478q0 -34 14.5 -61t49.5 -42q19 -8 65 -17t75 -11v-78h-767v78q25 1 73.5 6.5t70.5 13.5q36 13 50 39.5t14 62.5v1004q0 35 -12.5 59t-51.5 42q-29 13 -76 23.5t-68 12.5v78h767v-78q-31 -2 -74 -10t-66 -15
q-39 -13 -51.5 -41.5t-12.5 -60.5v-424h606v414q0 35 -13 59t-52 42q-26 12 -69.5 22.5t-69.5 13.5v78h767v-78q-32 -2 -72 -8.5t-72 -16.5q-38 -13 -51 -41t-13 -61v-1005q0 -36 13 -61t51 -42q24 -10 69.5 -18t74.5 -10v-78z" />
    <glyph glyph-name="I" unicode="I" horiz-adv-x="913" 
d="M850 0h-787v78l79.5 6t72.5 12q37 15 50.5 39.5t13.5 62.5v1006q0 34 -13 60t-51 42q-24 10 -71 20.5t-81 14.5v78h787v-78q-30 -3 -75 -8.5t-76 -15.5q-39 -13 -52 -40.5t-13 -62.5v-1005q0 -36 13.5 -61.5t51.5 -41.5q21 -9 69.5 -17.5t81.5 -10.5v-78z" />
    <glyph glyph-name="J" unicode="J" horiz-adv-x="1219" 
d="M1166 1341q-40 -5 -68 -10t-63 -14q-41 -11 -52.5 -39t-11.5 -64v-782q0 -108 -43.5 -198t-119.5 -151q-77 -60 -172 -90.5t-203 -30.5q-187 0 -301.5 90t-114.5 247q0 93 52.5 154t144.5 61q87 0 138.5 -51t51.5 -126q0 -64 -44.5 -118.5t-101.5 -100.5v-13
q9 -20 39 -34t61 -14q120 0 188.5 86t68.5 260v801q0 36 -11 60t-53 42q-30 13 -72.5 22t-70.5 13v78h758v-78z" />
    <glyph glyph-name="K" unicode="K" horiz-adv-x="1673" 
d="M1736 0h-562q-127 195 -229 326l-261 329h-52v-446q0 -36 13 -61t52 -42q18 -8 53.5 -16t70.5 -12v-78h-754v78q27 2 76.5 6t69.5 12q36 14 50 39t14 63v1006q0 35 -12 59t-52 43q-31 14 -75 23t-71 12v78h779v-78q-31 -3 -74.5 -8.5t-74.5 -15.5q-39 -13 -52 -41
t-13 -62v-478h42l182 171t161 164q80 89 117.5 141t37.5 90q0 17 -36 26t-110 13v78h617v-78q-112 -12 -188 -40.5t-151 -95.5q-107 -96 -176.5 -166.5l-178.5 -180.5l231 -286.5l269 -330.5q34 -41 78 -78.5t97 -60.5q25 -11 57 -17t55 -7v-78z" />
    <glyph glyph-name="L" unicode="L" horiz-adv-x="1404" 
d="M1404 455l-28 -455h-1307v78q35 3 82 9.5t62 12.5q36 14 50 39t14 64v1001q0 36 -11 59.5t-53 42.5q-31 14 -74.5 22.5t-69.5 12.5v78h779v-78q-32 -3 -75.5 -8.5t-75.5 -15.5q-39 -13 -52 -40.5t-13 -62.5v-933q0 -66 9 -104t35 -56q26 -19 72.5 -24.5t128.5 -5.5
q80 0 155.5 9.5t108.5 41.5q51 51 104.5 143.5t85.5 169.5h73z" />
    <glyph glyph-name="M" unicode="M" horiz-adv-x="2096" 
d="M2019 0h-769v78q34 3 83.5 10t67.5 15q37 15 53 41t16 66v1060l-488 -1247h-126q-9 33 -44.5 131l-57.5 157l-359 975v-863q0 -124 16.5 -188.5t53.5 -94.5q25 -21 89.5 -40t90.5 -22v-78h-610v78q25 3 81.5 13.5t92.5 36.5q40 28 54 94.5t14 189.5v703q0 64 -16 106.5
t-48 67.5q-40 31 -82 40t-85 12v78h653l350 -937l295 761q15 42 29 100t15 76h629v-78q-32 -2 -67 -8t-67 -16q-39 -13 -51.5 -41t-12.5 -62v-1005q0 -36 12.5 -60.5t51.5 -42.5q20 -9 65.5 -17t70.5 -11v-78z" />
    <glyph glyph-name="N" unicode="N" horiz-adv-x="1719" 
d="M1699 1341q-28 -3 -80 -11t-94 -39q-37 -27 -52.5 -92.5t-15.5 -192.5v-1014h-178l-884 1097v-666q0 -124 16.5 -188.5t53.5 -94.5q27 -22 86 -39t94 -23v-78h-610v78q39 3 89.5 14.5t84.5 35.5q39 29 53.5 87.5t14.5 196.5v672q0 50 -15.5 94.5t-48.5 76.5
q-35 34 -80.5 53.5t-103.5 30.5v80h534l776 -960v537q0 128 -17 190.5t-54 92.5q-29 23 -86 39.5t-92 22.5v78h609v-78z" />
    <glyph glyph-name="O" unicode="O" horiz-adv-x="1679" 
d="M1380 1261q105 -96 166.5 -232t61.5 -310q0 -155 -52 -295t-150 -241q-103 -105 -242 -163.5t-331 -58.5q-155 0 -293 51t-243 148q-104 95 -165 231t-61 303q0 174 59.5 315.5t163.5 242.5q103 99 244.5 152.5t301.5 53.5q159 0 298.5 -52t241.5 -145zM1123 246
q45 91 65 206t20 260q0 123 -17.5 239.5t-59.5 207.5q-43 91 -114 146t-177 55q-181 0 -275 -171.5t-94 -484.5q0 -133 20.5 -251t64.5 -206q45 -89 114 -138.5t170 -49.5q99 0 170 50t113 137z" />
    <glyph glyph-name="P" unicode="P" horiz-adv-x="1436" 
d="M1399 1064q0 -120 -49.5 -206.5t-136.5 -140.5q-90 -56 -205.5 -81t-259.5 -25h-116v-399q0 -36 13.5 -62.5t51.5 -42.5q20 -8 65 -17t76 -12v-78h-769v78q29 3 77 8.5t67 13.5q39 16 51.5 39t12.5 64v1001q0 35 -12 60.5t-52 42.5q-28 12 -74.5 21.5t-69.5 12.5v78h783
q275 0 411 -87.5t136 -267.5zM1009 1013q0 160 -64.5 237.5t-229.5 77.5h-83v-623h42q164 0 249.5 75.5t85.5 232.5z" />
    <glyph glyph-name="Q" unicode="Q" horiz-adv-x="1679" 
d="M1380 1261q105 -96 166.5 -232t61.5 -310q0 -247 -123.5 -434t-349.5 -269q3 -119 72 -206t163 -87q58 0 101.5 7t78.5 16v-88q-57 -24 -169 -48.5t-235 -24.5q-168 0 -276.5 100.5t-121.5 280.5q-142 14 -264 70t-215 151q-91 94 -144.5 223t-53.5 284q0 174 59.5 315.5
t163.5 242.5q103 99 244.5 152.5t301.5 53.5q159 0 298.5 -52t241.5 -145zM1123 246q45 91 65 206t20 260q0 123 -17.5 239.5t-59.5 207.5q-43 91 -114 146t-177 55q-181 0 -275 -171.5t-94 -484.5q0 -133 20.5 -251t64.5 -206q45 -89 114 -138.5t170 -49.5q99 0 170 50
t113 137z" />
    <glyph glyph-name="R" unicode="R" horiz-adv-x="1633" 
d="M1698 0h-544q-141 216 -234.5 344t-232.5 296h-55v-431q0 -36 13.5 -61t51.5 -42q19 -8 59.5 -16.5t69.5 -11.5v-78h-757v78q29 3 76.5 8.5t67.5 13.5q38 16 51 40.5t13 62.5v1001q0 36 -11 60t-53 42q-32 13 -75.5 22t-68.5 13v78h796q267 0 405.5 -83.5t138.5 -252.5
q0 -149 -85.5 -239.5t-260.5 -141.5l158.5 -204l188.5 -237q31 -39 84.5 -95.5t94.5 -69.5q23 -7 58.5 -12t50.5 -6v-78zM1017 1055q0 142 -79.5 207.5t-226.5 65.5h-79v-594h76q147 0 228 77t81 244z" />
    <glyph glyph-name="S" unicode="S" horiz-adv-x="1329" 
d="M664 -38q-130 0 -242.5 32t-190.5 76l-69 -70h-85l-13 513h86q29 -73 74 -154t104 -145q61 -67 136.5 -109t176.5 -42q136 0 208.5 66.5t72.5 167.5q0 83 -61.5 139.5t-190.5 97.5l-154.5 50t-132.5 47q-143 57 -212.5 163t-69.5 237q0 83 36 159.5t105 137.5
q66 57 169 93t224 36q118 0 221 -32.5t162 -65.5l61 60h87l8 -484h-86q-30 78 -70.5 159.5t-85.5 135.5q-49 58 -113 92.5t-150 34.5q-108 0 -176.5 -61t-68.5 -151q0 -85 59.5 -139t185.5 -95l151 -50t137 -48q145 -56 220.5 -154.5t75.5 -244.5q0 -92 -43 -178t-116 -143
q-80 -63 -185 -97t-245 -34z" />
    <glyph glyph-name="T" unicode="T" horiz-adv-x="1401" 
d="M1388 1013h-77q-31 91 -99.5 195t-126.5 112q-32 4 -79 7t-81 3h-47v-1113q0 -36 13 -63.5t51 -43.5q23 -9 71.5 -18.5t82.5 -13.5v-78h-791v78l81.5 8.5t71.5 13.5q39 16 52 43t13 64v1123h-47q-34 0 -81 -3t-79 -7q-58 -8 -126.5 -112t-99.5 -195h-77v406h1375v-406z
" />
    <glyph glyph-name="U" unicode="U" horiz-adv-x="1707" 
d="M1703 1341q-29 -3 -83.5 -13.5t-91.5 -36.5q-38 -25 -53.5 -90t-15.5 -195v-528q0 -233 -158 -375t-418 -142q-303 0 -469 137t-166 382v726q0 35 -13.5 60t-51.5 45q-26 13 -64 21t-62 11v76h744v-76q-32 -2 -65 -7.5t-67 -16.5q-38 -12 -51 -40t-13 -63v-716
q0 -211 93 -307t270 -96q174 0 273 106t99 312v481q0 128 -17.5 191.5t-53.5 91.5q-26 22 -90.5 40t-90.5 22v78h615v-78z" />
    <glyph glyph-name="V" unicode="V" horiz-adv-x="1561" 
d="M1602 1339q-33 -3 -63 -12t-62 -28q-43 -25 -66.5 -53.5t-46.5 -78.5l-87 -201.5l-128 -301.5l-138.5 -333l-142.5 -347h-201l-285 697l-204 492q-23 50 -44.5 75.5t-68.5 52.5q-34 19 -60 26.5t-69 13.5v78h769v-76q-108 -13 -146.5 -27.5t-38.5 -36.5q0 -11 3.5 -23.5
t10.5 -33.5q32 -88 116 -287.5l249 -608.5l168 421l118 304q25 64 41.5 119.5t16.5 83.5q0 32 -46 53.5t-170 31.5v80h575v-80z" />
    <glyph glyph-name="W" unicode="W" horiz-adv-x="2307" 
d="M2345 1339q-31 -3 -62 -13.5t-61 -26.5q-46 -26 -65.5 -57t-35.5 -75l-169.5 -487l-238.5 -696h-201l-375 1055l-338 -1055h-201l-256 748.5l-150 440.5q-19 54 -43 78.5t-62 49.5q-27 18 -57.5 26.5t-70.5 13.5v78h757v-76q-67 -8 -100 -15.5t-52 -15.5q-18 -8 -22 -17
t-4 -16q0 -14 3.5 -27t7.5 -30q24 -78 97 -296l180 -541l323 1034h212l375 -1066l132.5 420l83.5 279q20 71 32 119t12 83q0 21 -19.5 36t-52.5 26q-28 9 -72.5 14.5t-77.5 8.5v80h571v-80z" />
    <glyph glyph-name="X" unicode="X" horiz-adv-x="1656" 
d="M1659 0h-865v78q124 7 160 21.5t36 38.5q0 13 -13 41.5t-36 65.5q-35 59 -93.5 147.5l-121.5 182.5q-210 -243 -266.5 -323t-56.5 -106q0 -14 4.5 -23.5t23.5 -18.5q14 -8 48 -15t81 -11v-78h-551v78q43 3 68.5 9t50.5 17q58 27 103 68.5t93 96.5l158 179l185 213
l-184 270l-156 223q-32 46 -79.5 92t-99.5 66q-26 11 -58 18.5t-77 10.5v78h867v-78q-101 -4 -149.5 -18t-48.5 -42q0 -14 9.5 -35.5t37.5 -67.5q24 -40 74.5 -117l114.5 -175q189 225 237.5 293.5t48.5 93.5q0 29 -28 43.5t-131 24.5v78h553v-78q-38 -1 -62.5 -7t-56.5 -19
q-62 -28 -104 -69t-92 -96l-141.5 -159.5l-165.5 -189.5l207 -305l163 -231q30 -46 77.5 -92.5t98.5 -66.5q24 -9 55 -17t82 -11v-78z" />
    <glyph glyph-name="Y" unicode="Y" horiz-adv-x="1499" 
d="M1567 1341q-36 -4 -66 -13t-57 -25q-43 -24 -76.5 -61.5t-65.5 -83.5l-136.5 -206.5l-155.5 -245.5q-55 -85 -67.5 -130.5t-12.5 -157.5v-201q0 -36 13.5 -63t51.5 -44q17 -7 72 -18.5t81 -13.5v-78h-791v78q28 2 80.5 8t73.5 14q37 16 50.5 42.5t13.5 64.5v250
q0 33 -1 58t-7 42q-7 19 -24 48.5l-44 76.5l-149 256l-137 227q-34 55 -68.5 88.5t-70.5 54.5q-27 15 -65.5 23t-69.5 10v78h813v-78q-112 -3 -151 -15.5t-39 -34.5q0 -11 14.5 -44t51.5 -102q34 -65 99.5 -179l157.5 -267l261 420.5t71 146.5q0 34 -41.5 52t-134.5 23v78
h526v-78z" />
    <glyph glyph-name="Z" unicode="Z" horiz-adv-x="1412" 
d="M1397 479l-48 -479h-1332v61l917 1266h-311q-95 0 -137 -5.5t-79 -22.5q-43 -16 -95 -84.5t-139 -228.5h-81l44 433h1234v-61l-917 -1266h357q168 0 228.5 13.5t88.5 48.5q57 69 105.5 151.5t89.5 173.5h75z" />
    <glyph glyph-name="bracketleft" unicode="[" horiz-adv-x="915" 
d="M847 -310h-662v1829h662v-99h-347v-1630h347v-100z" />
    <glyph glyph-name="backslash" unicode="\" horiz-adv-x="966" 
d="M939 -424h-180l-691 1947h182z" />
    <glyph glyph-name="bracketright" unicode="]" horiz-adv-x="915" 
d="M731 -310h-662v100h347v1630h-347v99h662v-1829z" />
    <glyph glyph-name="asciicircum" unicode="^" horiz-adv-x="1440" 
d="M1233 760h-196l-317 513l-317 -513h-194l442 696h140z" />
    <glyph glyph-name="underscore" unicode="_" horiz-adv-x="1440" 
d="M1445 -302h-1450v122h1450v-122z" />
    <glyph glyph-name="grave" unicode="`" 
d="M741 1139l-42 -38q-166 100 -250.5 144.5t-144.5 85.5q-47 32 -66.5 56.5t-19.5 72.5q0 36 38.5 62t86.5 26q61 0 97 -18.5t82 -85.5l89.5 -127.5z" />
    <glyph glyph-name="a" unicode="a" horiz-adv-x="1220" 
d="M1201 21q-44 -19 -104 -35t-127 -16q-123 0 -181 36.5t-79 104.5h-6q-34 -34 -65.5 -58t-67.5 -41q-47 -22 -90.5 -32.5t-121.5 -10.5q-116 0 -198 68.5t-82 181.5q0 65 18 110.5t51 80.5q30 32 69.5 53t86.5 39q90 33 216 68.5t184 63.5v96q0 25 -4 66t-17 69
q-14 32 -44 54t-79 22q-44 0 -73.5 -12.5t-47.5 -25.5q3 -20 17 -61t14 -79q0 -17 -9 -42.5t-26 -40.5q-23 -20 -51.5 -31t-87.5 -11q-84 0 -127 40.5t-43 105.5q0 56 44.5 100.5t108.5 73.5q63 30 145 46.5t152 16.5q97 0 178 -11.5t146 -47.5q62 -35 98.5 -101.5
t36.5 -173.5q0 -113 -4.5 -268t-4.5 -204q0 -45 13.5 -71t41.5 -39q17 -8 53.5 -9.5t66.5 -1.5v-73zM704 542q-56 -19 -111 -43.5t-90 -51.5q-37 -28 -58 -71.5t-21 -102.5q0 -78 35.5 -113t87.5 -35q55 0 90.5 22.5t62.5 55.5z" />
    <glyph glyph-name="b" unicode="b" horiz-adv-x="1322" 
d="M1251 489q0 -225 -148.5 -373t-376.5 -148q-88 0 -151.5 12.5t-107.5 30.5q-46 19 -73.5 37.5t-43.5 30.5l-143 -130l-59 23q5 73 8.5 158.5t3.5 230.5v936q0 38 -15.5 70.5t-41.5 49.5q-19 12 -55.5 21t-67.5 11v73l494 26l15 -16v-650h6q73 71 150 104t154 33
q210 0 331 -143t121 -387zM892 477q0 76 -11.5 146.5t-38.5 124.5t-71 86.5t-109 32.5q-61 0 -101 -20t-72 -59v-582q6 -20 22.5 -52.5t33.5 -50.5q24 -26 51 -39.5t76 -13.5q102 0 161 111.5t59 315.5z" />
    <glyph glyph-name="c" unicode="c" horiz-adv-x="1088" 
d="M629 -32q-139 0 -245.5 40.5t-175.5 110.5q-69 71 -103 168t-34 211q0 104 41.5 198t112.5 165q73 73 181.5 116.5t239.5 43.5q184 0 291 -69.5t107 -187.5q0 -72 -38 -116t-131 -44q-75 0 -125.5 36t-50.5 94q0 49 16 97t19 73q-11 18 -28 27.5t-53 9.5q-45 0 -82 -21
t-69 -74q-31 -50 -49.5 -134t-18.5 -202q0 -178 83.5 -287t199.5 -109q111 0 176.5 49.5t116.5 140.5l75 -52q-31 -61 -74 -111.5t-103 -89.5q-63 -41 -128 -62t-151 -21z" />
    <glyph glyph-name="d" unicode="d" horiz-adv-x="1358" 
d="M1351 21l-493 -29l-15 14v92l-7 2q-49 -53 -132.5 -92.5t-168.5 -39.5q-202 0 -333 150t-131 388q0 211 146.5 362t354.5 151q82 0 154 -18.5t115 -43.5v327q0 37 -15 69.5t-40 50.5q-31 22 -77.5 31.5t-93.5 13.5v73l540 26l15 -16v-1311q0 -38 12.5 -64t40.5 -41
q21 -11 61.5 -16t66.5 -6v-73zM841 199v565q-7 23 -19.5 51t-34.5 53q-20 21 -53.5 37t-75.5 16q-100 0 -164 -113t-64 -319q0 -81 11.5 -145.5t40.5 -117.5t74.5 -83t109.5 -30q61 0 101 23.5t74 62.5z" />
    <glyph glyph-name="e" unicode="e" horiz-adv-x="1171" 
d="M1133 239q-35 -57 -84.5 -107.5t-112.5 -86.5q-67 -38 -135.5 -57.5t-157.5 -19.5q-148 0 -255.5 42t-177.5 113t-104.5 167.5t-34.5 209.5q0 102 37.5 195.5t106.5 166.5q68 71 171.5 115t231.5 44q140 0 230 -34t149 -94q57 -57 83 -134.5t26 -162.5v-65h-676
q0 -205 79 -312t251 -107q94 0 169 51.5t128 130.5zM751 619q0 60 -6 123t-21 103q-17 47 -46.5 71t-74.5 24q-77 0 -123 -78t-50 -247z" />
    <glyph glyph-name="f" unicode="f" horiz-adv-x="805" 
d="M1004 1379q0 -25 -8 -55t-26 -51q-21 -25 -47 -38t-78 -13q-79 0 -124 55t-96 183q-40 -17 -65 -88t-25 -305v-79h276v-108h-274v-689q0 -39 18 -60.5t47 -31.5q24 -8 63 -15.5t70 -10.5v-73h-675v73q26 2 50.5 5t43.5 10q32 12 43.5 34.5t11.5 59.5v698h-203v108h203
q0 107 31 207.5t96 179.5q63 78 166 126t242 48q124 0 192 -47t68 -123z" />
    <glyph glyph-name="g" unicode="g" horiz-adv-x="1181" 
d="M1178 880h-220q39 -44 58.5 -93t19.5 -102q0 -69 -37 -129.5t-97 -98.5q-61 -39 -143 -61t-178 -22h-163q-12 -9 -26.5 -28.5t-14.5 -37.5q0 -44 35 -61t127 -19q91 -2 184 -7.5t133 -6.5q58 -3 115 -23.5t99 -53.5q46 -35 76 -89.5t30 -125.5q0 -76 -36.5 -143
t-111.5 -116q-79 -51 -189.5 -79t-273.5 -28q-263 0 -400 64t-137 192q0 79 74 130t230 56v12q-92 31 -143.5 82.5t-51.5 119.5q0 42 20.5 71t52.5 51q28 19 68 32.5t67 21.5v11q-135 50 -198.5 122t-63.5 176q0 147 135.5 235t343.5 88q68 0 131.5 -11.5t96.5 -20.5h388
v-108zM709 689q0 117 -37 185t-114 68q-39 0 -68 -18.5t-47 -53.5q-17 -34 -23 -79.5t-6 -93.5q0 -109 38 -179t108 -70q72 0 110.5 63t38.5 178zM877 -151q0 34 -19 67.5t-85 54.5q-36 6 -118.5 8t-226.5 2q-35 -30 -58.5 -71t-23.5 -99q0 -25 14 -55t44 -56
q35 -29 78 -45.5t130 -16.5q129 0 197 50t68 161z" />
    <glyph glyph-name="h" unicode="h" horiz-adv-x="1392" 
d="M1358 0h-602v73q20 2 47 5t40 10q21 11 29.5 32t8.5 62v468q0 103 -38.5 154t-109.5 51q-40 0 -74.5 -12t-67.5 -35q-29 -20 -46.5 -41t-29.5 -37v-537q0 -37 9 -58.5t34 -35.5q15 -9 39.5 -16t47.5 -10v-73h-608v73q26 2 50.5 5t43.5 10q32 12 43.5 34.5t11.5 59.5v1115
q0 32 -15 68t-42 54q-20 13 -58 20.5t-68 9.5v73l497 26l15 -16v-688h4l68.5 61.5t74.5 55.5q37 24 96.5 41t128.5 17q162 0 243.5 -93t81.5 -245v-490q0 -37 11 -59t41 -35q18 -8 40 -14t54 -10v-73z" />
    <glyph glyph-name="i" unicode="i" horiz-adv-x="724" 
d="M690 0h-632v73q26 2 51 5t43 10q32 12 45 34.5t13 59.5v582q0 35 -16 61.5t-40 42.5q-18 12 -54.5 23t-66.5 14v73l490 26l15 -15v-794q0 -35 15 -59.5t43 -36.5q20 -9 44 -16t50 -10v-73zM544 1364q0 -76 -58.5 -129.5t-138.5 -53.5q-81 0 -139.5 53.5t-58.5 129.5
t58.5 130t139.5 54t139 -54t58 -130z" />
    <glyph glyph-name="j" unicode="j" horiz-adv-x="709" 
d="M551 118q0 -103 -35 -208t-100 -180q-71 -82 -172 -128t-231 -46q-121 0 -186.5 46.5t-65.5 125.5q0 28 6.5 52t27.5 50q16 22 49.5 37.5t75.5 15.5q83 0 128 -59.5t92 -178.5q41 23 60.5 98t19.5 326v691q0 35 -15 61.5t-41 44.5q-19 13 -60.5 24.5t-73.5 14.5v73
l506 26l15 -15v-871zM555 1364q0 -76 -58.5 -129.5t-138.5 -53.5q-81 0 -139.5 53.5t-58.5 129.5t58.5 130t139.5 54t139 -54t58 -130z" />
    <glyph glyph-name="k" unicode="k" horiz-adv-x="1294" 
d="M1341 0h-471q-87 153 -159 259.5l-136 197.5l-60 -51v-218q0 -36 10.5 -59t40.5 -34q18 -8 42 -14t48 -8v-73h-619v73q25 2 50 5.5t44 9.5q32 11 43.5 34t11.5 60v1115q0 33 -14.5 68.5t-42.5 53.5q-19 12 -57 20t-69 10v73l497 26l15 -16v-1032l166.5 153l148.5 144
q33 34 36.5 51.5t3.5 21.5q0 18 -31.5 30t-94.5 21v71h508v-69q-100 -28 -152.5 -52.5t-114.5 -65.5q-41 -27 -79.5 -56.5t-88.5 -73.5l181 -263l174 -256q31 -47 77 -63t92 -20v-73z" />
    <glyph glyph-name="l" unicode="l" horiz-adv-x="705" 
d="M667 0h-627v73q26 2 50.5 5t43.5 10q32 12 43.5 34.5t11.5 59.5v1108q0 38 -15.5 70.5t-41.5 49.5q-20 13 -60.5 25t-71.5 14v73l503 26l15 -16v-1337q0 -37 13 -60t42 -36q20 -9 42 -16t52 -10v-73z" />
    <glyph glyph-name="m" unicode="m" horiz-adv-x="2080" 
d="M2045 0h-596v73q22 3 46 5t40 10q22 10 28 33.5t6 60.5v467q0 103 -36.5 154.5t-104.5 51.5q-43 0 -76.5 -13.5t-61.5 -33.5q-29 -21 -45 -42l-27 -36v-537q0 -36 8.5 -58.5t31.5 -35.5q16 -9 36.5 -16t43.5 -10v-73h-571v73l46 5t40 10q21 11 27.5 32t6.5 62v467
q0 103 -36.5 154.5t-104.5 51.5q-43 0 -76.5 -13.5t-61.5 -33.5q-29 -21 -45 -42l-27 -36v-537q0 -35 9 -58t32 -36q16 -9 36.5 -16t43.5 -10v-73h-599v73q26 2 51 5t43 10q32 12 44 34.5t12 59.5v582q0 32 -17 62.5t-41 47.5q-18 12 -45.5 20t-60.5 11v73l477 26l15 -15
v-141h4l66.5 59.5t72.5 55.5q37 24 95 40t127 16q114 0 190.5 -49.5t108.5 -131.5h9l71 63.5t77 58.5q39 25 99.5 42t129.5 17q151 0 232.5 -89t81.5 -253v-486q0 -37 11 -59.5t40 -34.5q16 -7 39.5 -14t54.5 -10v-73z" />
    <glyph glyph-name="n" unicode="n" horiz-adv-x="1413" 
d="M1378 0h-602v73l46 5t41 10q21 11 30 32t9 62v468q0 102 -37.5 153.5t-110.5 51.5q-40 0 -74.5 -12t-67.5 -35q-29 -20 -46.5 -41t-29.5 -37v-537q0 -35 10 -58.5t33 -35.5q16 -9 40 -16t47 -10v-73h-608v73q25 2 50.5 5.5t43.5 9.5q32 11 44 34t12 60v582q0 31 -16 61
t-42 49q-18 12 -45.5 20t-60.5 11v73l477 26l15 -15v-145h4l68 60t74 57q37 24 97 41t128 17q163 0 244.5 -92.5t81.5 -245.5v-490q0 -37 11 -59t41 -35q16 -7 39.5 -14t53.5 -10v-73z" />
    <glyph glyph-name="o" unicode="o" horiz-adv-x="1302" 
d="M1079 874q74 -69 113 -165t39 -208q0 -111 -38.5 -209.5t-112.5 -168.5q-79 -75 -188.5 -115t-250.5 -40q-122 0 -224.5 35t-181.5 105q-76 67 -120 165.5t-44 220.5q0 120 38.5 213.5t115.5 166.5q74 70 182.5 108.5t242.5 38.5q140 0 246.5 -38.5t182.5 -108.5z
M823 181q22 56 32.5 136t10.5 186q0 70 -10 160t-30 142q-24 63 -66.5 99t-107.5 36q-71 0 -113.5 -39t-65.5 -101q-21 -57 -29 -133.5t-8 -159.5q0 -109 7 -180.5t34 -143.5q23 -62 66 -98t109 -36q60 0 103 33.5t68 98.5z" />
    <glyph glyph-name="p" unicode="p" horiz-adv-x="1347" 
d="M1276 487q0 -211 -141 -362t-357 -151q-96 0 -156 19.5t-99 47.5h-8v-281q0 -35 15.5 -61t43.5 -38q27 -11 76.5 -20t82.5 -11v-74h-722v74q25 2 63 7.5t57 11.5q32 11 43.5 37.5t11.5 60.5v1023q-3 33 -15.5 58t-39.5 44q-20 13 -53 21.5t-65 11.5v73l487 26l15 -13
v-111l8 -2q66 67 146.5 104t159.5 37q207 0 327 -146.5t120 -385.5zM917 483q0 75 -11 143.5t-39 122.5q-27 54 -71.5 86t-108.5 32q-65 0 -104 -22.5t-68 -58.5v-567q6 -20 23 -51.5t34 -50.5q25 -27 57 -40t70 -13q99 0 158.5 106.5t59.5 312.5z" />
    <glyph glyph-name="q" unicode="q" horiz-adv-x="1328" 
d="M1355 -444h-700v74q28 2 67.5 6.5t61.5 12.5q31 10 44 36t13 62v349l-8 2q-17 -16 -44.5 -39t-66.5 -41q-43 -21 -82.5 -32.5t-104.5 -11.5q-208 0 -336 144t-128 388q0 221 153 367t387 146q118 0 213 -26.5t177 -69.5l130 128l55 -13q-3 -63 -9.5 -164.5t-6.5 -168.5
v-941q0 -37 13.5 -63.5t43.5 -39.5q22 -10 60 -19t68 -12v-74zM841 199v565q-7 25 -19.5 54t-35.5 56q-22 25 -54.5 41t-78.5 16q-100 0 -161.5 -117t-61.5 -323q0 -84 13 -148.5t39 -112.5q30 -53 72 -82t112 -29q64 0 104 21.5t71 58.5z" />
    <glyph glyph-name="r" unicode="r" horiz-adv-x="1065" 
d="M1054 809q0 -76 -47 -133.5t-124 -57.5q-73 0 -123.5 37t-50.5 109q0 35 5 54.5l9 36.5q-46 -2 -97 -32t-90 -80v-549q0 -35 11 -58t37 -36q22 -11 71.5 -18.5t71.5 -8.5v-73h-669v73q25 2 50.5 5.5t43.5 9.5q32 11 44 34t12 60v582q0 36 -17 64.5t-41 45.5
q-18 12 -45.5 20t-60.5 11v73l477 26l15 -15v-145h4q69 80 146.5 125.5t161.5 45.5q93 0 149.5 -57.5t56.5 -148.5z" />
    <glyph glyph-name="s" unicode="s" horiz-adv-x="1050" 
d="M521 -34q-97 0 -189.5 28.5t-143.5 60.5l-30 -68h-78l-13 373h73q15 -45 50 -101.5t80 -101.5q47 -45 107.5 -76t129.5 -31q91 0 135.5 35.5t44.5 109.5q0 40 -20 66t-55 45q-39 20 -85.5 34l-114.5 34t-116.5 40.5t-100.5 64.5q-45 39 -72 94t-27 131q0 141 118.5 228
t310.5 87q91 0 167.5 -18.5t128.5 -40.5l21 59h76l16 -341h-71q-35 104 -120 179.5t-183 75.5q-77 0 -121 -32t-44 -89q0 -76 64.5 -110t180.5 -64q179 -46 262 -125.5t83 -202.5q0 -164 -128.5 -254t-335.5 -90z" />
    <glyph glyph-name="t" unicode="t" horiz-adv-x="814" 
d="M802 46q-64 -28 -137 -50.5t-178 -22.5q-156 0 -231.5 76t-75.5 217v614h-180v108h184v303h325v-303h280v-108h-278v-548q0 -117 32.5 -166t116.5 -49q27 0 75 4t67 9v-84z" />
    <glyph glyph-name="u" unicode="u" horiz-adv-x="1386" 
d="M1363 21l-477 -29l-15 14v131h-6l-66.5 -60.5t-77.5 -53.5q-51 -27 -96.5 -40t-132.5 -13q-151 0 -231.5 91t-80.5 257v450q0 39 -15 63.5t-40 43.5q-20 15 -52 21.5t-58 8.5v73l485 26l11 -15v-665q0 -103 39.5 -152t108.5 -49q71 0 127.5 37t82.5 79v539q0 34 -13 61
t-38 44q-18 12 -51.5 16t-68.5 6v73l485 26l15 -15v-772q0 -35 14 -59.5t41 -41.5q19 -12 49.5 -16.5t60.5 -5.5v-73z" />
    <glyph glyph-name="v" unicode="v" horiz-adv-x="1161" 
d="M1198 919q-45 -7 -87.5 -34t-70.5 -84l-137.5 -294.5l-132.5 -287.5q-20 -42 -45.5 -108t-42.5 -120h-184l-196.5 443l-172.5 378q-21 47 -65.5 74t-90.5 33v73h616v-73q-34 -1 -80 -15t-46 -36q0 -6 4 -18t10 -27l96.5 -219l136.5 -301l95.5 213.5l112.5 266.5
q9 24 10.5 39t1.5 20q0 18 -17.5 31.5t-41.5 23.5q-25 10 -48 15t-38 7v73h413v-73z" />
    <glyph glyph-name="w" unicode="w" horiz-adv-x="1768" 
d="M1782 919q-46 -7 -85 -30.5t-66 -87.5l-112 -276l-118 -303q-16 -41 -38.5 -113t-35.5 -118h-195l-252 680l-236 -680h-193l-159 423.5l-155 397.5q-18 47 -61.5 74t-89.5 33v73h614v-73q-34 -3 -81 -16t-47 -35q0 -10 2.5 -17.5t8.5 -27.5q27 -78 74 -201.5l110 -287.5
l222 658h198l253 -680l89.5 242.5l79.5 228.5q7 21 8.5 37.5t0.5 21.5q0 18 -18 32.5t-43 23.5t-48.5 14t-39.5 7v73h413v-73z" />
    <glyph glyph-name="x" unicode="x" horiz-adv-x="1204" 
d="M1198 0h-625v73q49 3 82 8.5t33 22.5q0 8 -8.5 25t-21.5 38q-19 31 -65.5 98l-87.5 124l-97 -115l-82 -103q-15 -18 -21 -33t-6 -18q0 -23 32.5 -35t77.5 -12v-73h-406v73q81 17 129.5 54t65.5 57l123.5 129.5l135.5 144.5l-138 193l-135 187q-27 36 -66 55.5t-101 25.5
v73h611v-73q-33 0 -65 -4t-32 -14q0 -8 5 -20t13 -25q19 -32 60 -94l88 -130l75.5 90t78.5 99q18 24 22.5 36t4.5 15q0 17 -21.5 30.5t-84.5 16.5v73h398v-73q-49 -8 -95 -33t-96 -78l-113.5 -118.5l-117.5 -124.5l133 -189l150 -209q27 -38 60.5 -62t106.5 -32v-73z" />
    <glyph glyph-name="y" unicode="y" horiz-adv-x="1151" 
d="M1188 919q-45 -7 -87.5 -34t-70.5 -84l-177 -387.5l-202 -444.5q-62 -134 -120 -214t-109 -123q-48 -40 -95 -58t-95 -18q-95 0 -153.5 53t-58.5 119q0 28 6.5 52t27.5 50q16 22 49.5 37.5t75.5 15.5q56 0 107 -39t106 -108q33 33 81.5 98.5t71.5 134.5l-211 433.5
l-206 409.5q-25 48 -67 74.5t-89 32.5v73h612v-73q-34 -1 -78.5 -15t-44.5 -36q0 -8 3 -17.5t11 -27.5l96.5 -194.5l145.5 -291.5l105.5 244.5l84.5 201.5q10 25 11.5 39.5t1.5 19.5q0 18 -17.5 31.5t-41.5 23.5q-25 10 -48 15t-38 7v73h413v-73z" />
    <glyph glyph-name="z" unicode="z" horiz-adv-x="1076" 
d="M1028 0h-984v69l574 832q-119 0 -214 -3t-150 -24q-19 -7 -50.5 -72.5t-49.5 -136.5h-71v327h930v-62l-576 -839q24 0 70 -1t88 -1q49 0 105 2.5t87 6.5q41 5 65.5 28t38.5 55q13 29 34 87.5t32 104.5h71v-373z" />
    <glyph glyph-name="braceleft" unicode="{" 
d="M956 -333q-132 0 -241.5 12t-187.5 52t-120 115.5t-42 200.5q0 60 6.5 124.5t6.5 119.5q0 72 -20 116t-61 70t-99.5 35.5t-125.5 14.5v150q66 5 125.5 14.5t99.5 35.5q41 27 61 67t20 119q0 57 -6.5 120.5t-6.5 123.5q0 123 41 198t121 118q74 39 187.5 51.5t241.5 12.5
v-87q-54 -4 -94 -10.5t-83 -32.5q-36 -22 -58.5 -67t-22.5 -119v-190q0 -104 -28.5 -175t-80.5 -114q-49 -41 -114 -64.5t-141 -37.5v-76q72 -14 139.5 -38t115.5 -65q50 -42 79.5 -111.5t29.5 -176.5v-190q0 -74 22 -118.5t59 -68.5q36 -22 83 -31t94 -11v-87z" />
    <glyph glyph-name="bar" unicode="|" horiz-adv-x="794" 
d="M483 -424h-171v1947h171v-1947z" />
    <glyph glyph-name="braceright" unicode="}" 
d="M953 527q-67 -5 -125.5 -14.5t-99.5 -35.5t-61 -70t-20 -116q0 -55 6.5 -119.5t6.5 -124.5q0 -125 -42 -200.5t-120 -115.5t-187.5 -52t-241.5 -12v87q47 2 95 11t82 31q37 24 59 68.5t22 118.5v190q0 107 29.5 176.5t79.5 111.5q48 41 115.5 65t139.5 38v76
q-76 14 -141 38t-114 64q-52 43 -80.5 114t-28.5 175v190q0 74 -22.5 119t-58.5 67q-43 26 -83 32.5t-94 10.5v87q128 0 240.5 -11.5t188.5 -52.5q80 -43 121 -118t41 -198q0 -60 -6.5 -123.5t-6.5 -120.5q0 -79 20 -119t61 -67q38 -25 98.5 -35t126.5 -15v-150z" />
    <glyph glyph-name="asciitilde" unicode="~" horiz-adv-x="1440" 
d="M1295 735q-20 -55 -53.5 -113t-74.5 -103q-51 -56 -110.5 -89.5t-126.5 -33.5q-76 0 -138.5 26.5t-120.5 60.5q-46 28 -106 58t-107 30q-66 0 -115 -47.5t-94 -151.5l-104 42q15 44 47.5 103t80.5 113q45 51 106.5 87t130.5 36q82 0 145.5 -28.5t115.5 -59.5
q53 -32 104.5 -59.5t106.5 -27.5q70 0 119 52.5t90 146.5z" />
    <glyph glyph-name="Adieresis" unicode="&#xc4;" horiz-adv-x="1553" 
d="M1609 0h-773v78q54 4 127 19.5t73 38.5q0 8 -1.5 18t-8.5 27l-121 294h-490q-17 -41 -37.5 -96l-35.5 -98q-19 -56 -22.5 -81t-3.5 -35q0 -32 48.5 -54.5t161.5 -32.5v-78h-582v78q33 2 74.5 10.5t65.5 23.5q41 24 69.5 59t47.5 83l232.5 563l257.5 622h200l307 -762
l189 -464q13 -30 33 -54.5t57 -46.5q28 -16 65 -24t67 -10v-78zM864 574l-206 514l-203 -514h409zM1219 1690q0 -67 -47.5 -117.5t-111.5 -50.5q-65 0 -112.5 50t-47.5 118q0 67 47 117.5t113 50.5q64 0 111.5 -50.5t47.5 -117.5zM683 1690q0 -67 -48 -117.5t-112 -50.5
q-65 0 -112 50t-47 118q0 67 46.5 117.5t112.5 50.5q64 0 112 -50.5t48 -117.5z" />
    <glyph glyph-name="Aring" unicode="&#xc5;" horiz-adv-x="1553" 
d="M1609 0h-773v78q54 4 127 19.5t73 38.5q0 8 -1.5 18t-8.5 27l-121 294h-490q-17 -41 -37.5 -96l-35.5 -98q-19 -56 -22.5 -81t-3.5 -35q0 -32 48.5 -54.5t161.5 -32.5v-78h-582v78q33 2 74.5 10.5t65.5 23.5q41 24 69.5 59t47.5 83l238.5 577.5l242.5 585.5
q-85 22 -134 79.5t-49 140.5q0 102 82 166.5t202 64.5q123 0 203.5 -63t80.5 -168q0 -78 -46 -135.5t-124 -81.5l295.5 -731l194.5 -476q13 -30 33 -54.5t57 -46.5q28 -16 65 -24t67 -10v-78zM864 574l-206 514l-203 -514h409zM915 1635q0 71 -33.5 117t-98.5 46
q-63 0 -97.5 -44t-34.5 -119q0 -72 34 -118.5t98 -46.5t98 45.5t34 119.5z" />
    <glyph glyph-name="Ccedilla" unicode="&#xc7;" horiz-adv-x="1465" 
d="M725 -32q-129 12 -242 61t-199 131q-99 94 -156 232t-57 304q0 165 57.5 305.5t161.5 243.5q102 101 245 156.5t306 55.5q118 0 215 -28.5t164 -64.5l62 55h87l9 -518h-88q-75 237 -180 348t-256 111q-188 0 -286 -165.5t-98 -464.5q0 -169 33.5 -288.5t87.5 -192.5
q58 -76 137 -110.5t175 -34.5q140 0 249.5 75t199.5 229l86 -52q-43 -88 -98 -157.5t-127 -119.5q-79 -55 -174.5 -85t-227.5 -30v-60q110 0 179 -37.5t69 -118.5q0 -57 -29 -96t-83 -59q-56 -21 -135.5 -29t-197.5 -8v78q50 0 98 0.5t78 7.5q35 7 54 22.5t19 49.5
q0 40 -38 52t-100 12v190z" />
    <glyph glyph-name="Eacute" unicode="&#xc9;" horiz-adv-x="1477" 
d="M1327 1057h-76q-29 81 -100 164t-141 98q-30 7 -83.5 8.5t-88.5 1.5h-206v-548h146q55 0 100 13t82 50q23 23 46.5 81t30.5 101h76v-592h-76q-6 42 -30.5 105.5t-46.5 87.5q-33 36 -78 49.5t-104 13.5h-146v-409q0 -64 9.5 -101.5t35.5 -57.5q25 -19 68.5 -25t118.5 -6
q35 0 84 1t86 6q42 5 78.5 15t54.5 29q48 49 108 149.5t79 150.5h73l-27 -442h-1331v78q28 2 76 8t68 14q38 16 51 40.5t13 62.5v1001q0 36 -11 59.5t-53 42.5q-26 12 -73 22t-71 13v78h1258v-362zM1063 1768q0 -42 -26 -69t-75 -47q-56 -23 -168 -64t-260 -103l-33 41
l155 151l110 115q38 40 73 58t74 18q65 0 107.5 -27.5t42.5 -72.5z" />
    <glyph glyph-name="Ntilde" unicode="&#xd1;" horiz-adv-x="1719" 
d="M1699 1341q-28 -3 -80 -11t-94 -39q-37 -27 -52.5 -92.5t-15.5 -192.5v-1014h-178l-884 1097v-666q0 -124 16.5 -188.5t53.5 -94.5q27 -22 86 -39t94 -23v-78h-610v78q39 3 89.5 14.5t84.5 35.5q39 29 53.5 87.5t14.5 196.5v672q0 50 -15.5 94.5t-48.5 76.5
q-35 34 -80.5 53.5t-103.5 30.5v80h534l776 -960v537q0 128 -17 190.5t-54 92.5q-29 23 -86 39.5t-92 22.5v78h609v-78zM1332 1844q-12 -43 -39.5 -96.5t-66.5 -97.5q-44 -49 -90 -78t-107 -29q-72 0 -125.5 17.5t-92.5 37.5q-34 18 -75.5 37t-78.5 19q-45 0 -75.5 -34
t-71.5 -114l-72 30q14 40 40 90t65 99q34 43 86 76t104 33q66 0 118 -16.5t96 -38.5l75.5 -38.5t72.5 -15.5q80 0 109.5 40t50.5 103z" />
    <glyph glyph-name="Odieresis" unicode="&#xd6;" horiz-adv-x="1679" 
d="M1380 1261q105 -96 166.5 -232t61.5 -310q0 -155 -52 -295t-150 -241q-103 -105 -242 -163.5t-331 -58.5q-155 0 -293 51t-243 148q-104 95 -165 231t-61 303q0 174 59.5 315.5t163.5 242.5q103 99 244.5 152.5t301.5 53.5q159 0 298.5 -52t241.5 -145zM1123 246
q45 91 65 206t20 260q0 123 -17.5 239.5t-59.5 207.5q-43 91 -114 146t-177 55q-181 0 -275 -171.5t-94 -484.5q0 -133 20.5 -251t64.5 -206q45 -89 114 -138.5t170 -49.5q99 0 170 50t113 137zM1267 1700q0 -67 -47.5 -117.5t-111.5 -50.5q-65 0 -112.5 50t-47.5 118
q0 67 47 117.5t113 50.5q64 0 111.5 -50.5t47.5 -117.5zM731 1700q0 -67 -48 -117.5t-112 -50.5q-65 0 -112 50t-47 118q0 67 46.5 117.5t112.5 50.5q64 0 112 -50.5t48 -117.5z" />
    <glyph glyph-name="Udieresis" unicode="&#xdc;" horiz-adv-x="1707" 
d="M1703 1341q-29 -3 -83.5 -13.5t-91.5 -36.5q-38 -25 -53.5 -90t-15.5 -195v-528q0 -233 -158 -375t-418 -142q-303 0 -469 137t-166 382v726q0 35 -13.5 60t-51.5 45q-26 13 -64 21t-62 11v76h744v-76q-32 -2 -65 -7.5t-67 -16.5q-38 -12 -51 -40t-13 -63v-716
q0 -211 93 -307t270 -96q174 0 273 106t99 312v481q0 128 -17.5 191.5t-53.5 91.5q-26 22 -90.5 40t-90.5 22v78h615v-78zM1337 1700q0 -67 -47.5 -117.5t-111.5 -50.5q-65 0 -112.5 50t-47.5 118q0 67 47 117.5t113 50.5q64 0 111.5 -50.5t47.5 -117.5zM801 1700
q0 -67 -48 -117.5t-112 -50.5q-65 0 -112 50t-47 118q0 67 46.5 117.5t112.5 50.5q64 0 112 -50.5t48 -117.5z" />
    <glyph glyph-name="aacute" unicode="&#xe1;" horiz-adv-x="1220" 
d="M1201 21q-44 -19 -104 -35t-127 -16q-123 0 -181 36.5t-79 104.5h-6q-34 -34 -65.5 -58t-67.5 -41q-47 -22 -90.5 -32.5t-121.5 -10.5q-116 0 -198 68.5t-82 181.5q0 65 18 110.5t51 80.5q30 32 69.5 53t86.5 39q90 33 216 68.5t184 63.5v96q0 25 -4 66t-17 69
q-14 32 -44 54t-79 22q-44 0 -73.5 -12.5t-47.5 -25.5q3 -20 17 -61t14 -79q0 -17 -9 -42.5t-26 -40.5q-23 -20 -51.5 -31t-87.5 -11q-84 0 -127 40.5t-43 105.5q0 56 44.5 100.5t108.5 73.5q63 30 145 46.5t152 16.5q97 0 178 -11.5t146 -47.5q62 -35 98.5 -101.5
t36.5 -173.5q0 -113 -4.5 -268t-4.5 -204q0 -45 13.5 -71t41.5 -39q17 -8 53.5 -9.5t66.5 -1.5v-73zM704 542q-56 -19 -111 -43.5t-90 -51.5q-37 -28 -58 -71.5t-21 -102.5q0 -78 35.5 -113t87.5 -35q55 0 90.5 22.5t62.5 55.5zM884 1460q0 -45 -20.5 -72.5t-65.5 -56.5
q-49 -32 -155 -90.5t-240 -139.5l-42 38q88 117 136 186.5l83 118.5q43 61 82 82.5t97 21.5q48 0 86.5 -26t38.5 -62z" />
    <glyph glyph-name="agrave" unicode="&#xe0;" horiz-adv-x="1220" 
d="M1201 21q-44 -19 -104 -35t-127 -16q-123 0 -181 36.5t-79 104.5h-6q-34 -34 -65.5 -58t-67.5 -41q-47 -22 -90.5 -32.5t-121.5 -10.5q-116 0 -198 68.5t-82 181.5q0 65 18 110.5t51 80.5q30 32 69.5 53t86.5 39q90 33 216 68.5t184 63.5v96q0 25 -4 66t-17 69
q-14 32 -44 54t-79 22q-44 0 -73.5 -12.5t-47.5 -25.5q3 -20 17 -61t14 -79q0 -17 -9 -42.5t-26 -40.5q-23 -20 -51.5 -31t-87.5 -11q-84 0 -127 40.5t-43 105.5q0 56 44.5 100.5t108.5 73.5q63 30 145 46.5t152 16.5q97 0 178 -11.5t146 -47.5q62 -35 98.5 -101.5
t36.5 -173.5q0 -113 -4.5 -268t-4.5 -204q0 -45 13.5 -71t41.5 -39q17 -8 53.5 -9.5t66.5 -1.5v-73zM704 542q-56 -19 -111 -43.5t-90 -51.5q-37 -28 -58 -71.5t-21 -102.5q0 -78 35.5 -113t87.5 -35q55 0 90.5 22.5t62.5 55.5zM821 1139l-42 -38q-166 100 -250.5 144.5
t-144.5 85.5q-47 32 -66.5 56.5t-19.5 72.5q0 36 38.5 62t86.5 26q61 0 97 -18.5t82 -85.5l89.5 -127.5z" />
    <glyph glyph-name="acircumflex" unicode="&#xe2;" horiz-adv-x="1220" 
d="M1201 21q-44 -19 -104 -35t-127 -16q-123 0 -181 36.5t-79 104.5h-6q-34 -34 -65.5 -58t-67.5 -41q-47 -22 -90.5 -32.5t-121.5 -10.5q-116 0 -198 68.5t-82 181.5q0 65 18 110.5t51 80.5q30 32 69.5 53t86.5 39q90 33 216 68.5t184 63.5v96q0 25 -4 66t-17 69
q-14 32 -44 54t-79 22q-44 0 -73.5 -12.5t-47.5 -25.5q3 -20 17 -61t14 -79q0 -17 -9 -42.5t-26 -40.5q-23 -20 -51.5 -31t-87.5 -11q-84 0 -127 40.5t-43 105.5q0 56 44.5 100.5t108.5 73.5q63 30 145 46.5t152 16.5q97 0 178 -11.5t146 -47.5q62 -35 98.5 -101.5
t36.5 -173.5q0 -113 -4.5 -268t-4.5 -204q0 -45 13.5 -71t41.5 -39q17 -8 53.5 -9.5t66.5 -1.5v-73zM704 542q-56 -19 -111 -43.5t-90 -51.5q-37 -28 -58 -71.5t-21 -102.5q0 -78 35.5 -113t87.5 -35q55 0 90.5 22.5t62.5 55.5zM963 1132l-54 -29l-320 254l-316 -254l-51 29
l139 224t92 131q23 31 54.5 46t85.5 15q55 0 82 -14t51 -43q47 -57 100.5 -141z" />
    <glyph glyph-name="adieresis" unicode="&#xe4;" horiz-adv-x="1220" 
d="M1201 21q-44 -19 -104 -35t-127 -16q-123 0 -181 36.5t-79 104.5h-6q-34 -34 -65.5 -58t-67.5 -41q-47 -22 -90.5 -32.5t-121.5 -10.5q-116 0 -198 68.5t-82 181.5q0 65 18 110.5t51 80.5q30 32 69.5 53t86.5 39q90 33 216 68.5t184 63.5v96q0 25 -4 66t-17 69
q-14 32 -44 54t-79 22q-44 0 -73.5 -12.5t-47.5 -25.5q3 -20 17 -61t14 -79q0 -17 -9 -42.5t-26 -40.5q-23 -20 -51.5 -31t-87.5 -11q-84 0 -127 40.5t-43 105.5q0 56 44.5 100.5t108.5 73.5q63 30 145 46.5t152 16.5q97 0 178 -11.5t146 -47.5q62 -35 98.5 -101.5
t36.5 -173.5q0 -113 -4.5 -268t-4.5 -204q0 -45 13.5 -71t41.5 -39q17 -8 53.5 -9.5t66.5 -1.5v-73zM704 542q-56 -19 -111 -43.5t-90 -51.5q-37 -28 -58 -71.5t-21 -102.5q0 -78 35.5 -113t87.5 -35q55 0 90.5 22.5t62.5 55.5zM999 1349q0 -67 -47.5 -117.5t-111.5 -50.5
q-65 0 -112.5 50t-47.5 118q0 67 47 117.5t113 50.5q64 0 111.5 -50.5t47.5 -117.5zM504 1349q0 -67 -48 -117.5t-112 -50.5q-65 0 -112 50t-47 118q0 67 46.5 117.5t112.5 50.5q64 0 112 -50.5t48 -117.5z" />
    <glyph glyph-name="atilde" unicode="&#xe3;" horiz-adv-x="1220" 
d="M1201 21q-44 -19 -104 -35t-127 -16q-123 0 -181 36.5t-79 104.5h-6q-34 -34 -65.5 -58t-67.5 -41q-47 -22 -90.5 -32.5t-121.5 -10.5q-116 0 -198 68.5t-82 181.5q0 65 18 110.5t51 80.5q30 32 69.5 53t86.5 39q90 33 216 68.5t184 63.5v96q0 25 -4 66t-17 69
q-14 32 -44 54t-79 22q-44 0 -73.5 -12.5t-47.5 -25.5q3 -20 17 -61t14 -79q0 -17 -9 -42.5t-26 -40.5q-23 -20 -51.5 -31t-87.5 -11q-84 0 -127 40.5t-43 105.5q0 56 44.5 100.5t108.5 73.5q63 30 145 46.5t152 16.5q97 0 178 -11.5t146 -47.5q62 -35 98.5 -101.5
t36.5 -173.5q0 -113 -4.5 -268t-4.5 -204q0 -45 13.5 -71t41.5 -39q17 -8 53.5 -9.5t66.5 -1.5v-73zM704 542q-56 -19 -111 -43.5t-90 -51.5q-37 -28 -58 -71.5t-21 -102.5q0 -78 35.5 -113t87.5 -35q55 0 90.5 22.5t62.5 55.5zM1039 1479q-12 -43 -39.5 -96.5t-66.5 -97.5
q-44 -49 -90 -78t-107 -29q-72 0 -125.5 17.5t-92.5 37.5q-34 18 -75.5 37t-78.5 19q-45 0 -75.5 -34t-71.5 -114l-72 30q14 40 40 90t65 99q34 43 86 76t104 33q66 0 118 -16.5t96 -38.5l75.5 -38.5t72.5 -15.5q80 0 109.5 40t50.5 103z" />
    <glyph glyph-name="aring" unicode="&#xe5;" horiz-adv-x="1220" 
d="M1201 21q-44 -19 -104 -35t-127 -16q-123 0 -181 36.5t-79 104.5h-6q-34 -34 -65.5 -58t-67.5 -41q-47 -22 -90.5 -32.5t-121.5 -10.5q-116 0 -198 68.5t-82 181.5q0 65 18 110.5t51 80.5q30 32 69.5 53t86.5 39q90 33 216 68.5t184 63.5v96q0 25 -4 66t-17 69
q-14 32 -44 54t-79 22q-44 0 -73.5 -12.5t-47.5 -25.5q3 -20 17 -61t14 -79q0 -17 -9 -42.5t-26 -40.5q-23 -20 -51.5 -31t-87.5 -11q-84 0 -127 40.5t-43 105.5q0 56 44.5 100.5t108.5 73.5q63 30 145 46.5t152 16.5q97 0 178 -11.5t146 -47.5q62 -35 98.5 -101.5
t36.5 -173.5q0 -113 -4.5 -268t-4.5 -204q0 -45 13.5 -71t41.5 -39q17 -8 53.5 -9.5t66.5 -1.5v-73zM704 542q-56 -19 -111 -43.5t-90 -51.5q-37 -28 -58 -71.5t-21 -102.5q0 -78 35.5 -113t87.5 -35q55 0 90.5 22.5t62.5 55.5zM870 1327q0 -104 -77 -168t-202 -64
q-128 0 -203.5 61.5t-75.5 170.5q0 106 80.5 168.5t198.5 62.5q120 0 199.5 -62t79.5 -169zM723 1326q0 71 -33.5 116.5t-98.5 45.5q-63 0 -97.5 -43.5t-34.5 -118.5q0 -72 34 -116.5t98 -44.5t98 43.5t34 117.5z" />
    <glyph glyph-name="ccedilla" unicode="&#xe7;" horiz-adv-x="1088" 
d="M545 -26q-108 9 -193.5 48t-143.5 97q-69 71 -103 168t-34 211q0 104 41.5 198t112.5 165q73 73 181.5 116.5t239.5 43.5q184 0 291 -69.5t107 -187.5q0 -72 -38 -116t-131 -44q-75 0 -125.5 36t-50.5 94q0 49 16 97t19 73q-11 18 -28 27.5t-53 9.5q-45 0 -82 -21
t-69 -74q-31 -50 -49.5 -134t-18.5 -202q0 -178 83.5 -287t199.5 -109q111 0 176.5 49.5t116.5 140.5l75 -52q-31 -61 -74 -111.5t-103 -89.5q-63 -41 -133 -61t-144 -20v-66q110 0 179 -37.5t69 -118.5q0 -57 -29 -96t-83 -59q-56 -21 -135.5 -29t-197.5 -8v78q50 0 98 1
t78 7q35 7 54 22.5t19 49.5q0 40 -38 52t-100 12v196z" />
    <glyph glyph-name="eacute" unicode="&#xe9;" horiz-adv-x="1171" 
d="M1133 239q-35 -57 -84.5 -107.5t-112.5 -86.5q-67 -38 -135.5 -57.5t-157.5 -19.5q-148 0 -255.5 42t-177.5 113t-104.5 167.5t-34.5 209.5q0 102 37.5 195.5t106.5 166.5q68 71 171.5 115t231.5 44q140 0 230 -34t149 -94q57 -57 83 -134.5t26 -162.5v-65h-676
q0 -205 79 -312t251 -107q94 0 169 51.5t128 130.5zM751 619q0 60 -6 123t-21 103q-17 47 -46.5 71t-74.5 24q-77 0 -123 -78t-50 -247zM884 1460q0 -45 -20.5 -72.5t-65.5 -56.5q-49 -32 -155 -90.5t-240 -139.5l-42 38q88 117 136 186.5l83 118.5q43 61 82 82.5t97 21.5
q48 0 86.5 -26t38.5 -62z" />
    <glyph glyph-name="egrave" unicode="&#xe8;" horiz-adv-x="1171" 
d="M1133 239q-35 -57 -84.5 -107.5t-112.5 -86.5q-67 -38 -135.5 -57.5t-157.5 -19.5q-148 0 -255.5 42t-177.5 113t-104.5 167.5t-34.5 209.5q0 102 37.5 195.5t106.5 166.5q68 71 171.5 115t231.5 44q140 0 230 -34t149 -94q57 -57 83 -134.5t26 -162.5v-65h-676
q0 -205 79 -312t251 -107q94 0 169 51.5t128 130.5zM751 619q0 60 -6 123t-21 103q-17 47 -46.5 71t-74.5 24q-77 0 -123 -78t-50 -247zM825 1139l-42 -38q-166 100 -250.5 144.5t-144.5 85.5q-47 32 -66.5 56.5t-19.5 72.5q0 36 38.5 62t86.5 26q61 0 97 -18.5t82 -85.5
l89.5 -127.5z" />
    <glyph glyph-name="ecircumflex" unicode="&#xea;" horiz-adv-x="1171" 
d="M1133 239q-35 -57 -84.5 -107.5t-112.5 -86.5q-67 -38 -135.5 -57.5t-157.5 -19.5q-148 0 -255.5 42t-177.5 113t-104.5 167.5t-34.5 209.5q0 102 37.5 195.5t106.5 166.5q68 71 171.5 115t231.5 44q140 0 230 -34t149 -94q57 -57 83 -134.5t26 -162.5v-65h-676
q0 -205 79 -312t251 -107q94 0 169 51.5t128 130.5zM751 619q0 60 -6 123t-21 103q-17 47 -46.5 71t-74.5 24q-77 0 -123 -78t-50 -247zM967 1132l-54 -29l-320 254l-316 -254l-51 29l139 224t92 131q23 31 54.5 46t85.5 15q55 0 82 -14t51 -43q47 -57 100.5 -141z" />
    <glyph glyph-name="edieresis" unicode="&#xeb;" horiz-adv-x="1171" 
d="M1133 239q-35 -57 -84.5 -107.5t-112.5 -86.5q-67 -38 -135.5 -57.5t-157.5 -19.5q-148 0 -255.5 42t-177.5 113t-104.5 167.5t-34.5 209.5q0 102 37.5 195.5t106.5 166.5q68 71 171.5 115t231.5 44q140 0 230 -34t149 -94q57 -57 83 -134.5t26 -162.5v-65h-676
q0 -205 79 -312t251 -107q94 0 169 51.5t128 130.5zM751 619q0 60 -6 123t-21 103q-17 47 -46.5 71t-74.5 24q-77 0 -123 -78t-50 -247zM1003 1349q0 -67 -47.5 -117.5t-111.5 -50.5q-65 0 -112.5 50t-47.5 118q0 67 47 117.5t113 50.5q64 0 111.5 -50.5t47.5 -117.5z
M508 1349q0 -67 -48 -117.5t-112 -50.5q-65 0 -112 50t-47 118q0 67 46.5 117.5t112.5 50.5q64 0 112 -50.5t48 -117.5z" />
    <glyph glyph-name="iacute" unicode="&#xed;" horiz-adv-x="724" 
d="M690 0h-632v73q26 2 51 5t43 10q32 12 45 34.5t13 59.5v582q0 35 -16 61.5t-40 42.5q-18 12 -54.5 23t-66.5 14v73l490 26l15 -15v-794q0 -35 15 -59.5t43 -36.5q20 -9 44 -16t50 -10v-73zM633 1460q0 -45 -20.5 -72.5t-65.5 -56.5q-49 -32 -155 -90.5t-240 -139.5
l-42 38q88 117 136 186.5l83 118.5q43 61 82 82.5t97 21.5q48 0 86.5 -26t38.5 -62z" />
    <glyph glyph-name="igrave" unicode="&#xec;" horiz-adv-x="724" 
d="M690 0h-632v73q26 2 51 5t43 10q32 12 45 34.5t13 59.5v582q0 35 -16 61.5t-40 42.5q-18 12 -54.5 23t-66.5 14v73l490 26l15 -15v-794q0 -35 15 -59.5t43 -36.5q20 -9 44 -16t50 -10v-73zM581 1139l-42 -38q-166 100 -250.5 144.5t-144.5 85.5q-47 32 -66.5 56.5
t-19.5 72.5q0 36 38.5 62t86.5 26q61 0 97 -18.5t82 -85.5l89.5 -127.5z" />
    <glyph glyph-name="icircumflex" unicode="&#xee;" horiz-adv-x="724" 
d="M690 0h-632v73q26 2 51 5t43 10q32 12 45 34.5t13 59.5v582q0 35 -16 61.5t-40 42.5q-18 12 -54.5 23t-66.5 14v73l490 26l15 -15v-794q0 -35 15 -59.5t43 -36.5q20 -9 44 -16t50 -10v-73zM683 1132l-54 -29l-300 254l-296 -254l-51 29l126 219t85 136q22 33 53 47t87 14
q57 0 85 -14t48 -43q47 -65 94.5 -147.5z" />
    <glyph glyph-name="idieresis" unicode="&#xef;" horiz-adv-x="724" 
d="M690 0h-632v73q26 2 51 5t43 10q32 12 45 34.5t13 59.5v582q0 35 -16 61.5t-40 42.5q-18 12 -54.5 23t-66.5 14v73l490 26l15 -15v-794q0 -35 15 -59.5t43 -36.5q20 -9 44 -16t50 -10v-73zM719 1349q0 -67 -47.5 -117.5t-111.5 -50.5q-65 0 -112.5 50t-47.5 118
q0 67 47 117.5t113 50.5q64 0 111.5 -50.5t47.5 -117.5zM260 1349q0 -67 -48 -117.5t-112 -50.5q-65 0 -112 50t-47 118q0 67 46.5 117.5t112.5 50.5q64 0 112 -50.5t48 -117.5z" />
    <glyph glyph-name="ntilde" unicode="&#xf1;" horiz-adv-x="1413" 
d="M1378 0h-602v73l46 5t41 10q21 11 30 32t9 62v468q0 102 -37.5 153.5t-110.5 51.5q-40 0 -74.5 -12t-67.5 -35q-29 -20 -46.5 -41t-29.5 -37v-537q0 -35 10 -58.5t33 -35.5q16 -9 40 -16t47 -10v-73h-608v73q25 2 50.5 5.5t43.5 9.5q32 11 44 34t12 60v582q0 31 -16 61
t-42 49q-18 12 -45.5 20t-60.5 11v73l477 26l15 -15v-145h4l68 60t74 57q37 24 97 41t128 17q163 0 244.5 -92.5t81.5 -245.5v-490q0 -37 11 -59t41 -35q16 -7 39.5 -14t53.5 -10v-73zM1151 1479q-12 -43 -39.5 -96.5t-66.5 -97.5q-44 -49 -90 -78t-107 -29
q-72 0 -125.5 17.5t-92.5 37.5q-34 18 -75.5 37t-78.5 19q-45 0 -75.5 -34t-71.5 -114l-72 30q14 40 40 90t65 99q34 43 86 76t104 33q66 0 118 -16.5t96 -38.5l75.5 -38.5t72.5 -15.5q80 0 109.5 40t50.5 103z" />
    <glyph glyph-name="oacute" unicode="&#xf3;" horiz-adv-x="1302" 
d="M1079 874q74 -69 113 -165t39 -208q0 -111 -38.5 -209.5t-112.5 -168.5q-79 -75 -188.5 -115t-250.5 -40q-122 0 -224.5 35t-181.5 105q-76 67 -120 165.5t-44 220.5q0 120 38.5 213.5t115.5 166.5q74 70 182.5 108.5t242.5 38.5q140 0 246.5 -38.5t182.5 -108.5z
M823 181q22 56 32.5 136t10.5 186q0 70 -10 160t-30 142q-24 63 -66.5 99t-107.5 36q-71 0 -113.5 -39t-65.5 -101q-21 -57 -29 -133.5t-8 -159.5q0 -109 7 -180.5t34 -143.5q23 -62 66 -98t109 -36q60 0 103 33.5t68 98.5zM943 1460q0 -45 -20.5 -72.5t-65.5 -56.5
q-49 -32 -155 -90.5t-240 -139.5l-42 38q88 117 136 186.5l83 118.5q43 61 82 82.5t97 21.5q48 0 86.5 -26t38.5 -62z" />
    <glyph glyph-name="ograve" unicode="&#xf2;" horiz-adv-x="1302" 
d="M1079 874q74 -69 113 -165t39 -208q0 -111 -38.5 -209.5t-112.5 -168.5q-79 -75 -188.5 -115t-250.5 -40q-122 0 -224.5 35t-181.5 105q-76 67 -120 165.5t-44 220.5q0 120 38.5 213.5t115.5 166.5q74 70 182.5 108.5t242.5 38.5q140 0 246.5 -38.5t182.5 -108.5z
M823 181q22 56 32.5 136t10.5 186q0 70 -10 160t-30 142q-24 63 -66.5 99t-107.5 36q-71 0 -113.5 -39t-65.5 -101q-21 -57 -29 -133.5t-8 -159.5q0 -109 7 -180.5t34 -143.5q23 -62 66 -98t109 -36q60 0 103 33.5t68 98.5zM880 1139l-42 -38q-166 100 -250.5 144.5
t-144.5 85.5q-47 32 -66.5 56.5t-19.5 72.5q0 36 38.5 62t86.5 26q61 0 97 -18.5t82 -85.5l89.5 -127.5z" />
    <glyph glyph-name="ocircumflex" unicode="&#xf4;" horiz-adv-x="1302" 
d="M1079 874q74 -69 113 -165t39 -208q0 -111 -38.5 -209.5t-112.5 -168.5q-79 -75 -188.5 -115t-250.5 -40q-122 0 -224.5 35t-181.5 105q-76 67 -120 165.5t-44 220.5q0 120 38.5 213.5t115.5 166.5q74 70 182.5 108.5t242.5 38.5q140 0 246.5 -38.5t182.5 -108.5z
M823 181q22 56 32.5 136t10.5 186q0 70 -10 160t-30 142q-24 63 -66.5 99t-107.5 36q-71 0 -113.5 -39t-65.5 -101q-21 -57 -29 -133.5t-8 -159.5q0 -109 7 -180.5t34 -143.5q23 -62 66 -98t109 -36q60 0 103 33.5t68 98.5zM1022 1132l-54 -29l-320 254l-316 -254l-51 29
l139 224t92 131q23 31 54.5 46t85.5 15q55 0 82 -14t51 -43q47 -57 100.5 -141z" />
    <glyph glyph-name="odieresis" unicode="&#xf6;" horiz-adv-x="1302" 
d="M1079 874q74 -69 113 -165t39 -208q0 -111 -38.5 -209.5t-112.5 -168.5q-79 -75 -188.5 -115t-250.5 -40q-122 0 -224.5 35t-181.5 105q-76 67 -120 165.5t-44 220.5q0 120 38.5 213.5t115.5 166.5q74 70 182.5 108.5t242.5 38.5q140 0 246.5 -38.5t182.5 -108.5z
M823 181q22 56 32.5 136t10.5 186q0 70 -10 160t-30 142q-24 63 -66.5 99t-107.5 36q-71 0 -113.5 -39t-65.5 -101q-21 -57 -29 -133.5t-8 -159.5q0 -109 7 -180.5t34 -143.5q23 -62 66 -98t109 -36q60 0 103 33.5t68 98.5zM1058 1349q0 -67 -47.5 -117.5t-111.5 -50.5
q-65 0 -112.5 50t-47.5 118q0 67 47 117.5t113 50.5q64 0 111.5 -50.5t47.5 -117.5zM563 1349q0 -67 -48 -117.5t-112 -50.5q-65 0 -112 50t-47 118q0 67 46.5 117.5t112.5 50.5q64 0 112 -50.5t48 -117.5z" />
    <glyph glyph-name="otilde" unicode="&#xf5;" horiz-adv-x="1302" 
d="M1079 874q74 -69 113 -165t39 -208q0 -111 -38.5 -209.5t-112.5 -168.5q-79 -75 -188.5 -115t-250.5 -40q-122 0 -224.5 35t-181.5 105q-76 67 -120 165.5t-44 220.5q0 120 38.5 213.5t115.5 166.5q74 70 182.5 108.5t242.5 38.5q140 0 246.5 -38.5t182.5 -108.5z
M823 181q22 56 32.5 136t10.5 186q0 70 -10 160t-30 142q-24 63 -66.5 99t-107.5 36q-71 0 -113.5 -39t-65.5 -101q-21 -57 -29 -133.5t-8 -159.5q0 -109 7 -180.5t34 -143.5q23 -62 66 -98t109 -36q60 0 103 33.5t68 98.5zM1098 1479q-12 -43 -39.5 -96.5t-66.5 -97.5
q-44 -49 -90 -78t-107 -29q-72 0 -125.5 17.5t-92.5 37.5q-34 18 -75.5 37t-78.5 19q-45 0 -75.5 -34t-71.5 -114l-72 30q14 40 40 90t65 99q34 43 86 76t104 33q66 0 118 -16.5t96 -38.5l75.5 -38.5t72.5 -15.5q80 0 109.5 40t50.5 103z" />
    <glyph glyph-name="uacute" unicode="&#xfa;" horiz-adv-x="1386" 
d="M1363 21l-477 -29l-15 14v131h-6l-66.5 -60.5t-77.5 -53.5q-51 -27 -96.5 -40t-132.5 -13q-151 0 -231.5 91t-80.5 257v450q0 39 -15 63.5t-40 43.5q-20 15 -52 21.5t-58 8.5v73l485 26l11 -15v-665q0 -103 39.5 -152t108.5 -49q71 0 127.5 37t82.5 79v539q0 34 -13 61
t-38 44q-18 12 -51.5 16t-68.5 6v73l485 26l15 -15v-772q0 -35 14 -59.5t41 -41.5q19 -12 49.5 -16.5t60.5 -5.5v-73zM974 1460q0 -45 -20.5 -72.5t-65.5 -56.5q-49 -32 -155 -90.5t-240 -139.5l-42 38q88 117 136 186.5l83 118.5q43 61 82 82.5t97 21.5q48 0 86.5 -26
t38.5 -62z" />
    <glyph glyph-name="ugrave" unicode="&#xf9;" horiz-adv-x="1386" 
d="M1363 21l-477 -29l-15 14v131h-6l-66.5 -60.5t-77.5 -53.5q-51 -27 -96.5 -40t-132.5 -13q-151 0 -231.5 91t-80.5 257v450q0 39 -15 63.5t-40 43.5q-20 15 -52 21.5t-58 8.5v73l485 26l11 -15v-665q0 -103 39.5 -152t108.5 -49q71 0 127.5 37t82.5 79v539q0 34 -13 61
t-38 44q-18 12 -51.5 16t-68.5 6v73l485 26l15 -15v-772q0 -35 14 -59.5t41 -41.5q19 -12 49.5 -16.5t60.5 -5.5v-73zM906 1139l-42 -38q-166 100 -250.5 144.5t-144.5 85.5q-47 32 -66.5 56.5t-19.5 72.5q0 36 38.5 62t86.5 26q61 0 97 -18.5t82 -85.5l89.5 -127.5z" />
    <glyph glyph-name="ucircumflex" unicode="&#xfb;" horiz-adv-x="1386" 
d="M1363 21l-477 -29l-15 14v131h-6l-66.5 -60.5t-77.5 -53.5q-51 -27 -96.5 -40t-132.5 -13q-151 0 -231.5 91t-80.5 257v450q0 39 -15 63.5t-40 43.5q-20 15 -52 21.5t-58 8.5v73l485 26l11 -15v-665q0 -103 39.5 -152t108.5 -49q71 0 127.5 37t82.5 79v539q0 34 -13 61
t-38 44q-18 12 -51.5 16t-68.5 6v73l485 26l15 -15v-772q0 -35 14 -59.5t41 -41.5q19 -12 49.5 -16.5t60.5 -5.5v-73zM1048 1132l-54 -29l-320 254l-316 -254l-51 29l139 224t92 131q23 31 54.5 46t85.5 15q55 0 82 -14t51 -43q47 -57 100.5 -141z" />
    <glyph glyph-name="udieresis" unicode="&#xfc;" horiz-adv-x="1386" 
d="M1363 21l-477 -29l-15 14v131h-6l-66.5 -60.5t-77.5 -53.5q-51 -27 -96.5 -40t-132.5 -13q-151 0 -231.5 91t-80.5 257v450q0 39 -15 63.5t-40 43.5q-20 15 -52 21.5t-58 8.5v73l485 26l11 -15v-665q0 -103 39.5 -152t108.5 -49q71 0 127.5 37t82.5 79v539q0 34 -13 61
t-38 44q-18 12 -51.5 16t-68.5 6v73l485 26l15 -15v-772q0 -35 14 -59.5t41 -41.5q19 -12 49.5 -16.5t60.5 -5.5v-73zM1084 1349q0 -67 -47.5 -117.5t-111.5 -50.5q-65 0 -112.5 50t-47.5 118q0 67 47 117.5t113 50.5q64 0 111.5 -50.5t47.5 -117.5zM589 1349
q0 -67 -48 -117.5t-112 -50.5q-65 0 -112 50t-47 118q0 67 46.5 117.5t112.5 50.5q64 0 112 -50.5t48 -117.5z" />
    <glyph glyph-name="dagger" unicode="&#x2020;" horiz-adv-x="987" 
d="M889 1053q0 -41 -25.5 -65t-64.5 -24q-27 0 -95.5 20.5t-173.5 33.5q15 -242 34.5 -477.5t19.5 -261.5q0 -39 -22 -64.5t-67 -25.5q-41 0 -65 25.5t-24 64.5q0 26 19.5 261.5t30.5 477.5q-93 -11 -169 -32.5t-100 -21.5q-39 0 -64.5 24t-25.5 65q0 45 25.5 67t64.5 22
q17 0 94 -22t174 -36q-13 106 -32 179.5t-19 101.5q0 39 25 64.5t66 25.5q45 0 68 -25.5t23 -64.5q0 -27 -21 -101.5t-34 -179.5q97 14 174 36t94 22q39 0 64.5 -22t25.5 -67z" />
    <glyph glyph-name="degree" unicode="&#xb0;" horiz-adv-x="860" 
d="M773 1129q0 -140 -95.5 -235.5t-248.5 -95.5t-248 96.5t-95 234.5q0 143 97.5 237t245.5 94q152 0 248 -95.5t96 -235.5zM593 1121q0 122 -45 185t-120 63q-77 0 -119.5 -65.5t-42.5 -171.5q0 -115 43 -179.5t123 -64.5q68 0 114.5 61.5t46.5 171.5z" />
    <glyph glyph-name="cent" unicode="&#xa2;" horiz-adv-x="1240" 
d="M1176 262q-57 -114 -156 -187.5t-224 -93.5v-280h-99v278q-276 4 -421.5 142t-145.5 377q0 104 41 195t111 161q72 72 177.5 117t237.5 50v255h99v-256q84 -8 145.5 -32.5t98.5 -55.5q38 -31 56.5 -65t18.5 -64q0 -67 -38.5 -109t-125.5 -42q-48 0 -92 27.5t-63 98.5
v-657h1q110 0 181 50t121 143zM697 138v800q-42 -6 -80 -33.5t-67 -77.5q-28 -48 -45.5 -130t-17.5 -187q0 -142 60 -240.5t150 -131.5z" />
    <glyph glyph-name="sterling" unicode="&#xa3;" horiz-adv-x="1413" 
d="M1295 0h-1171v188q93 31 140 71.5t66 94.5q20 54 21.5 118t1.5 154h-194v116h194q-3 41 -10.5 117.5t-7.5 123.5q0 207 146 342t384 135q168 0 294.5 -81.5t126.5 -202.5q0 -72 -43 -119t-121 -47q-79 0 -130 41t-51 112q0 53 19 107l29 84q-30 7 -60 10.5t-59 3.5
q-21 0 -48.5 -7t-62.5 -40q-30 -28 -51.5 -86t-21.5 -148q0 -63 5 -166t5 -179h389v-116h-389q-23 -141 -72.5 -212t-163.5 -133v-11h835v-270z" />
    <glyph glyph-name="section" unicode="&#xa7;" horiz-adv-x="1154" 
d="M1033 644q0 -106 -70.5 -181t-188.5 -114q102 -42 154 -112t52 -154q0 -135 -125.5 -225t-343.5 -90q-104 0 -173 19.5t-111 49.5t-59.5 65.5t-17.5 66.5q0 55 32.5 90.5t94.5 35.5q44 0 76 -23t54 -60q21 -35 35.5 -74.5l30.5 -84.5q5 -1 14 -2t14 -1q94 0 155.5 36
t61.5 116q0 48 -20 81t-59 59q-38 27 -101 53.5l-125 51.5q-151 61 -221.5 138.5t-70.5 192.5q0 98 57 170t202 125q-112 46 -163 116.5t-51 159.5q0 131 130 218t337 87q99 0 170 -19t114 -50q41 -29 59 -64.5t18 -67.5q0 -53 -30.5 -89.5t-96.5 -36.5q-46 0 -76.5 23
t-53.5 60q-19 30 -36.5 78.5l-29.5 80.5q-7 2 -15 2.5t-13 0.5q-94 0 -154.5 -37.5t-60.5 -114.5q0 -50 20.5 -82t62.5 -59t103 -52l127 -52q150 -60 221 -136t71 -195zM778 577q0 52 -23 88.5t-66 65.5q-39 27 -108.5 57l-119.5 52q-37 -32 -61 -88.5t-24 -106.5
q0 -53 25 -90.5t67 -65.5q46 -30 105.5 -55.5l119.5 -51.5q49 43 67 92t18 103z" />
    <glyph glyph-name="bullet" unicode="&#x2022;" horiz-adv-x="896" 
d="M767 609q0 -132 -93.5 -225.5t-225.5 -93.5t-225.5 93.5t-93.5 225.5t93.5 225.5t225.5 93.5t225.5 -93.5t93.5 -225.5z" />
    <glyph glyph-name="paragraph" unicode="&#xb6;" horiz-adv-x="1124" 
d="M1075 1336h-111v-1552h-123v1552h-165v-1552h-123v844q-199 0 -333 98.5t-134 294.5q0 165 112.5 281.5t309.5 116.5h567v-83z" />
    <glyph glyph-name="germandbls" unicode="&#xdf;" horiz-adv-x="1347" 
d="M1151 804q56 -53 90.5 -126.5t34.5 -179.5q0 -218 -130 -363.5t-349 -145.5q-61 0 -115.5 5.5t-83.5 11.5v86q16 -3 33.5 -5t30.5 -2q121 0 188 112t67 307q0 174 -63 276t-188 102h-28v93h37q35 0 73 15.5t65 46.5q34 38 50 88.5t16 114.5q0 113 -43 170t-118 57
q-116 0 -158.5 -94.5t-42.5 -275.5v-1097h-480v73q30 3 51 4.5t43 10.5q28 11 41.5 33t13.5 61v835q0 167 43.5 261.5t118.5 151.5q82 65 182 92.5t204 27.5q86 0 167.5 -18.5t146.5 -56.5q64 -38 103.5 -97.5t39.5 -140.5q0 -66 -26 -118.5t-65 -87.5q-43 -39 -93 -62
t-100 -32v-9q57 -11 122.5 -40.5t121.5 -83.5z" />
    <glyph glyph-name="registered" unicode="&#xae;" horiz-adv-x="1929" 
d="M1849 602q0 -366 -259 -624.5t-625 -258.5t-625 258.5t-259 624.5t259 624.5t625 258.5t625 -258.5t259 -624.5zM1751 602q0 330 -228 563t-558 233t-558 -233t-228 -563t228 -563t558 -233t558 233t228 563zM1574 145h-362q-96 147 -157.5 230.5t-146.5 185.5h-34v-269
q0 -25 7.5 -40.5t35.5 -27.5q12 -5 35.5 -12.5t41.5 -8.5v-58h-482v58q19 2 45.5 6.5t41.5 10.5q26 11 34 27.5t8 40.5v636q0 25 -6 39.5t-36 27.5q-19 8 -45.5 15.5t-41.5 10.5v58h515q174 0 265 -54.5t91 -165.5q0 -104 -60.5 -162t-164.5 -88l92 -118.5l135 -170.5
q20 -26 55 -57.5t62 -41.5q12 -4 37 -9t35 -5v-58zM1124 836q0 93 -52 131t-148 38h-50v-376h48q99 0 150.5 50t51.5 157z" />
    <glyph glyph-name="copyright" unicode="&#xa9;" horiz-adv-x="1929" 
d="M1849 602q0 -366 -259 -624.5t-625 -258.5t-625 258.5t-259 624.5t259 624.5t625 258.5t625 -258.5t259 -624.5zM1751 602q0 330 -228 563t-558 233t-558 -233t-228 -563t228 -563t558 -233t558 233t228 563zM1393 381q-24 -56 -61 -105t-91 -85q-56 -37 -117 -56.5
t-147 -19.5q-101 0 -193.5 32.5t-160.5 93.5q-68 62 -107 149.5t-39 201.5q0 222 148.5 363t373.5 141q79 0 141.5 -20t104.5 -42l35 51h65l4 -370h-69q-51 156 -112 229t-160 73q-118 0 -181 -107.5t-63 -293.5q0 -187 68 -289t199 -102q100 0 170.5 48t125.5 144z" />
    <glyph glyph-name="trademark" unicode="&#x2122;" horiz-adv-x="1940" 
d="M1876 733h-376v56q22 1 44 3.5t31 8.5q16 9 22 19t6 26v440h-22l-217 -531h-62l-210 541h-22v-357q0 -53 6.5 -80t22.5 -42q8 -7 40 -16.5t58 -11.5v-56h-325v56q16 2 47.5 7.5t47.5 16.5q17 13 23 36t6 86v335q0 24 -7.5 40t-21.5 28q-15 12 -37.5 17.5t-51.5 7.5v56
h338l172 -451l140 366q8 21 15 45.5t10 39.5h323v-56q-22 -1 -44.5 -4t-36.5 -9q-12 -5 -17.5 -16t-5.5 -25v-463q0 -13 4 -25t19 -18q10 -4 36 -8.5t45 -5.5v-56zM776 1216h-48q-10 33 -40.5 82.5t-59.5 55.5q-10 2 -28.5 3t-39.5 1h-39v-508q0 -13 4.5 -26t20.5 -19
q9 -3 33.5 -9.5t43.5 -6.5v-56h-373v56q21 1 45 5t32 7q16 6 20.5 18.5t4.5 24.5v514h-29q-15 0 -39 -1t-39 -3q-29 -5 -59.5 -55t-40.5 -83h-48v203h679v-203z" />
    <glyph glyph-name="acute" unicode="&#xb4;" 
d="M804 1460q0 -45 -20.5 -72.5t-65.5 -56.5q-49 -32 -155 -90.5t-240 -139.5l-42 38q88 117 136 186.5l83 118.5q43 61 82 82.5t97 21.5q48 0 86.5 -26t38.5 -62z" />
    <glyph glyph-name="dieresis" unicode="&#xa8;" 
d="M919 1349q0 -67 -47.5 -117.5t-111.5 -50.5q-65 0 -112.5 50t-47.5 118q0 67 47 117.5t113 50.5q64 0 111.5 -50.5t47.5 -117.5zM424 1349q0 -67 -48 -117.5t-112 -50.5q-65 0 -112 50t-47 118q0 67 46.5 117.5t112.5 50.5q64 0 112 -50.5t48 -117.5z" />
    <glyph glyph-name="notequal" unicode="&#x2260;" horiz-adv-x="1440" 
d="M1255 286h-538l-87 -286h-169l87 286h-363v163h412l77 251h-489v163h538l90 296h169l-90 -296h363v-163h-413l-77 -251h490v-163z" />
    <glyph glyph-name="AE" unicode="&#xc6;" horiz-adv-x="2191" 
d="M2041 1057h-76q-29 81 -100 164t-141 98q-30 6 -83.5 8t-88.5 2h-186v-548h126q55 0 100 13t82 50q23 23 46.5 81t30.5 101h76v-592h-76q-6 42 -30.5 105.5t-46.5 87.5q-33 36 -78 49.5t-104 13.5h-126v-409q0 -130 39 -160t183 -30q141 0 204 13t89 38q48 49 108 149.5
t79 150.5h73l-27 -442h-1310v78q28 2 76 8t68 14q34 14 49 38t15 65v388h-496l-120 -212l-55 -99q-37 -69 -42 -92.5t-5 -29.5q0 -21 21.5 -36t50.5 -23q32 -9 64 -14t58 -7v-78h-582v78q25 2 69 11.5t66 22.5q45 24 78.5 59.5t60.5 82.5l300.5 511l321.5 551
q-29 9 -85.5 15.5t-98.5 9.5v78h1423v-362zM1012 688v641h-77l-364 -641h441z" />
    <glyph glyph-name="Oslash" unicode="&#xd8;" horiz-adv-x="1679" 
d="M1608 719q0 -155 -52 -295t-150 -241q-103 -105 -242 -163.5t-331 -58.5q-135 0 -259 39.5t-224 115.5l-197 -211l-74 68l197 207q-96 96 -150.5 228t-54.5 286q0 174 59.5 315.5t163.5 242.5q103 99 244.5 152.5t301.5 53.5q140 0 264.5 -39.5t225.5 -117.5l195 208
l74 -68l-195 -205q94 -94 149 -226.5t55 -290.5zM1156 1123q-43 109 -119 174.5t-197 65.5q-185 0 -281 -171.5t-96 -487.5q0 -92 5.5 -159.5t22.5 -142.5zM1129 243q47 92 67 207.5t20 261.5q0 76 -6 155t-21 147l-665 -720q45 -115 123 -176t193 -61q99 0 172.5 50
t116.5 136z" />
    <glyph glyph-name="infinity" unicode="&#x221e;" horiz-adv-x="1636" 
d="M1561 576q0 -208 -116.5 -350t-280.5 -142q-116 0 -215.5 68t-166.5 205q-56 -136 -135.5 -204t-186.5 -68q-169 0 -277 135t-108 355q0 209 117 350.5t280 141.5q121 0 216 -66.5t166 -206.5q52 136 135 204t189 68q170 0 276.5 -135.5t106.5 -354.5zM1442 575
q0 120 -73 188.5t-178 68.5q-98 0 -171.5 -31.5t-124.5 -82.5q78 -199 150.5 -296t176.5 -97q101 0 160.5 70t59.5 180zM742 433q-87 213 -158 303t-170 90q-101 0 -160.5 -70.5t-59.5 -176.5q0 -122 74.5 -191t178.5 -69q97 0 172.5 31.5t122.5 82.5z" />
    <glyph glyph-name="plusminus" unicode="&#xb1;" horiz-adv-x="1440" 
d="M1275 0h-1111v163h473v395h-473v163h473v473h165v-473h473v-163h-473v-395h473v-163z" />
    <glyph glyph-name="lessequal" unicode="&#x2264;" horiz-adv-x="1440" 
d="M1239 274l-1030 420v143l1030 420v-187l-791 -305l791 -304v-187zM1239 0h-1030v163h1030v-163z" />
    <glyph glyph-name="greaterequal" unicode="&#x2265;" horiz-adv-x="1440" 
d="M1231 694l-1030 -420v187l791 304l-791 305v187l1030 -420v-143zM1231 0h-1030v163h1030v-163z" />
    <glyph glyph-name="yen" unicode="&#xa5;" horiz-adv-x="1500" 
d="M1522 1341q-33 -4 -57.5 -12t-55.5 -26q-43 -24 -76.5 -61.5t-65.5 -83.5l-164.5 -252l-183.5 -291v-32h433v-116h-431v-250q0 -36 13.5 -63t51.5 -44q17 -7 72 -18.5t81 -13.5v-78h-779v78q28 2 80.5 8t73.5 14q37 16 50.5 42.5t13.5 64.5v260h-431v116h433v20
l-170.5 292l-161.5 270q-35 56 -68 89.5t-71 53.5q-30 15 -63.5 23t-61.5 10v78h783v-78q-99 -2 -139.5 -14.5t-40.5 -35.5q0 -12 7.5 -32.5t43.5 -88.5q28 -54 91.5 -164.5l150.5 -256.5q208 330 255 410.5t47 106.5q0 35 -38 52.5t-128 22.5v78h506v-78z" />
    <glyph glyph-name="mu1" unicode="&#xb5;" horiz-adv-x="1368" 
d="M1345 21q-44 -19 -104 -35t-127 -16q-112 0 -174.5 42t-79.5 124h-6q-51 -86 -123.5 -126t-142.5 -40q-69 0 -118 14t-84 46h-11v-28q0 -41 31.5 -146.5t31.5 -147.5q0 -72 -53.5 -112t-119.5 -40q-68 0 -113.5 45.5t-45.5 114.5q0 61 17.5 127t25.5 113
q10 56 15.5 102.5t5.5 87.5v846h328v-661q0 -107 40.5 -154t116.5 -47q64 0 114.5 30.5t81.5 78.5v753h329v-777q0 -41 13 -67t43 -41q20 -9 54 -11t55 -2v-73z" />
    <glyph glyph-name="partialdiff" unicode="&#x2202;" horiz-adv-x="1325" 
d="M1096 1276q67 -81 100.5 -188.5t33.5 -223.5q0 -136 -32.5 -282t-115.5 -286q-97 -162 -230 -246.5t-298 -84.5q-213 0 -339.5 119t-126.5 320q0 107 39 202t105 166q64 67 147.5 105t168.5 38q135 0 217 -47.5t125 -127.5q2 28 4 65t2 73q0 93 -13.5 185.5t-48.5 162.5
q-35 69 -92.5 109t-143.5 40q-11 0 -27.5 -1.5t-36.5 -5.5q16 -46 25 -87.5t9 -100.5q0 -71 -47.5 -111.5t-126.5 -40.5q-75 0 -119 47t-44 118q0 116 126 191.5t308 75.5q148 0 255.5 -50.5t175.5 -133.5zM777 239q35 84 55.5 171t28.5 159q-8 102 -57 162t-130 60
q-99 0 -175.5 -133.5t-76.5 -316.5q0 -65 6.5 -110t27.5 -91q18 -41 49.5 -65.5t76.5 -24.5q60 0 110 53.5t85 135.5z" />
    <glyph glyph-name="summation" unicode="&#x2211;" horiz-adv-x="1494" 
d="M1459 142l-152 -556h-1283v93l696 786l-682 853v101h1264l44 -433h-81q-80 148 -136 221.5t-100 91.5q-31 15 -85.5 21.5t-130.5 6.5h-359l538 -666v-32l-665 -750h759q56 0 102.5 26.5t80.5 66.5q34 39 63 89t51 104z" />
    <glyph glyph-name="product" unicode="&#x220f;" horiz-adv-x="1910" 
d="M1831 -414h-767v78l73 6t66 12q37 15 51 39.5t14 62.5v1534h-626v-1523q0 -34 14.5 -61t49.5 -42q19 -8 65 -17t75 -11v-78h-767v78q25 1 73.5 6.5t70.5 13.5q36 13 50 39.5t14 62.5v1532h-208v101h1752v-101h-208v-1523q0 -36 13 -61t51 -42q24 -10 69.5 -18t74.5 -10
v-78z" />
    <glyph glyph-name="pi1" horiz-adv-x="1382" 
d="M1363 1049q-37 -91 -92 -201t-94 -123h-173q-9 -63 -17.5 -143t-8.5 -139q0 -121 25 -197t84 -76q51 0 81 35.5t37 122.5h77q-6 -181 -75 -268t-179 -87q-76 0 -129 29.5t-84 76.5q-31 45 -45 104.5t-14 113.5q0 127 14.5 224l31.5 204h-216q-7 -72 -22 -186t-32 -185
q-26 -113 -55 -189.5t-62 -119.5q-29 -38 -62 -55t-70 -17q-50 0 -81.5 29t-31.5 81q0 40 15.5 65.5t41.5 44.5q21 15 51 25.5t45 16.5q60 60 99.5 194.5t56.5 295.5q-101 0 -155 -18t-83 -47q-30 -29 -39.5 -72.5t-13.5 -80.5h-71q-10 28 -19.5 83.5t-9.5 85.5
q0 68 24.5 123.5t79.5 99.5q53 43 140.5 67.5t206.5 24.5h505q112 0 165.5 16t92.5 75z" />
    <glyph glyph-name="integral" unicode="&#x222b;" horiz-adv-x="1286" 
d="M1226 1476q37 -33 48.5 -70.5t11.5 -73.5q0 -61 -46 -107.5t-113 -46.5q-91 0 -136.5 71.5t-45.5 218.5q-5 2 -8.5 1.5t-7.5 -0.5q-62 0 -95.5 -101.5t-33.5 -289.5v-910q0 -134 -37 -263.5t-112 -205.5q-70 -71 -155.5 -107t-156.5 -36q-113 0 -182.5 20t-106.5 52
t-48.5 70t-11.5 74q0 56 44 105t116 49q93 0 137 -72t44 -218q5 -1 8.5 -1h7.5q59 0 94.5 95.5t35.5 301.5v905q0 151 35.5 269.5t112.5 198.5q70 72 156.5 107.5t155.5 35.5q114 0 183.5 -20.5t105.5 -51.5z" />
    <glyph glyph-name="ordfeminine" unicode="&#xaa;" horiz-adv-x="1130" 
d="M1055 649q-32 -14 -87 -28t-104 -14q-99 0 -148 28.5t-67 85.5h-5q-23 -22 -49 -43.5t-60 -36.5q-39 -17 -74.5 -25.5t-100.5 -8.5q-96 0 -163 55.5t-67 146.5q0 82 42.5 137t142.5 91q66 24 173.5 54t155.5 53v71q0 22 -3 53.5t-14 55.5q-11 25 -35 43t-66 18t-63.5 -8
t-32.5 -16q4 -21 14.5 -47.5t10.5 -65.5q0 -42 -36.5 -71.5t-109.5 -29.5q-62 0 -101.5 30t-39.5 88q0 45 35.5 80t91.5 61q54 25 121.5 38t123.5 13q81 0 148 -10t119 -38q52 -30 81.5 -81t29.5 -141q0 -96 -4 -214t-4 -161q0 -36 10.5 -56.5t35.5 -32.5q16 -6 45 -7t54 -1
v-66zM644 1063q-45 -16 -89.5 -34.5t-72.5 -38.5q-30 -22 -47 -56t-17 -82q0 -63 28.5 -87.5t70.5 -24.5q46 0 75 19t49 44z" />
    <glyph glyph-name="ordmasculine" unicode="&#xba;" horiz-adv-x="1130" 
d="M1040 1037q0 -188 -126.5 -309.5t-356.5 -121.5q-218 0 -343 121.5t-125 304.5q0 187 126 306t349 119q225 0 350.5 -119t125.5 -301zM702 786q20 52 27 112t7 141q0 60 -6 124.5t-25 111.5q-19 48 -52.5 76.5t-87.5 28.5q-57 0 -90.5 -30t-52.5 -79q-18 -48 -23.5 -110
t-5.5 -119q0 -86 5.5 -142.5t26.5 -111.5q18 -48 52 -76.5t88 -28.5q51 0 85 27.5t52 75.5z" />
    <glyph glyph-name="Ohm" unicode="&#x2126;" horiz-adv-x="1797" 
d="M1797 427l-133 -427h-678v98l107.5 171t81.5 155q35 84 51.5 165.5t16.5 211.5q0 79 -14.5 184t-50.5 182q-38 84 -108 138.5t-172 54.5t-171.5 -54.5t-108.5 -138.5q-35 -76 -49.5 -174.5t-14.5 -191.5q0 -127 17 -210t52 -167q32 -78 85.5 -163.5l102.5 -162.5v-98
h-678l-133 427l73 22q15 -30 40.5 -70t52.5 -68q29 -30 66 -50.5t81 -20.5h254v22l-177 151t-125 137q-53 71 -80.5 153.5t-27.5 189.5q0 112 52.5 213.5t148.5 180.5q95 78 233.5 124.5t306.5 46.5q175 0 313 -46t235 -127q96 -79 145 -180t49 -212q0 -108 -28 -190.5
t-81 -151.5t-122.5 -133t-178.5 -156v-22h254q43 0 81 20t66 51q31 33 53 67.5t40 70.5z" />
    <glyph glyph-name="ae" unicode="&#xe6;" horiz-adv-x="1756" 
d="M1718 239q-70 -120 -194.5 -195.5t-283.5 -75.5q-163 0 -278.5 50.5t-181.5 141.5h-6q-26 -30 -61.5 -64t-83.5 -62q-52 -30 -111.5 -47.5t-148.5 -17.5q-124 0 -207 68.5t-83 181.5q0 65 18 110.5t51 80.5q30 32 69.5 53t86.5 39q95 35 223 69.5t176 48.5v110
q0 25 -4 66t-17 69q-14 32 -43.5 54t-78.5 22q-44 0 -73.5 -12.5t-47.5 -25.5q3 -20 17 -61t14 -79q0 -17 -9 -42.5t-26 -40.5q-23 -20 -51.5 -31t-87.5 -11q-84 0 -127 40t-43 106q0 54 42 98t111 76q63 30 145 46.5t152 16.5q109 0 194.5 -22t153.5 -77q53 38 131.5 68.5
t159.5 30.5q130 0 222 -34.5t148 -93.5q56 -58 81 -135t25 -162v-65h-658q0 -204 77 -311.5t245 -107.5q92 0 163.5 53t123.5 130zM1341 619q0 52 -5.5 119t-17.5 104q-15 44 -43 71t-75 27q-79 0 -121 -79.5t-46 -245.5zM703 203v329q-60 -16 -111 -35.5t-89 -47.5
q-36 -27 -57.5 -70.5t-21.5 -102.5q0 -81 35.5 -116t87.5 -35q55 0 95 24t61 54z" />
    <glyph glyph-name="oslash" unicode="&#xf8;" horiz-adv-x="1302" 
d="M1259 1041l-179 -176q72 -69 111.5 -161t39.5 -203t-38.5 -209.5t-112.5 -168.5q-79 -75 -188.5 -115t-250.5 -40q-99 0 -189.5 26.5t-164.5 77.5l-186 -189l-66 61l185 184q-68 67 -108.5 160.5t-40.5 205.5q0 235 155 381t424 146q112 0 203 -27t160 -73l180 181z
M849 762q-25 93 -74 138t-123 45q-71 0 -115.5 -39t-69.5 -102q-24 -62 -32 -142t-8 -155q0 -53 1.5 -90.5t4.5 -84.5zM828 176q27 67 37 144.5t10 182.5q0 32 -1 81t-5 79l-417 -432q24 -86 70 -136.5t130 -50.5q62 0 106.5 34.5t69.5 97.5z" />
    <glyph glyph-name="questiondown" unicode="&#xbf;" horiz-adv-x="1123" 
d="M853 1267q0 -76 -57.5 -131.5t-135.5 -55.5q-77 0 -134.5 55.5t-57.5 131.5t57.5 130.5t134.5 54.5q78 0 135.5 -54.5t57.5 -130.5zM1045 246q0 -115 -131 -195t-316 -80q-220 0 -355 115t-135 300q0 194 131.5 320t374.5 149l6 136h89v-389q-140 -13 -224.5 -90
t-84.5 -218q0 -110 58 -175t154 -65q39 0 75 9.5t60 25.5q-11 33 -24 80t-13 96q0 70 45.5 108.5t126.5 38.5q76 0 119.5 -48t43.5 -118z" />
    <glyph glyph-name="exclamdown" unicode="&#xa1;" horiz-adv-x="771" 
d="M578 1262q0 -76 -57.5 -131.5t-134.5 -55.5q-78 0 -135.5 55.5t-57.5 131.5t57.5 130.5t135.5 54.5q77 0 134.5 -54.5t57.5 -130.5zM529 424l38.5 -164t12.5 -103q0 -77 -57.5 -131.5t-137.5 -54.5q-79 0 -136.5 54.5t-57.5 131.5q0 49 15 113.5l36 154.5l48 211.5
t57 319.5h77q23 -153 51 -285.5z" />
    <glyph glyph-name="logicalnot" unicode="&#xac;" horiz-adv-x="1440" 
d="M1266 50h-170v473h-932v163h1102v-636z" />
    <glyph glyph-name="radical" unicode="&#x221a;" horiz-adv-x="1468" 
d="M1556 1725l-800 -1851h-128l-387 946h-198v123h415l304 -739l652 1521h142z" />
    <glyph glyph-name="florin" unicode="&#x192;" horiz-adv-x="1186" 
d="M1186 1137q0 -27 -7.5 -55.5t-24.5 -48.5q-20 -24 -45.5 -37t-77.5 -13q-77 0 -123 52.5t-102 181.5q-37 -24 -63 -101t-47 -288l-7 -75h277v-116h-292q-8 -72 -18.5 -176.5t-35.5 -254.5q-19 -117 -60.5 -221t-114.5 -185q-78 -85 -174.5 -127t-227.5 -42
q-119 0 -186 50t-67 128q0 71 42.5 110t110.5 39q75 0 123 -51.5t102 -182.5q55 32 76.5 165t33.5 224q20 150 35 288.5l25 235.5h-203v116h220q12 104 55.5 205t113.5 177q72 80 176 127.5t233 47.5q115 0 184 -48.5t69 -124.5z" />
    <glyph glyph-name="approxequal" unicode="&#x2248;" horiz-adv-x="1440" 
d="M1275 946q-16 -45 -48 -99.5t-79 -101.5q-50 -50 -105 -80t-129 -30t-134 21t-113 48q-43 22 -100 46t-102 24q-70 0 -114.5 -42t-86.5 -133l-99 44q16 45 48.5 98.5t78.5 99.5q44 44 105 76t128 32q78 0 138.5 -22.5t110.5 -47.5l98.5 -48t102.5 -21q77 0 119 49t82 131
zM1275 526q-16 -45 -48 -99.5t-79 -101.5q-50 -50 -105 -80t-129 -30t-134 21t-113 48q-43 23 -100 46.5t-102 23.5q-70 0 -114.5 -42t-86.5 -133l-99 44q16 45 48.5 98.5t78.5 99.5q43 45 104.5 76.5t128.5 31.5q78 0 138.5 -22t110.5 -48l98.5 -48t102.5 -21q77 0 119 49
t82 131z" />
    <glyph glyph-name="increment" unicode="&#x2206;" horiz-adv-x="1523" 
d="M1504 0h-1485v57l664 1382h193l628 -1382v-57zM1078 199l-425 936l-442 -936h867z" />
    <glyph glyph-name="guillemotleft" unicode="&#xab;" horiz-adv-x="1250" 
d="M1130 140l-52 -43l-240.5 171t-177.5 133q-37 29 -55 63t-18 83q0 48 17.5 80t55.5 63q67 55 176 132.5l242 172.5l52 -43l-308 -409zM691 140l-52 -43l-240.5 171t-177.5 133q-37 29 -55 63t-18 83q0 48 17.5 80t55.5 63q67 55 176 132.5l242 172.5l52 -43l-308 -409z
" />
    <glyph glyph-name="guillemotright" unicode="&#xbb;" horiz-adv-x="1250" 
d="M1102 547q0 -47 -17.5 -82t-55.5 -64q-62 -50 -173 -130l-245 -174l-52 43l308 403l-308 409l52 43l243.5 -173.5t174.5 -131.5q36 -28 54.5 -61.5t18.5 -81.5zM663 547q0 -47 -17.5 -82t-55.5 -64q-62 -50 -173 -130l-245 -174l-52 43l308 403l-308 409l52 43
l243.5 -173.5t174.5 -131.5q36 -28 54.5 -61.5t18.5 -81.5z" />
    <glyph glyph-name="ellipsis" unicode="&#x2026;" horiz-adv-x="1929" 
d="M1814 158q0 -77 -56.5 -132t-134.5 -55q-79 0 -135.5 55t-56.5 132t56.5 132.5t135.5 55.5q78 0 134.5 -55.5t56.5 -132.5zM1171 158q0 -77 -56.5 -132t-134.5 -55q-79 0 -135.5 55t-56.5 132t56.5 132.5t135.5 55.5q78 0 134.5 -55.5t56.5 -132.5zM528 158
q0 -77 -56.5 -132t-134.5 -55q-79 0 -135.5 55t-56.5 132t56.5 132.5t135.5 55.5q78 0 134.5 -55.5t56.5 -132.5z" />
    <glyph glyph-name="Agrave" unicode="&#xc0;" horiz-adv-x="1553" 
d="M1609 0h-773v78q54 4 127 19.5t73 38.5q0 8 -1.5 18t-8.5 27l-121 294h-490q-17 -41 -37.5 -96l-35.5 -98q-19 -56 -22.5 -81t-3.5 -35q0 -32 48.5 -54.5t161.5 -32.5v-78h-582v78q33 2 74.5 10.5t65.5 23.5q41 24 69.5 59t47.5 83l232.5 563l257.5 622h200l307 -762
l189 -464q13 -30 33 -54.5t57 -46.5q28 -16 65 -24t67 -10v-78zM864 574l-206 514l-203 -514h409zM990 1526l-33 -41q-163 70 -270 107.5t-158 59.5t-76 47.5t-25 68.5t42 71.5t108 28.5q40 0 73.5 -17t73.5 -59l102.5 -107.5t162.5 -158.5z" />
    <glyph glyph-name="Atilde" unicode="&#xc3;" horiz-adv-x="1553" 
d="M1609 0h-773v78q54 4 127 19.5t73 38.5q0 8 -1.5 18t-8.5 27l-121 294h-490q-17 -41 -37.5 -96l-35.5 -98q-19 -56 -22.5 -81t-3.5 -35q0 -32 48.5 -54.5t161.5 -32.5v-78h-582v78q33 2 74.5 10.5t65.5 23.5q41 24 69.5 59t47.5 83l232.5 563l257.5 622h200l307 -762
l189 -464q13 -30 33 -54.5t57 -46.5q28 -16 65 -24t67 -10v-78zM864 574l-206 514l-203 -514h409zM1231 1844q-12 -43 -39.5 -96.5t-66.5 -97.5q-44 -49 -90 -78t-107 -29q-72 0 -125.5 17.5t-92.5 37.5q-34 18 -75.5 37t-78.5 19q-45 0 -75.5 -34t-71.5 -114l-72 30
q14 40 40 90t65 99q34 43 86 76t104 33q66 0 118 -16.5t96 -38.5l75.5 -38.5t72.5 -15.5q80 0 109.5 40t50.5 103z" />
    <glyph glyph-name="Otilde" unicode="&#xd5;" horiz-adv-x="1679" 
d="M1380 1261q105 -96 166.5 -232t61.5 -310q0 -155 -52 -295t-150 -241q-103 -105 -242 -163.5t-331 -58.5q-155 0 -293 51t-243 148q-104 95 -165 231t-61 303q0 174 59.5 315.5t163.5 242.5q103 99 244.5 152.5t301.5 53.5q159 0 298.5 -52t241.5 -145zM1123 246
q45 91 65 206t20 260q0 123 -17.5 239.5t-59.5 207.5q-43 91 -114 146t-177 55q-181 0 -275 -171.5t-94 -484.5q0 -133 20.5 -251t64.5 -206q45 -89 114 -138.5t170 -49.5q99 0 170 50t113 137zM1286 1844q-12 -43 -39.5 -96.5t-66.5 -97.5q-44 -49 -90 -78t-107 -29
q-72 0 -125.5 17.5t-92.5 37.5q-34 18 -75.5 37t-78.5 19q-45 0 -75.5 -34t-71.5 -114l-72 30q14 40 40 90t65 99q34 43 86 76t104 33q66 0 118 -16.5t96 -38.5l75.5 -38.5t72.5 -15.5q80 0 109.5 40t50.5 103z" />
    <glyph glyph-name="OE" unicode="&#x152;" horiz-adv-x="2254" 
d="M2104 1057h-76q-29 81 -100 164t-141 98q-30 6 -83.5 8t-88.5 2h-186v-548h126q55 0 100 13t82 50q23 23 46.5 81t30.5 101h76v-592h-76q-6 42 -30.5 105.5t-46.5 87.5q-33 36 -78 49.5t-104 13.5h-126v-409q0 -130 39 -160t183 -30q141 0 204.5 12.5t88.5 38.5
q48 49 108 149.5t79 150.5h73l-27 -442h-1298q-116 0 -258 34t-264 116q-147 99 -216.5 241.5t-69.5 317.5q0 184 73 324.5t213 235.5q98 67 238.5 108.5t283.5 41.5h1225v-362zM1075 94v1231q-34 2 -79 2.5t-66 0.5q-217 0 -338 -168t-121 -451q0 -279 120 -448.5
t339 -169.5q25 0 68 0.5t77 2.5z" />
    <glyph glyph-name="oe" unicode="&#x153;" horiz-adv-x="1921" 
d="M1882 239q-73 -122 -195.5 -196.5t-282.5 -74.5q-126 0 -220.5 35.5t-164.5 97.5q-76 -63 -169 -98t-220 -35q-236 0 -397.5 140.5t-161.5 385.5q0 231 151.5 379t415.5 148q128 0 224 -36t171 -102q82 72 172 105t174 33q130 0 222 -34.5t148 -93.5q56 -58 81 -135
t25 -162v-65h-659q0 -204 77.5 -311.5t245.5 -107.5q92 0 163.5 53t123.5 130zM1505 619q0 52 -5.5 119t-17.5 104q-15 44 -43 71t-75 27q-77 0 -120.5 -79t-47.5 -246zM802 181q24 65 32.5 142.5t8.5 179.5q0 80 -8 161t-29 141q-24 63 -62 99t-104 36q-68 0 -108 -39.5
t-62 -100.5q-22 -62 -28.5 -142t-6.5 -151q0 -101 7.5 -179.5t31.5 -144.5q22 -63 63 -98.5t103 -35.5q59 0 99.5 35.5t62.5 96.5z" />
    <glyph glyph-name="endash" unicode="&#x2013;" horiz-adv-x="1440" 
d="M1335 493h-1231v163h1231v-163z" />
    <glyph glyph-name="emdash" unicode="&#x2014;" horiz-adv-x="1900" 
d="M1795 493h-1691v163h1691v-163z" />
    <glyph glyph-name="quotedblleft" unicode="&#x201c;" horiz-adv-x="1063" 
d="M473 984q0 -64 -51.5 -112t-121.5 -48q-110 0 -169 73t-59 202q0 120 101.5 242t244.5 185l44 -71q-113 -55 -177 -128t-74 -177h56q62 0 101 -14t63 -39q23 -24 32.5 -53t9.5 -60zM966 984q0 -64 -51.5 -112t-121.5 -48q-110 0 -169 73t-59 202q0 120 101.5 242
t244.5 185l44 -71q-113 -55 -177 -128t-74 -177h56q62 0 101 -14t63 -39q23 -24 32.5 -53t9.5 -60z" />
    <glyph glyph-name="quotedblright" unicode="&#x201d;" horiz-adv-x="1063" 
d="M108 899q113 55 177 128t74 177h-56q-62 0 -101 14t-63 39q-23 24 -32.5 53t-9.5 60q0 64 51.5 112t121.5 48q110 0 169 -73t59 -202q0 -120 -101.5 -242t-244.5 -185zM601 899q113 55 177 128t74 177h-56q-62 0 -101 14t-63 39q-23 24 -32.5 53t-9.5 60q0 64 51.5 112
t121.5 48q110 0 169 -73t59 -202q0 -120 -101.5 -242t-244.5 -185z" />
    <glyph glyph-name="quoteleft" unicode="&#x2018;" horiz-adv-x="550" 
d="M463 984q0 -64 -51.5 -112t-121.5 -48q-110 0 -169 73t-59 202q0 120 101.5 242t244.5 185l44 -71q-113 -55 -177 -128t-74 -177h56q62 0 101 -14t63 -39q23 -24 32.5 -53t9.5 -60z" />
    <glyph glyph-name="quoteright" unicode="&#x2019;" horiz-adv-x="550" 
d="M98 899q113 55 177 128t74 177h-56q-62 0 -101 14t-63 39q-23 23 -32.5 52.5t-9.5 60.5q0 64 51.5 112t121.5 48q110 0 169 -73t59 -202q0 -120 -101.5 -242t-244.5 -185z" />
    <glyph glyph-name="divide" unicode="&#xf7;" horiz-adv-x="1440" 
d="M882 982q0 -69 -48 -117.5t-114 -48.5q-67 0 -115 48.5t-48 117.5t48 118t115 49q66 0 114 -49t48 -118zM1275 493h-1111v163h1111v-163zM882 166q0 -69 -48 -117.5t-114 -48.5q-67 0 -115 48.5t-48 117.5t48 118t115 49q66 0 114 -49t48 -118z" />
    <glyph glyph-name="lozenge" unicode="&#x25ca;" horiz-adv-x="1470" 
d="M1352 654l-617 -694l-617 694l617 695zM1135 654l-400 453l-400 -453l400 -452z" />
    <glyph glyph-name="ydieresis" unicode="&#xff;" horiz-adv-x="1151" 
d="M1188 919q-45 -7 -87.5 -34t-70.5 -84l-177 -387.5l-202 -444.5q-62 -134 -120 -214t-109 -123q-48 -40 -95 -58t-95 -18q-95 0 -153.5 53t-58.5 119q0 28 6.5 52t27.5 50q16 22 49.5 37.5t75.5 15.5q56 0 107 -39t106 -108q33 33 81.5 98.5t71.5 134.5l-211 433.5
l-206 409.5q-25 48 -67 74.5t-89 32.5v73h612v-73q-34 -1 -78.5 -15t-44.5 -36q0 -8 3 -17.5t11 -27.5l96.5 -194.5l145.5 -291.5l105.5 244.5l84.5 201.5q10 25 11.5 39.5t1.5 19.5q0 18 -17.5 31.5t-41.5 23.5q-25 10 -48 15t-38 7v73h413v-73zM1039 1349
q0 -67 -47.5 -117.5t-111.5 -50.5q-65 0 -112.5 50t-47.5 118q0 67 47 117.5t113 50.5q64 0 111.5 -50.5t47.5 -117.5zM544 1349q0 -67 -48 -117.5t-112 -50.5q-65 0 -112 50t-47 118q0 67 46.5 117.5t112.5 50.5q64 0 112 -50.5t48 -117.5z" />
    <glyph glyph-name="Ydieresis" unicode="&#x178;" horiz-adv-x="1499" 
d="M1567 1341q-36 -4 -66 -13t-57 -25q-43 -24 -76.5 -61.5t-65.5 -83.5l-136.5 -206.5l-155.5 -245.5q-55 -85 -67.5 -130.5t-12.5 -157.5v-201q0 -36 13.5 -63t51.5 -44q17 -7 72 -18.5t81 -13.5v-78h-791v78q28 2 80.5 8t73.5 14q37 16 50.5 42.5t13.5 64.5v250
q0 33 -1 58t-7 42q-7 19 -24 48.5l-44 76.5l-149 256l-137 227q-34 55 -68.5 88.5t-70.5 54.5q-27 15 -65.5 23t-69.5 10v78h813v-78q-112 -3 -151 -15.5t-39 -34.5q0 -11 14.5 -44t51.5 -102q34 -65 99.5 -179l157.5 -267l261 420.5t71 146.5q0 34 -41.5 52t-134.5 23v78
h526v-78zM1247 1700q0 -67 -47.5 -117.5t-111.5 -50.5q-65 0 -112.5 50t-47.5 118q0 67 47 117.5t113 50.5q64 0 111.5 -50.5t47.5 -117.5zM711 1700q0 -67 -48 -117.5t-112 -50.5q-65 0 -112 50t-47 118q0 67 46.5 117.5t112.5 50.5q64 0 112 -50.5t48 -117.5z" />
    <glyph glyph-name="fraction" unicode="&#x2044;" horiz-adv-x="194" 
d="M584 1429l-818 -1429h-156l816 1429h158z" />
    <glyph glyph-name="fraction" unicode="&#x2215;" horiz-adv-x="194" 
d="M584 1429l-818 -1429h-156l816 1429h158z" />
    <glyph glyph-name="Euro" unicode="&#x20ac;" horiz-adv-x="1465" 
d="M1438 356q-43 -88 -98 -157.5t-127 -119.5q-79 -55 -171.5 -86t-216.5 -31q-270 0 -454 152.5t-234 405.5h-137l44 116h79q-1 15 -1.5 30t-0.5 30q0 13 1 42t3 52h-125l44 116h99q63 253 248.5 402t461.5 149q108 0 204 -28.5t163 -64.5l62 55h87l9 -518h-88
q-75 237 -178 348t-246 111q-157 0 -236 -113t-103 -341h350l-44 -116h-312q-1 -13 -1 -29v-31q0 -24 0.5 -48t1.5 -46h253l-44 -116h-198q28 -208 121.5 -313t260.5 -105q132 0 239.5 76t197.5 230z" />
    <glyph glyph-name="guilsinglleft" unicode="&#x2039;" horiz-adv-x="811" 
d="M700 139l-51 -43l-247 172t-183 133q-37 29 -54.5 63t-17.5 83q0 47 17 79.5t55 63.5q78 61 197.5 143.5l232.5 161.5l51 -43l-297 -409z" />
    <glyph glyph-name="guilsinglright" unicode="&#x203a;" horiz-adv-x="811" 
d="M662 547q0 -47 -17 -82.5t-53 -63.5l-176.5 -129l-253.5 -176l-53 43l299 404l-299 409l53 43l246.5 -172t183.5 -133q37 -29 53.5 -62t16.5 -81z" />
    <glyph glyph-name="fi" unicode="&#xf001;" horiz-adv-x="1423" 
d="M1337 84q25 -7 52 -10v-74h-609v74q22 2 48.5 4t41.5 10q21 11 30 33.5t9 60.5v594q0 45 -14.5 71t-38.5 36h-319v-693q0 -38 9.5 -57.5t33.5 -34.5q14 -7 39.5 -14t50.5 -10v-74h-611v74q30 2 51.5 4t43.5 10q32 12 43.5 34.5t11.5 59.5v699h-203v106h203v17
q0 128 41.5 227.5t144.5 185.5q60 54 158 92.5t238 38.5q188 0 289.5 -59t101.5 -164q0 -57 -45.5 -105.5t-122.5 -48.5q-99 0 -153 67.5t-70 223.5q-46 -2 -91.5 -20t-84.5 -63q-36 -44 -58 -121t-22 -197v-74h440l248 17l14 -15v-794q0 -36 14.5 -60t42.5 -37
q18 -7 43 -14z" />
    <glyph glyph-name="fi" unicode="&#xfb01;" horiz-adv-x="1423" 
d="M1337 84q25 -7 52 -10v-74h-609v74q22 2 48.5 4t41.5 10q21 11 30 33.5t9 60.5v594q0 45 -14.5 71t-38.5 36h-319v-693q0 -38 9.5 -57.5t33.5 -34.5q14 -7 39.5 -14t50.5 -10v-74h-611v74q30 2 51.5 4t43.5 10q32 12 43.5 34.5t11.5 59.5v699h-203v106h203v17
q0 128 41.5 227.5t144.5 185.5q60 54 158 92.5t238 38.5q188 0 289.5 -59t101.5 -164q0 -57 -45.5 -105.5t-122.5 -48.5q-99 0 -153 67.5t-70 223.5q-46 -2 -91.5 -20t-84.5 -63q-36 -44 -58 -121t-22 -197v-74h440l248 17l14 -15v-794q0 -36 14.5 -60t42.5 -37
q18 -7 43 -14z" />
    <glyph glyph-name="fl" unicode="&#xf002;" horiz-adv-x="1444" 
d="M882 1308q-8 16 -12.5 52.5t-4.5 91.5q-8 2 -23.5 5t-34.5 3q-54 0 -99.5 -17t-87.5 -64q-39 -45 -62 -125.5t-23 -196.5v-70h266v-106h-264v-691q0 -38 9.5 -57.5t33.5 -34.5q14 -7 41.5 -14t52.5 -10v-74h-615v74q30 2 51.5 4t43.5 10q32 12 43.5 34.5t11.5 59.5v699
h-203v106h203v17q0 118 40.5 223.5t143.5 189.5q60 52 163.5 91.5t244.5 39.5q97 0 184 -16t127 -27l131 43l14 -16v-1337q0 -35 14.5 -59t41.5 -38q26 -11 47.5 -16.5t46.5 -7.5v-74h-625v74q29 2 54.5 4t48.5 10q30 11 38 33.5t8 60.5v1083l-28 17.5t-21 25.5z" />
    <glyph glyph-name="fl" unicode="&#xfb02;" horiz-adv-x="1444" 
d="M882 1308q-8 16 -12.5 52.5t-4.5 91.5q-8 2 -23.5 5t-34.5 3q-54 0 -99.5 -17t-87.5 -64q-39 -45 -62 -125.5t-23 -196.5v-70h266v-106h-264v-691q0 -38 9.5 -57.5t33.5 -34.5q14 -7 41.5 -14t52.5 -10v-74h-615v74q30 2 51.5 4t43.5 10q32 12 43.5 34.5t11.5 59.5v699
h-203v106h203v17q0 118 40.5 223.5t143.5 189.5q60 52 163.5 91.5t244.5 39.5q97 0 184 -16t127 -27l131 43l14 -16v-1337q0 -35 14.5 -59t41.5 -38q26 -11 47.5 -16.5t46.5 -7.5v-74h-625v74q29 2 54.5 4t48.5 10q30 11 38 33.5t8 60.5v1083l-28 17.5t-21 25.5z" />
    <glyph glyph-name="daggerdbl" unicode="&#x2021;" horiz-adv-x="987" 
d="M889 576q0 -45 -25.5 -67t-64.5 -22q-22 0 -89 20.5t-179 37.5q9 -84 32 -170.5t23 -110.5q0 -39 -23 -64.5t-68 -25.5q-41 0 -66 25.5t-25 64.5q0 31 19 100.5t32 180.5q-93 -11 -168.5 -34.5t-99.5 -23.5q-39 0 -64.5 22t-25.5 67q0 41 25.5 65t64.5 24q21 0 96 -20.5
t172 -33.5q-5 48 -16.5 90.5t-16.5 94.5v38q4 52 16.5 92t16.5 92q-93 -14 -172 -34t-96 -20q-39 0 -64.5 24t-25.5 65q0 45 25.5 67t64.5 22q19 0 95.5 -22.5t172.5 -35.5q-13 106 -32 179.5t-19 101.5q0 39 25 64.5t66 25.5q45 0 68 -25.5t23 -64.5q0 -27 -21 -101.5
t-34 -179.5q91 12 171 35t97 23q39 0 64.5 -22t25.5 -67q0 -41 -25.5 -65t-64.5 -24q-27 0 -95.5 20.5t-172.5 33.5q4 -48 16.5 -90t16.5 -94v-38q-5 -52 -16.5 -92.5t-16.5 -92.5q104 13 172 33.5t96 20.5q39 0 64.5 -24t25.5 -65z" />
    <glyph glyph-name="periodcentered" unicode="&#x2219;" horiz-adv-x="692" 
d="M544 546q0 -79 -58.5 -137t-138.5 -58q-81 0 -139.5 57.5t-58.5 137.5t58.5 138.5t139.5 58.5q80 0 138.5 -59t58.5 -138z" />
    <glyph glyph-name="quotesinglbase" unicode="&#x201a;" horiz-adv-x="550" 
d="M75 -305q113 55 177 128t74 177h-56q-62 0 -101 14t-63 39q-23 23 -32.5 52.5t-9.5 60.5q0 64 51.5 112t121.5 48q110 0 169 -73t59 -202q0 -120 -101.5 -242t-244.5 -185z" />
    <glyph glyph-name="quotedblbase" unicode="&#x201e;" horiz-adv-x="1063" 
d="M85 -305q113 55 177 128t74 177h-56q-62 0 -101 14t-63 39q-23 24 -32.5 53t-9.5 60q0 64 51.5 112t121.5 48q110 0 169 -73t59 -202q0 -120 -101.5 -242t-244.5 -185zM578 -305q113 55 177 128t74 177h-56q-62 0 -101 14t-63 39q-23 24 -32.5 53t-9.5 60q0 64 51.5 112
t121.5 48q110 0 169 -73t59 -202q0 -120 -101.5 -242t-244.5 -185z" />
    <glyph glyph-name="perthousand" unicode="&#x2030;" horiz-adv-x="2680" 
d="M870 1086q0 -167 -112.5 -270.5t-276.5 -103.5q-166 0 -278 103.5t-112 270.5t112 270.5t277 103.5t277.5 -103.5t112.5 -270.5zM605 1084q0 138 -27 220.5t-99 82.5q-65 0 -94 -77.5t-29 -215.5q0 -144 26.5 -226.5t100.5 -82.5q64 0 93 77.5t29 221.5zM1710 339
q0 -167 -112.5 -270.5t-276.5 -103.5q-166 0 -278 103.5t-112 270.5t112 270.5t277 103.5t277.5 -103.5t112.5 -270.5zM1445 337q0 138 -27 220.5t-99 82.5q-65 0 -94 -77.5t-29 -215.5q0 -144 26.5 -226.5t100.5 -82.5q64 0 93 77.5t29 221.5zM1574 1428l-1183 -1428h-163
l1180 1428h166zM2588 339q0 -167 -112.5 -270.5t-276.5 -103.5q-166 0 -278 103.5t-112 270.5t112 270.5t277 103.5t277.5 -103.5t112.5 -270.5zM2323 337q0 138 -27 220.5t-99 82.5q-65 0 -94 -77.5t-29 -215.5q0 -144 26.5 -226.5t100.5 -82.5q64 0 93 77.5t29 221.5z" />
    <glyph glyph-name="Acircumflex" unicode="&#xc2;" horiz-adv-x="1553" 
d="M1609 0h-773v78q54 4 127 19.5t73 38.5q0 8 -1.5 18t-8.5 27l-121 294h-490q-17 -41 -37.5 -96l-35.5 -98q-19 -56 -22.5 -81t-3.5 -35q0 -32 48.5 -54.5t161.5 -32.5v-78h-582v78q33 2 74.5 10.5t65.5 23.5q41 24 69.5 59t47.5 83l232.5 563l257.5 622h200l307 -762
l189 -464q13 -30 33 -54.5t57 -46.5q28 -16 65 -24t67 -10v-78zM864 574l-206 514l-203 -514h409zM1171 1513l-33 -29l-351 203l-344 -203l-33 29l155.5 189t85.5 105q23 30 54.5 45.5t85.5 15.5q55 0 81.5 -14t51.5 -43l82.5 -98z" />
    <glyph glyph-name="Ecircumflex" unicode="&#xca;" horiz-adv-x="1477" 
d="M1327 1057h-76q-29 81 -100 164t-141 98q-30 7 -83.5 8.5t-88.5 1.5h-206v-548h146q55 0 100 13t82 50q23 23 46.5 81t30.5 101h76v-592h-76q-6 42 -30.5 105.5t-46.5 87.5q-33 36 -78 49.5t-104 13.5h-146v-409q0 -64 9.5 -101.5t35.5 -57.5q25 -19 68.5 -25t118.5 -6
q35 0 84 1t86 6q42 5 78.5 15t54.5 29q48 49 108 149.5t79 150.5h73l-27 -442h-1331v78q28 2 76 8t68 14q38 16 51 40.5t13 62.5v1001q0 36 -11 59.5t-53 42.5q-26 12 -73 22t-71 13v78h1258v-362zM1150 1513l-33 -29l-351 203l-344 -203l-33 29l155.5 189t85.5 105
q23 30 54.5 45.5t85.5 15.5q55 0 81.5 -14t51.5 -43l82.5 -98z" />
    <glyph glyph-name="Aacute" unicode="&#xc1;" horiz-adv-x="1553" 
d="M1609 0h-773v78q54 4 127 19.5t73 38.5q0 8 -1.5 18t-8.5 27l-121 294h-490q-17 -41 -37.5 -96l-35.5 -98q-19 -56 -22.5 -81t-3.5 -35q0 -32 48.5 -54.5t161.5 -32.5v-78h-582v78q33 2 74.5 10.5t65.5 23.5q41 24 69.5 59t47.5 83l232.5 563l257.5 622h200l307 -762
l189 -464q13 -30 33 -54.5t57 -46.5q28 -16 65 -24t67 -10v-78zM864 574l-206 514l-203 -514h409zM1128 1768q0 -42 -26 -69t-75 -47q-56 -23 -168 -64t-260 -103l-33 41l155 151l110 115q38 40 73 58t74 18q65 0 107.5 -27.5t42.5 -72.5z" />
    <glyph glyph-name="Edieresis" unicode="&#xcb;" horiz-adv-x="1477" 
d="M1327 1057h-76q-29 81 -100 164t-141 98q-30 7 -83.5 8.5t-88.5 1.5h-206v-548h146q55 0 100 13t82 50q23 23 46.5 81t30.5 101h76v-592h-76q-6 42 -30.5 105.5t-46.5 87.5q-33 36 -78 49.5t-104 13.5h-146v-409q0 -64 9.5 -101.5t35.5 -57.5q25 -19 68.5 -25t118.5 -6
q35 0 84 1t86 6q42 5 78.5 15t54.5 29q48 49 108 149.5t79 150.5h73l-27 -442h-1331v78q28 2 76 8t68 14q38 16 51 40.5t13 62.5v1001q0 36 -11 59.5t-53 42.5q-26 12 -73 22t-71 13v78h1258v-362zM1207 1700q0 -67 -47.5 -117.5t-111.5 -50.5q-65 0 -112.5 50t-47.5 118
q0 67 47 117.5t113 50.5q64 0 111.5 -50.5t47.5 -117.5zM671 1700q0 -67 -48 -117.5t-112 -50.5q-65 0 -112 50t-47 118q0 67 46.5 117.5t112.5 50.5q64 0 112 -50.5t48 -117.5z" />
    <glyph glyph-name="Egrave" unicode="&#xc8;" horiz-adv-x="1477" 
d="M1327 1057h-76q-29 81 -100 164t-141 98q-30 7 -83.5 8.5t-88.5 1.5h-206v-548h146q55 0 100 13t82 50q23 23 46.5 81t30.5 101h76v-592h-76q-6 42 -30.5 105.5t-46.5 87.5q-33 36 -78 49.5t-104 13.5h-146v-409q0 -64 9.5 -101.5t35.5 -57.5q25 -19 68.5 -25t118.5 -6
q35 0 84 1t86 6q42 5 78.5 15t54.5 29q48 49 108 149.5t79 150.5h73l-27 -442h-1331v78q28 2 76 8t68 14q38 16 51 40.5t13 62.5v1001q0 36 -11 59.5t-53 42.5q-26 12 -73 22t-71 13v78h1258v-362zM980 1526l-33 -41q-163 70 -270 107.5t-158 59.5t-76 47.5t-25 68.5
t42 71.5t108 28.5q40 0 73.5 -17t73.5 -59l102.5 -107.5t162.5 -158.5z" />
    <glyph glyph-name="Iacute" unicode="&#xcd;" horiz-adv-x="913" 
d="M850 0h-787v78l79.5 6t72.5 12q37 15 50.5 39.5t13.5 62.5v1006q0 34 -13 60t-51 42q-24 10 -71 20.5t-81 14.5v78h787v-78q-30 -3 -75 -8.5t-76 -15.5q-39 -13 -52 -40.5t-13 -62.5v-1005q0 -36 13.5 -61.5t51.5 -41.5q21 -9 69.5 -17.5t81.5 -10.5v-78zM728 1768
q0 -42 -26 -69t-75 -47q-56 -23 -168 -64t-260 -103l-33 41l155 151l110 115q38 40 73 58t74 18q65 0 107.5 -27.5t42.5 -72.5z" />
    <glyph glyph-name="Icircumflex" unicode="&#xce;" horiz-adv-x="913" 
d="M850 0h-787v78l79.5 6t72.5 12q37 15 50.5 39.5t13.5 62.5v1006q0 34 -13 60t-51 42q-24 10 -71 20.5t-81 14.5v78h787v-78q-30 -3 -75 -8.5t-76 -15.5q-39 -13 -52 -40.5t-13 -62.5v-1005q0 -36 13.5 -61.5t51.5 -41.5q21 -9 69.5 -17.5t81.5 -10.5v-78zM837 1513
l-33 -29l-351 203l-344 -203l-33 29l155.5 189t85.5 105q23 30 54.5 45.5t85.5 15.5q55 0 81.5 -14t51.5 -43l82.5 -98z" />
    <glyph glyph-name="Idieresis" unicode="&#xcf;" horiz-adv-x="913" 
d="M850 0h-787v78l79.5 6t72.5 12q37 15 50.5 39.5t13.5 62.5v1006q0 34 -13 60t-51 42q-24 10 -71 20.5t-81 14.5v78h787v-78q-30 -3 -75 -8.5t-76 -15.5q-39 -13 -52 -40.5t-13 -62.5v-1005q0 -36 13.5 -61.5t51.5 -41.5q21 -9 69.5 -17.5t81.5 -10.5v-78zM863 1700
q0 -67 -47.5 -117.5t-111.5 -50.5q-65 0 -112.5 50t-47.5 118q0 67 47 117.5t113 50.5q64 0 111.5 -50.5t47.5 -117.5zM368 1700q0 -67 -48 -117.5t-112 -50.5q-65 0 -112 50t-47 118q0 67 46.5 117.5t112.5 50.5q64 0 112 -50.5t48 -117.5z" />
    <glyph glyph-name="Igrave" unicode="&#xcc;" horiz-adv-x="913" 
d="M850 0h-787v78l79.5 6t72.5 12q37 15 50.5 39.5t13.5 62.5v1006q0 34 -13 60t-51 42q-24 10 -71 20.5t-81 14.5v78h787v-78q-30 -3 -75 -8.5t-76 -15.5q-39 -13 -52 -40.5t-13 -62.5v-1005q0 -36 13.5 -61.5t51.5 -41.5q21 -9 69.5 -17.5t81.5 -10.5v-78zM760 1526
l-33 -41q-163 70 -270 107.5t-158 59.5t-76 47.5t-25 68.5t42 71.5t108 28.5q40 0 73.5 -17t73.5 -59l102.5 -107.5t162.5 -158.5z" />
    <glyph glyph-name="Oacute" unicode="&#xd3;" horiz-adv-x="1679" 
d="M1380 1261q105 -96 166.5 -232t61.5 -310q0 -155 -52 -295t-150 -241q-103 -105 -242 -163.5t-331 -58.5q-155 0 -293 51t-243 148q-104 95 -165 231t-61 303q0 174 59.5 315.5t163.5 242.5q103 99 244.5 152.5t301.5 53.5q159 0 298.5 -52t241.5 -145zM1123 246
q45 91 65 206t20 260q0 123 -17.5 239.5t-59.5 207.5q-43 91 -114 146t-177 55q-181 0 -275 -171.5t-94 -484.5q0 -133 20.5 -251t64.5 -206q45 -89 114 -138.5t170 -49.5q99 0 170 50t113 137zM1098 1768q0 -42 -26 -69t-75 -47q-56 -23 -168 -64t-260 -103l-33 41l155 151
l110 115q38 40 73 58t74 18q65 0 107.5 -27.5t42.5 -72.5z" />
    <glyph glyph-name="Ocircumflex" unicode="&#xd4;" horiz-adv-x="1679" 
d="M1380 1261q105 -96 166.5 -232t61.5 -310q0 -155 -52 -295t-150 -241q-103 -105 -242 -163.5t-331 -58.5q-155 0 -293 51t-243 148q-104 95 -165 231t-61 303q0 174 59.5 315.5t163.5 242.5q103 99 244.5 152.5t301.5 53.5q159 0 298.5 -52t241.5 -145zM1123 246
q45 91 65 206t20 260q0 123 -17.5 239.5t-59.5 207.5q-43 91 -114 146t-177 55q-181 0 -275 -171.5t-94 -484.5q0 -133 20.5 -251t64.5 -206q45 -89 114 -138.5t170 -49.5q99 0 170 50t113 137zM1220 1513l-33 -29l-351 203l-344 -203l-33 29l155.5 189t85.5 105
q23 30 54.5 45.5t85.5 15.5q55 0 81.5 -14t51.5 -43l82.5 -98z" />
    <glyph glyph-name="Ograve" unicode="&#xd2;" horiz-adv-x="1679" 
d="M1380 1261q105 -96 166.5 -232t61.5 -310q0 -155 -52 -295t-150 -241q-103 -105 -242 -163.5t-331 -58.5q-155 0 -293 51t-243 148q-104 95 -165 231t-61 303q0 174 59.5 315.5t163.5 242.5q103 99 244.5 152.5t301.5 53.5q159 0 298.5 -52t241.5 -145zM1123 246
q45 91 65 206t20 260q0 123 -17.5 239.5t-59.5 207.5q-43 91 -114 146t-177 55q-181 0 -275 -171.5t-94 -484.5q0 -133 20.5 -251t64.5 -206q45 -89 114 -138.5t170 -49.5q99 0 170 50t113 137zM1107 1526l-33 -41q-163 70 -270 107.5t-158 59.5t-76 47.5t-25 68.5t42 71.5
t108 28.5q40 0 73.5 -17t73.5 -59l102.5 -107.5t162.5 -158.5z" />
    <glyph glyph-name="Uacute" unicode="&#xda;" horiz-adv-x="1707" 
d="M1703 1341q-29 -3 -83.5 -13.5t-91.5 -36.5q-38 -25 -53.5 -90t-15.5 -195v-528q0 -233 -158 -375t-418 -142q-303 0 -469 137t-166 382v726q0 35 -13.5 60t-51.5 45q-26 13 -64 21t-62 11v76h744v-76q-32 -2 -65 -7.5t-67 -16.5q-38 -12 -51 -40t-13 -63v-716
q0 -211 93 -307t270 -96q174 0 273 106t99 312v481q0 128 -17.5 191.5t-53.5 91.5q-26 22 -90.5 40t-90.5 22v78h615v-78zM1198 1768q0 -42 -26 -69t-75 -47q-56 -23 -168 -64t-260 -103l-33 41l155 151l110 115q38 40 73 58t74 18q65 0 107.5 -27.5t42.5 -72.5z" />
    <glyph glyph-name="Ucircumflex" unicode="&#xdb;" horiz-adv-x="1707" 
d="M1703 1341q-29 -3 -83.5 -13.5t-91.5 -36.5q-38 -25 -53.5 -90t-15.5 -195v-528q0 -233 -158 -375t-418 -142q-303 0 -469 137t-166 382v726q0 35 -13.5 60t-51.5 45q-26 13 -64 21t-62 11v76h744v-76q-32 -2 -65 -7.5t-67 -16.5q-38 -12 -51 -40t-13 -63v-716
q0 -211 93 -307t270 -96q174 0 273 106t99 312v481q0 128 -17.5 191.5t-53.5 91.5q-26 22 -90.5 40t-90.5 22v78h615v-78zM1310 1513l-33 -29l-351 203l-344 -203l-33 29l155.5 189t85.5 105q23 30 54.5 45.5t85.5 15.5q55 0 81.5 -14t51.5 -43l82.5 -98z" />
    <glyph glyph-name="Ugrave" unicode="&#xd9;" horiz-adv-x="1707" 
d="M1703 1341q-29 -3 -83.5 -13.5t-91.5 -36.5q-38 -25 -53.5 -90t-15.5 -195v-528q0 -233 -158 -375t-418 -142q-303 0 -469 137t-166 382v726q0 35 -13.5 60t-51.5 45q-26 13 -64 21t-62 11v76h744v-76q-32 -2 -65 -7.5t-67 -16.5q-38 -12 -51 -40t-13 -63v-716
q0 -211 93 -307t270 -96q174 0 273 106t99 312v481q0 128 -17.5 191.5t-53.5 91.5q-26 22 -90.5 40t-90.5 22v78h615v-78zM1120 1526l-33 -41q-163 70 -270 107.5t-158 59.5t-76 47.5t-25 68.5t42 71.5t108 28.5q40 0 73.5 -17t73.5 -59l102.5 -107.5t162.5 -158.5z" />
    <glyph glyph-name="dotlessi" unicode="&#x131;" horiz-adv-x="724" 
d="M690 0h-632v73q26 2 51 5t43 10q32 12 45 34.5t13 59.5v582q0 35 -16 61.5t-40 42.5q-18 12 -54.5 23t-66.5 14v73l490 26l15 -15v-794q0 -35 15 -59.5t43 -36.5q20 -9 44 -16t50 -10v-73z" />
    <glyph glyph-name="circumflex" unicode="&#x2c6;" 
d="M883 1132l-54 -29l-320 254l-316 -254l-51 29l139 224t92 131q23 31 54.5 46t85.5 15q55 0 82 -14t51 -43q47 -57 100.5 -141z" />
    <glyph glyph-name="tilde" unicode="&#x2dc;" 
d="M959 1479q-12 -43 -39.5 -96.5t-66.5 -97.5q-44 -49 -90 -78t-107 -29q-72 0 -125.5 17.5t-92.5 37.5q-34 18 -75.5 37t-78.5 19q-45 0 -75.5 -34t-71.5 -114l-72 30q14 40 40 90t65 99q34 43 86 76t104 33q66 0 118 -16.5t96 -38.5l75.5 -38.5t72.5 -15.5q80 0 109.5 40
t50.5 103z" />
    <glyph glyph-name="macron" unicode="&#x2c9;" 
d="M886 1246h-748v173h748v-173z" />
    <glyph glyph-name="breve" unicode="&#x2d8;" 
d="M842 1532q-25 -194 -103.5 -295.5t-226.5 -101.5q-143 0 -225.5 103t-104.5 294l71 16q14 -48 33 -92t46 -75q30 -34 70 -52.5t110 -18.5q59 0 104.5 17t74.5 51q28 32 46.5 75.5t33.5 94.5z" />
    <glyph glyph-name="dotaccent" unicode="&#x2d9;" 
d="M681 1349q0 -70 -49 -119t-119 -49t-119 49t-49 119t49 119t119 49t119 -49t49 -119z" />
    <glyph glyph-name="ring" unicode="&#x2da;" 
d="M791 1336q0 -104 -77 -168t-202 -64q-128 0 -203.5 61.5t-75.5 170.5q0 106 80.5 168.5t198.5 62.5q120 0 199.5 -62t79.5 -169zM644 1335q0 71 -33.5 116.5t-98.5 45.5q-63 0 -97.5 -43.5t-34.5 -118.5q0 -72 34 -116.5t98 -44.5t98 43.5t34 117.5z" />
    <glyph glyph-name="cedilla" unicode="&#xb8;" 
d="M728 -252q0 -57 -29 -96t-83 -59q-56 -21 -135.5 -29t-197.5 -8v78q50 0 98 0.5t78 7.5q35 7 54 22.5t19 49.5q0 40 -38 52t-100 12v239h86v-113q110 0 179 -37.5t69 -118.5z" />
    <glyph glyph-name="hungarumlaut" unicode="&#x2dd;" 
d="M600 1467q0 -40 -32.5 -71.5t-65.5 -57.5l-108.5 -83.5t-200.5 -160.5l-38 35q73 111 115 183.5l79 137.5q25 46 58.5 72t94.5 26q37 0 67.5 -24.5t30.5 -56.5zM1005 1467q0 -40 -32.5 -71.5t-65.5 -57.5l-108.5 -83.5t-200.5 -160.5l-38 35q73 111 115 183.5l79 137.5
q26 46 59 72t94 26q37 0 67.5 -24.5t30.5 -56.5z" />
    <glyph glyph-name="ogonek" unicode="&#x2db;" 
d="M704 -444q-213 0 -313 47t-100 143q0 87 66 155.5t196 137.5h86q-70 -79 -102 -142t-32 -122q0 -65 46.5 -97.5t152.5 -44.5v-77z" />
    <glyph glyph-name="caron" unicode="&#x2c7;" 
d="M883 1519l-136 -217t-101 -142q-26 -30 -49 -43.5t-84 -13.5q-60 0 -88.5 16t-51.5 45q-47 59 -106.5 155l-124.5 200l51 29l316 -254l320 254z" />
    <glyph glyph-name="Lslash" unicode="&#x141;" horiz-adv-x="1404" 
d="M1404 455l-28 -455h-1307v78q35 3 82 9.5t62 12.5q36 14 50 39t14 64v405l-168 -69l-41 93l209 86v486q0 36 -11 59.5t-53 42.5q-31 14 -74.5 22.5t-69.5 12.5v78h778v-78q-32 -3 -75.5 -8.5t-75.5 -15.5q-39 -13 -52 -40.5t-13 -62.5v-353l258 106l41 -93l-299 -123
v-470q0 -66 9 -104t35 -56q26 -19 72.5 -24.5t128.5 -5.5q80 0 156 9.5t109 41.5q51 51 104.5 143.5t85.5 169.5h73z" />
    <glyph glyph-name="lslash" unicode="&#x142;" horiz-adv-x="705" 
d="M686 804l-168 -67v-542q0 -37 13 -60t42 -36q20 -9 42 -16t52 -10v-73h-627v73q26 2 50.5 5t43.5 10q32 12 43.5 34.5t11.5 59.5v432l-129 -53l-35 93l164 65v571q0 38 -15.5 70.5t-41.5 49.5q-20 13 -60.5 25t-71.5 14v73l503 26l15 -16v-689l133 54z" />
    <glyph glyph-name="Scaron" unicode="&#x160;" horiz-adv-x="1329" 
d="M664 -38q-130 0 -242.5 32t-190.5 76l-69 -70h-85l-13 513h86q29 -73 74 -154t104 -145q61 -67 136.5 -109t176.5 -42q136 0 208.5 66.5t72.5 167.5q0 83 -61.5 139.5t-190.5 97.5l-154.5 50t-132.5 47q-143 57 -212.5 163t-69.5 237q0 83 36 159.5t105 137.5
q66 57 169 93t224 36q118 0 221 -32.5t162 -65.5l61 60h87l8 -484h-86q-30 78 -70.5 159.5t-85.5 135.5q-49 58 -113 92.5t-150 34.5q-108 0 -176.5 -61t-68.5 -151q0 -85 59.5 -139t185.5 -95l151 -50t137 -48q145 -56 220.5 -154.5t75.5 -244.5q0 -92 -43 -178t-116 -143
q-80 -63 -185 -97t-245 -34zM1027 1839l-150 -184.5t-85 -103.5q-27 -30 -47 -43.5t-86 -13.5q-60 0 -88.5 16t-51.5 45l-72 91l-157 193l33 29l332 -193l339 193z" />
    <glyph glyph-name="scaron" unicode="&#x161;" horiz-adv-x="1050" 
d="M521 -34q-97 0 -189.5 28.5t-143.5 60.5l-30 -68h-78l-13 373h73q15 -45 50 -101.5t80 -101.5q47 -45 107.5 -76t129.5 -31q91 0 135.5 35.5t44.5 109.5q0 40 -20 66t-55 45q-39 20 -85.5 34l-114.5 34t-116.5 40.5t-100.5 64.5q-45 39 -72 94t-27 131q0 141 118.5 228
t310.5 87q91 0 167.5 -18.5t128.5 -40.5l21 59h76l16 -341h-71q-35 104 -120 179.5t-183 75.5q-77 0 -121 -32t-44 -89q0 -76 64.5 -110t180.5 -64q179 -46 262 -125.5t83 -202.5q0 -164 -128.5 -254t-335.5 -90zM903 1519l-136 -217t-101 -142q-26 -30 -49 -43.5t-84 -13.5
q-60 0 -88.5 16t-51.5 45q-47 59 -106.5 155l-124.5 200l51 29l316 -254l320 254z" />
    <glyph glyph-name="Zcaron" unicode="&#x17d;" horiz-adv-x="1412" 
d="M1397 479l-48 -479h-1332v61l917 1266h-311q-95 0 -137 -5.5t-79 -22.5q-43 -16 -95 -84.5t-139 -228.5h-81l44 433h1234v-61l-917 -1266h357q168 0 228.5 13.5t88.5 48.5q57 69 105.5 151.5t89.5 173.5h75zM1080 1839l-150 -184.5t-85 -103.5q-27 -30 -47 -43.5
t-86 -13.5q-60 0 -88.5 16t-51.5 45l-72 91l-157 193l33 29l332 -193l339 193z" />
    <glyph glyph-name="zcaron" unicode="&#x17e;" horiz-adv-x="1076" 
d="M1028 0h-984v69l574 832q-119 0 -214 -3t-150 -24q-19 -7 -50.5 -72.5t-49.5 -136.5h-71v327h930v-62l-576 -839q24 0 70 -1t88 -1q49 0 105 2.5t87 6.5q41 5 65.5 28t38.5 55q13 29 34 87.5t32 104.5h71v-373zM921 1519l-136 -217t-101 -142q-26 -30 -49 -43.5
t-84 -13.5q-60 0 -88.5 16t-51.5 45q-47 59 -106.5 155l-124.5 200l51 29l316 -254l320 254z" />
    <glyph glyph-name="brokenbar" unicode="&#xa6;" horiz-adv-x="794" 
d="M483 723h-171v800h171v-800zM483 -424h-171v810h171v-810z" />
    <glyph glyph-name="Eth" unicode="&#xd0;" horiz-adv-x="1708" 
d="M1347 1273q130 -85 210 -226.5t80 -346.5q0 -180 -71.5 -313.5t-189.5 -218.5q-120 -85 -272.5 -126.5t-319.5 -41.5h-715v78q32 1 80 6t64 12q36 15 50 40.5t14 61.5v488h-195v105h195v413q0 34 -13 61.5t-51 44.5t-80.5 23t-65.5 8v78h755q121 0 259 -31t266 -115z
M1237 701q0 141 -30 257t-88 198t-144.5 127t-196.5 45q-35 0 -80 -1.5t-67 -2.5v-533h305v-105h-305v-439q0 -36 9.5 -63.5t32.5 -47.5q24 -22 57.5 -33.5t87.5 -11.5q113 0 194 42t131 123q49 80 71.5 190.5t22.5 254.5z" />
    <glyph glyph-name="eth" unicode="&#xf0;" horiz-adv-x="1306" 
d="M1124 1082q54 -99 80.5 -209.5t26.5 -242.5q0 -315 -157 -488.5t-430 -173.5q-255 0 -414 145.5t-159 386.5q0 228 142.5 373.5t372.5 145.5q96 0 164.5 -29t116.5 -86l10 2q-13 95 -47 187.5t-94 170.5l-212 -134l-60 83l205 129q-35 35 -80.5 69.5t-88.5 62.5l48 74
l103.5 -44.5t143.5 -79.5l196 124l60 -83l-167 -105q61 -47 128.5 -122t111.5 -156zM820 180q25 61 36.5 142.5t11.5 179.5q0 86 -10 165.5t-34 133.5q-25 58 -65 89t-105 31q-69 0 -110.5 -34t-66.5 -93q-24 -56 -32.5 -132.5t-8.5 -155.5q0 -101 10 -179t36 -144
q26 -64 68 -99t104 -35q57 0 99 34t67 97z" />
    <glyph glyph-name="Yacute" unicode="&#xdd;" horiz-adv-x="1499" 
d="M1567 1341q-36 -4 -66 -13t-57 -25q-43 -24 -76.5 -61.5t-65.5 -83.5l-136.5 -206.5l-155.5 -245.5q-55 -85 -67.5 -130.5t-12.5 -157.5v-201q0 -36 13.5 -63t51.5 -44q17 -7 72 -18.5t81 -13.5v-78h-791v78q28 2 80.5 8t73.5 14q37 16 50.5 42.5t13.5 64.5v250
q0 33 -1 58t-7 42q-7 19 -24 48.5l-44 76.5l-149 256l-137 227q-34 55 -68.5 88.5t-70.5 54.5q-27 15 -65.5 23t-69.5 10v78h813v-78q-112 -3 -151 -15.5t-39 -34.5q0 -11 14.5 -44t51.5 -102q34 -65 99.5 -179l157.5 -267l261 420.5t71 146.5q0 34 -41.5 52t-134.5 23v78
h526v-78zM1123 1768q0 -42 -26 -69t-75 -47q-56 -23 -168 -64t-260 -103l-33 41l155 151l110 115q38 40 73 58t74 18q65 0 107.5 -27.5t42.5 -72.5z" />
    <glyph glyph-name="yacute" unicode="&#xfd;" horiz-adv-x="1151" 
d="M1188 919q-45 -7 -87.5 -34t-70.5 -84l-177 -387.5l-202 -444.5q-62 -134 -120 -214t-109 -123q-48 -40 -95 -58t-95 -18q-95 0 -153.5 53t-58.5 119q0 28 6.5 52t27.5 50q16 22 49.5 37.5t75.5 15.5q56 0 107 -39t106 -108q33 33 81.5 98.5t71.5 134.5l-211 433.5
l-206 409.5q-25 48 -67 74.5t-89 32.5v73h612v-73q-34 -1 -78.5 -15t-44.5 -36q0 -8 3 -17.5t11 -27.5l96.5 -194.5l145.5 -291.5l105.5 244.5l84.5 201.5q10 25 11.5 39.5t1.5 19.5q0 18 -17.5 31.5t-41.5 23.5q-25 10 -48 15t-38 7v73h413v-73zM924 1460
q0 -45 -20.5 -72.5t-65.5 -56.5q-49 -32 -155 -90.5t-240 -139.5l-42 38q88 117 136 186.5l83 118.5q43 61 82 82.5t97 21.5q48 0 86.5 -26t38.5 -62z" />
    <glyph glyph-name="Thorn" unicode="&#xde;" horiz-adv-x="1450" 
d="M1399 752q0 -108 -51 -189t-135 -134q-81 -51 -183 -77t-205 -26h-193v-117q0 -37 14.5 -62t50.5 -41q20 -8 62.5 -17.5t72.5 -10.5v-78h-763v78q28 2 75.5 8t68.5 14q33 14 48.5 37.5t15.5 65.5v1001q0 36 -11 60.5t-53 41.5q-28 12 -71.5 22.5t-72.5 12.5v78h763v-78
q-26 -1 -71 -11t-64 -18q-36 -15 -50.5 -42t-14.5 -60v-66h220q276 0 411.5 -93.5t135.5 -298.5zM1008 735q0 160 -66 238t-231 78h-79v-632h52q164 0 244 79.5t80 236.5z" />
    <glyph glyph-name="thorn" unicode="&#xfe;" horiz-adv-x="1321" 
d="M1250 487q0 -211 -141 -362t-357 -151q-96 0 -156 19.5t-99 47.5h-8v-281q0 -35 15.5 -61t43.5 -38q27 -12 76.5 -20.5t82.5 -10.5v-74h-722v74q25 2 64 7.5t56 11.5q32 11 43.5 37.5t11.5 60.5v1550q0 38 -15.5 70.5t-41.5 49.5q-19 12 -55.5 21t-67.5 11v73l494 26
l15 -13v-655l8 -2q66 67 146.5 104t159.5 37q207 0 327 -146.5t120 -385.5zM891 483q0 75 -11 143.5t-39 122.5t-72 86t-108 32q-65 0 -104 -22.5t-68 -58.5v-567q6 -20 23 -51.5t34 -50.5q25 -27 57 -40t70 -13q99 0 158.5 106.5t59.5 312.5z" />
    <glyph glyph-name="minus" unicode="&#x2212;" horiz-adv-x="1440" 
d="M1275 493h-1111v163h1111v-163z" />
    <glyph glyph-name="multiply" unicode="&#xd7;" horiz-adv-x="1440" 
d="M1217 192l-115 -115l-383 384l-383 -384l-115 115l385 383l-385 382l115 116l383 -385l383 385l115 -116l-385 -382z" />
    <glyph glyph-name="onesuperior" unicode="&#xb9;" horiz-adv-x="1130" 
d="M905 490h-627v72q22 1 72.5 6.5t68.5 12.5q24 8 36.5 24.5t12.5 48.5v582h-193v84h40q62 0 111 13t84 35q30 19 52.5 41t35.5 40h134q-2 -41 -4.5 -105t-2.5 -121v-561q0 -28 11.5 -46t34.5 -29q18 -8 64 -16t70 -9v-72z" />
    <glyph glyph-name="twosuperior" unicode="&#xb2;" horiz-adv-x="1130" 
d="M1001 490h-824v141q39 41 132 109.5l156 114.5q40 29 84 70.5t64 74.5q28 44 42 82t14 104q0 89 -44.5 141t-120.5 52q-23 0 -45 -3.5t-44 -11.5q10 -28 21.5 -64t11.5 -81q0 -52 -38.5 -83.5t-98.5 -31.5q-56 0 -90.5 38.5t-34.5 93.5q0 91 109 156t262 65
q184 0 292 -73.5t108 -203.5q0 -86 -33 -146t-82 -100t-109.5 -69.5t-107.5 -48.5l-128 -54l-133 -57v-12h637v-203z" />
    <glyph glyph-name="threesuperior" unicode="&#xb3;" horiz-adv-x="1130" 
d="M881 932q43 -28 70 -72.5t27 -111.5q0 -126 -127.5 -211t-324.5 -85q-157 0 -269 64.5t-112 156.5q0 56 33 94t92 38q60 0 98 -31.5t38 -83.5q0 -41 -11.5 -78.5t-21.5 -63.5q22 -8 49 -13t51 -5q42 0 86 11.5t71 34.5q32 27 49 66t17 107q0 92 -40.5 137.5t-137.5 45.5
h-88v93h62q90 0 130.5 49t40.5 153q0 71 -40.5 111.5t-104.5 40.5q-23 0 -48.5 -3.5t-47.5 -11.5q10 -28 21.5 -64t11.5 -81q0 -52 -36 -81.5t-96 -29.5q-56 0 -90.5 37.5t-34.5 92.5q0 92 110.5 155.5t262.5 63.5q105 0 176 -22.5t114 -60.5q40 -34 55.5 -73.5t15.5 -69.5
q0 -32 -10 -67.5t-37 -65.5q-25 -29 -76.5 -57.5t-120.5 -41.5v-11q46 -2 99.5 -16t93.5 -40z" />
    <glyph glyph-name="onehalf" unicode="&#xbd;" horiz-adv-x="2194" 
d="M775 490h-627v72q22 1 72.5 6.5t68.5 12.5q24 8 36.5 24.5t12.5 48.5v582h-193v84h40q62 0 111 13t84 35q30 19 52.5 41t35.5 40h134q-2 -41 -4.5 -105t-2.5 -121v-561q0 -28 11.5 -46t34.5 -29q18 -8 64 -16t70 -9v-72zM2116 0h-824v141q39 41 132 109.5l156 114.5
q40 29 84 70.5t64 74.5q28 44 42 82t14 104q0 89 -44.5 141t-120.5 52q-23 0 -45 -3.5t-44 -11.5q10 -28 21.5 -64t11.5 -81q0 -52 -38.5 -83.5t-98.5 -31.5q-56 0 -90.5 38.5t-34.5 93.5q0 91 109 156t262 65q184 0 292 -73.5t108 -203.5q0 -86 -33 -146t-82 -100
t-109.5 -69.5t-107.5 -48.5l-128 -54l-133 -57v-12h637v-203zM1540 1429l-818 -1429h-156l816 1429h158z" />
    <glyph glyph-name="onequarter" unicode="&#xbc;" horiz-adv-x="2194" 
d="M775 490h-627v72q22 1 72.5 6.5t68.5 12.5q24 8 36.5 24.5t12.5 48.5v582h-193v84h40q62 0 111 13t84 35q30 19 52.5 41t35.5 40h134q-2 -41 -4.5 -105t-2.5 -121v-561q0 -28 11.5 -46t34.5 -29q18 -8 64 -16t70 -9v-72zM2068 226h-155v-246h-233v246h-477v139l502 600
h208v-592h155v-147zM1680 373v421l-354 -421h354zM1580 1429l-818 -1429h-156l816 1429h158z" />
    <glyph glyph-name="threequarters" unicode="&#xbe;" horiz-adv-x="2194" 
d="M851 932q43 -28 70 -72.5t27 -111.5q0 -126 -127.5 -211t-324.5 -85q-157 0 -269 64.5t-112 156.5q0 56 33 94t92 38q60 0 98 -31.5t38 -83.5q0 -41 -11.5 -78.5t-21.5 -63.5q22 -8 49 -13t51 -5q42 0 86 11.5t71 34.5q32 27 49 66t17 107q0 92 -40.5 137.5t-137.5 45.5
h-88v93h62q90 0 130.5 49t40.5 153q0 71 -40.5 111.5t-104.5 40.5q-23 0 -48.5 -3.5t-47.5 -11.5q10 -28 21.5 -64t11.5 -81q0 -52 -36 -81.5t-96 -29.5q-56 0 -90.5 37.5t-34.5 92.5q0 92 110.5 155.5t262.5 63.5q105 0 176 -22.5t114 -60.5q40 -34 55.5 -73.5t15.5 -69.5
q0 -32 -10 -67.5t-37 -65.5q-25 -29 -76.5 -57.5t-120.5 -41.5v-11q46 -2 99.5 -16t93.5 -40zM2113 226h-155v-246h-233v246h-477v139l502 600h208v-592h155v-147zM1725 373v421l-354 -421h354zM1677 1429l-818 -1429h-156l816 1429h158z" />
    <glyph glyph-name="franc" unicode="&#x20a3;" horiz-adv-x="1413" 
d="M1374 1040h-77q-29 85 -103 177.5t-139 101.5q-30 4 -80 7t-92 3h-221v-517h141q61 0 105 13t77 47q27 27 50 79.5t27 86.5h76v-557h-76q-4 45 -31.5 101.5t-45.5 75.5q-30 33 -74.5 47t-107.5 14h-141v-269h284v-105h-284v-136q0 -36 13.5 -61.5t51.5 -41.5
q22 -9 60.5 -16.5t76.5 -11.5v-78h-755v78q29 3 77 8.5t67 13.5q36 14 50 39t14 64v142h-225v105h225v754q0 34 -12.5 59.5t-51.5 42.5q-28 12 -74 22t-70 13v78h1265v-379z" />
    <glyph glyph-name="Gbreve" unicode="&#x11e;" horiz-adv-x="1653" 
d="M1649 577q-31 -3 -55 -7t-60 -16q-41 -13 -54 -43t-13 -63v-165q0 -50 1 -80.5t3 -75.5q-100 -60 -295.5 -113t-359.5 -53q-154 0 -289 47t-237 141q-102 93 -160.5 231t-58.5 316q0 166 55 307t159 243q102 101 248.5 156t324.5 55q121 0 224 -29.5t170 -63.5l62 55h87
l9 -518h-88q-76 233 -182 346t-268 113q-192 0 -296.5 -168t-104.5 -463q0 -313 102.5 -490t290.5 -177q88 0 156.5 26.5t106.5 61.5v288q0 36 -13 60.5t-52 42.5q-30 14 -75 23t-75 13v78h737v-78zM1184 1852q-15 -122 -107.5 -222t-235.5 -100t-235.5 100t-107.5 222
l71 16q10 -33 30 -61t52 -52q34 -26 80.5 -38t109.5 -12t109.5 12t80.5 38q32 24 52 52t30 61z" />
    <glyph glyph-name="gbreve" unicode="&#x11f;" horiz-adv-x="1181" 
d="M1178 880h-220q39 -44 58.5 -93t19.5 -102q0 -69 -37 -129.5t-97 -98.5q-61 -39 -143 -61t-178 -22h-163q-12 -9 -26.5 -28.5t-14.5 -37.5q0 -44 35 -61t127 -19q91 -2 184 -7.5t133 -6.5q58 -3 115 -23.5t99 -53.5q46 -35 76 -89.5t30 -125.5q0 -76 -36.5 -143
t-111.5 -116q-79 -51 -189.5 -79t-273.5 -28q-263 0 -400 64t-137 192q0 79 74 130t230 56v12q-92 31 -143.5 82.5t-51.5 119.5q0 42 20.5 71t52.5 51q28 19 68 32.5t67 21.5v11q-135 50 -198.5 122t-63.5 176q0 147 135.5 235t343.5 88q68 0 131.5 -11.5t96.5 -20.5h388
v-108zM709 689q0 117 -37 185t-114 68q-39 0 -68 -18.5t-47 -53.5q-17 -34 -23 -79.5t-6 -93.5q0 -109 38 -179t108 -70q72 0 110.5 63t38.5 178zM877 -151q0 34 -19 67.5t-85 54.5q-36 6 -118.5 8t-226.5 2q-35 -30 -58.5 -71t-23.5 -99q0 -25 14 -55t44 -56
q35 -29 78 -45.5t130 -16.5q129 0 197 50t68 161zM902 1532q-25 -194 -103.5 -295.5t-226.5 -101.5q-143 0 -225.5 103t-104.5 294l71 16q14 -48 33 -92t46 -75q30 -34 70 -52.5t110 -18.5q59 0 104.5 17t74.5 51q28 32 46.5 75.5t33.5 94.5z" />
    <glyph glyph-name="Idotaccent" unicode="&#x130;" horiz-adv-x="913" 
d="M850 0h-787v78l79.5 6t72.5 12q37 15 50.5 39.5t13.5 62.5v1006q0 34 -13 60t-51 42q-24 10 -71 20.5t-81 14.5v78h787v-78q-30 -3 -75 -8.5t-76 -15.5q-39 -13 -52 -40.5t-13 -62.5v-1005q0 -36 13.5 -61.5t51.5 -41.5q21 -9 69.5 -17.5t81.5 -10.5v-78zM624 1700
q0 -70 -49 -119t-119 -49t-119 49t-49 119t49 119t119 49t119 -49t49 -119z" />
    <glyph glyph-name="Scedilla" unicode="&#x15e;" horiz-adv-x="1329" 
d="M555 -32q-106 12 -180 39.5t-144 62.5l-69 -70h-85l-13 513h86q29 -73 74 -154t104 -145q61 -67 136.5 -109t176.5 -42q136 0 208.5 66.5t72.5 167.5q0 83 -61.5 139.5t-190.5 97.5l-154.5 50t-132.5 47q-143 57 -212.5 163t-69.5 237q0 83 36 159.5t105 137.5
q66 57 169 93t224 36q118 0 221 -32.5t162 -65.5l61 60h87l8 -484h-86q-30 78 -70.5 159.5t-85.5 135.5q-49 58 -113 92.5t-150 34.5q-108 0 -176.5 -61t-68.5 -151q0 -85 59.5 -139t185.5 -95l151 -50t137 -48q145 -56 220.5 -154.5t75.5 -244.5q0 -92 -43 -178t-116 -143
q-80 -63 -185 -97t-245 -34h-23v-58q110 0 179 -37.5t69 -118.5q0 -57 -29 -96t-83 -59q-56 -21 -135.5 -29t-197.5 -8v78q50 0 98 1t78 7q35 7 54 22.5t19 49.5q0 40 -38 52t-100 12v190z" />
    <glyph glyph-name="scedilla" unicode="&#x15f;" horiz-adv-x="1050" 
d="M448 -30q-79 9 -149 34.5t-111 50.5l-30 -68h-78l-13 373h73q15 -45 50 -101.5t80 -101.5q47 -45 107.5 -76t129.5 -31q91 0 135.5 35.5t44.5 109.5q0 40 -20 66t-55 45q-39 20 -85.5 34l-114.5 34t-116.5 40.5t-100.5 64.5q-45 39 -72 94t-27 131q0 141 118.5 228
t310.5 87q91 0 167.5 -18.5t128.5 -40.5l21 59h76l16 -341h-71q-35 104 -120 179.5t-183 75.5q-77 0 -121 -32t-44 -89q0 -76 64.5 -110t180.5 -64q179 -46 262 -125.5t83 -202.5q0 -157 -121.5 -248.5t-329.5 -95.5v-62q110 0 179 -37.5t69 -118.5q0 -57 -29 -96t-83 -59
q-56 -21 -135.5 -29t-197.5 -8v78q50 0 98 1t78 7q35 7 54 22.5t19 49.5q0 40 -38 52t-100 12v192z" />
    <glyph glyph-name="Cacute" unicode="&#x106;" horiz-adv-x="1465" 
d="M813 -38q-156 0 -292 50.5t-237 146.5q-99 94 -156 232.5t-57 304.5q0 165 57.5 305.5t161.5 243.5q102 101 245 156.5t306 55.5q118 0 215 -28.5t164 -64.5l62 55h87l9 -518h-88q-75 237 -180 348t-256 111q-188 0 -286 -165.5t-98 -464.5q0 -169 33.5 -288.5
t87.5 -192.5q58 -76 137 -111.5t175 -35.5q140 0 249.5 76t199.5 230l86 -52q-43 -88 -98 -157.5t-127 -119.5q-79 -55 -174.5 -86t-225.5 -31zM1109 1768q0 -42 -26 -69t-75 -47q-56 -23 -168 -64t-260 -103l-33 41l155 151l110 115q38 40 73 58t74 18q65 0 107.5 -27.5
t42.5 -72.5z" />
    <glyph glyph-name="cacute" unicode="&#x107;" horiz-adv-x="1088" 
d="M629 -32q-139 0 -245.5 40.5t-175.5 110.5q-69 71 -103 168t-34 211q0 104 41.5 198t112.5 165q73 73 181.5 116.5t239.5 43.5q184 0 291 -69.5t107 -187.5q0 -72 -38 -116t-131 -44q-75 0 -125.5 36t-50.5 94q0 49 16 97t19 73q-11 18 -28 27.5t-53 9.5q-45 0 -82 -21
t-69 -74q-31 -50 -49.5 -134t-18.5 -202q0 -178 83.5 -287t199.5 -109q111 0 176.5 49.5t116.5 140.5l75 -52q-31 -61 -74 -111.5t-103 -89.5q-63 -41 -128 -62t-151 -21zM877 1460q0 -45 -20.5 -72.5t-65.5 -56.5q-49 -32 -155 -90.5t-240 -139.5l-42 38q88 117 136 186.5
l83 118.5q43 61 82 82.5t97 21.5q48 0 86.5 -26t38.5 -62z" />
    <glyph glyph-name="Ccaron" unicode="&#x10c;" horiz-adv-x="1465" 
d="M813 -38q-156 0 -292 50.5t-237 146.5q-99 94 -156 232.5t-57 304.5q0 165 57.5 305.5t161.5 243.5q102 101 245 156.5t306 55.5q118 0 215 -28.5t164 -64.5l62 55h87l9 -518h-88q-75 237 -180 348t-256 111q-188 0 -286 -165.5t-98 -464.5q0 -169 33.5 -288.5
t87.5 -192.5q58 -76 137 -111.5t175 -35.5q140 0 249.5 76t199.5 230l86 -52q-43 -88 -98 -157.5t-127 -119.5q-79 -55 -174.5 -86t-225.5 -31zM1193 1839l-150 -184.5t-85 -103.5q-27 -30 -47 -43.5t-86 -13.5q-60 0 -88.5 16t-51.5 45l-72 91l-157 193l33 29l332 -193
l339 193z" />
    <glyph glyph-name="ccaron" unicode="&#x10d;" horiz-adv-x="1088" 
d="M629 -32q-139 0 -245.5 40.5t-175.5 110.5q-69 71 -103 168t-34 211q0 104 41.5 198t112.5 165q73 73 181.5 116.5t239.5 43.5q184 0 291 -69.5t107 -187.5q0 -72 -38 -116t-131 -44q-75 0 -125.5 36t-50.5 94q0 49 16 97t19 73q-11 18 -28 27.5t-53 9.5q-45 0 -82 -21
t-69 -74q-31 -50 -49.5 -134t-18.5 -202q0 -178 83.5 -287t199.5 -109q111 0 176.5 49.5t116.5 140.5l75 -52q-31 -61 -74 -111.5t-103 -89.5q-63 -41 -128 -62t-151 -21zM990 1519l-136 -217t-101 -142q-26 -30 -49 -43.5t-84 -13.5q-60 0 -88.5 16t-51.5 45
q-47 59 -106.5 155l-124.5 200l51 29l316 -254l320 254z" />
    <glyph glyph-name="dcroat" unicode="&#x111;" horiz-adv-x="1358" 
d="M1351 21l-493 -29l-15 14v92l-7 2q-49 -53 -132.5 -92.5t-168.5 -39.5q-202 0 -333 150t-131 388q0 211 146.5 358.5t354.5 147.5q82 0 154 -18.5t115 -43.5v201h-392v99h392v34q0 37 -15 69.5t-40 50.5q-31 22 -77.5 31.5t-93.5 13.5v73l540 26l15 -16v-282h219v-99
h-219v-930q0 -38 12.5 -64t40.5 -41q21 -11 61.5 -16t66.5 -6v-73zM841 199v558q-7 23 -19.5 51t-34.5 53q-19 22 -53 37.5t-76 15.5q-100 0 -164 -109.5t-64 -315.5q0 -81 11.5 -145.5t40.5 -117.5t74.5 -83t109.5 -30q61 0 101 23.5t74 62.5z" />
    <glyph glyph-name="overscore" unicode="&#xaf;" horiz-adv-x="1440" 
d="M1445 1603h-1450v122h1450v-122z" />
    <glyph glyph-name="middot" unicode="&#xb7;" horiz-adv-x="692" 
d="M544 546q0 -79 -58.5 -137t-138.5 -58q-81 0 -139.5 57.5t-58.5 137.5t58.5 138.5t139.5 58.5q80 0 138.5 -59t58.5 -138z" />
    <glyph glyph-name="Abreve" unicode="&#x102;" horiz-adv-x="1553" 
d="M1609 0h-773v78q54 4 127 19.5t73 38.5q0 8 -1.5 18t-8.5 27l-121 294h-490q-17 -41 -37.5 -96l-35.5 -98q-19 -56 -22.5 -81t-3.5 -35q0 -32 48.5 -54.5t161.5 -32.5v-78h-582v78q33 2 74.5 10.5t65.5 23.5q41 24 69.5 59t47.5 83l232.5 563l257.5 622h200l307 -762
l189 -464q13 -30 33 -54.5t57 -46.5q28 -16 65 -24t67 -10v-78zM864 574l-206 514l-203 -514h409zM1123 1852q-15 -122 -107.5 -222t-235.5 -100t-235.5 100t-107.5 222l71 16q10 -33 30 -61t52 -52q34 -26 80.5 -38t109.5 -12t109.5 12t80.5 38q32 24 52 52t30 61z" />
    <glyph glyph-name="abreve" unicode="&#x103;" horiz-adv-x="1220" 
d="M1201 21q-44 -19 -104 -35t-127 -16q-123 0 -181 36.5t-79 104.5h-6q-34 -34 -65.5 -58t-67.5 -41q-47 -22 -90.5 -32.5t-121.5 -10.5q-116 0 -198 68.5t-82 181.5q0 65 18 110.5t51 80.5q30 32 69.5 53t86.5 39q90 33 216 68.5t184 63.5v96q0 25 -4 66t-17 69
q-14 32 -44 54t-79 22q-44 0 -73.5 -12.5t-47.5 -25.5q3 -20 17 -61t14 -79q0 -17 -9 -42.5t-26 -40.5q-23 -20 -51.5 -31t-87.5 -11q-84 0 -127 40.5t-43 105.5q0 56 44.5 100.5t108.5 73.5q63 30 145 46.5t152 16.5q97 0 178 -11.5t146 -47.5q62 -35 98.5 -101.5
t36.5 -173.5q0 -113 -4.5 -268t-4.5 -204q0 -45 13.5 -71t41.5 -39q17 -8 53.5 -9.5t66.5 -1.5v-73zM704 542q-56 -19 -111 -43.5t-90 -51.5q-37 -28 -58 -71.5t-21 -102.5q0 -78 35.5 -113t87.5 -35q55 0 90.5 22.5t62.5 55.5zM913 1532q-25 -194 -103.5 -295.5
t-226.5 -101.5q-143 0 -225.5 103t-104.5 294l71 16q14 -48 33 -92t46 -75q30 -34 70 -52.5t110 -18.5q59 0 104.5 17t74.5 51q28 32 46.5 75.5t33.5 94.5z" />
    <glyph glyph-name="Aogonek" unicode="&#x104;" horiz-adv-x="1553" 
d="M1240 0h-404v78q54 4 127 19.5t73 38.5q0 8 -1.5 18t-8.5 27l-121 294h-490q-17 -41 -37.5 -96l-35.5 -98q-19 -56 -22.5 -81t-3.5 -35q0 -32 48.5 -54.5t161.5 -32.5v-78h-582v78q33 2 74.5 10.5t65.5 23.5q41 24 69.5 59t47.5 83l232.5 563l257.5 622h200l307 -762
l189 -464q13 -30 33 -54.5t57 -46.5q28 -16 65 -24t67 -10v-78h-256q-51 -61 -74.5 -110t-23.5 -105q0 -74 59 -110t168 -37v-82h-140q-158 0 -231.5 47.5t-73.5 142.5q0 74 53 134.5t150 119.5zM864 574l-206 514l-203 -514h409z" />
    <glyph glyph-name="aogonek" unicode="&#x105;" horiz-adv-x="1220" 
d="M709 -254q0 65 41.5 120t125.5 111q-73 12 -111.5 46.5t-54.5 87.5h-6q-34 -34 -65.5 -58t-67.5 -41q-47 -22 -90.5 -32.5t-121.5 -10.5q-116 0 -198 68.5t-82 181.5q0 65 18 110.5t51 80.5q30 32 69.5 53t86.5 39q90 33 216 68.5t184 63.5v96q0 25 -4 66t-17 69
q-14 32 -44 54t-79 22q-44 0 -73.5 -12.5t-47.5 -25.5q3 -20 17 -61t14 -79q0 -17 -9 -42.5t-26 -40.5q-23 -20 -51.5 -31t-87.5 -11q-84 0 -127 40.5t-43 105.5q0 56 44.5 100.5t108.5 73.5q63 30 145 46.5t152 16.5q97 0 178 -11.5t146 -47.5q62 -35 98.5 -101.5
t36.5 -173.5q0 -113 -4.5 -268t-4.5 -204q0 -45 13.5 -71t41.5 -39q17 -8 53.5 -9.5t66.5 -1.5v-73q-38 -16 -89.5 -31t-108.5 -18q-39 -49 -57.5 -94.5t-18.5 -92.5q0 -74 59 -110t168 -37v-82h-140q-158 0 -231.5 47.5t-73.5 142.5zM704 542q-56 -19 -111 -43.5t-90 -51.5
q-37 -28 -58 -71.5t-21 -102.5q0 -78 35.5 -113t87.5 -35q55 0 90.5 22.5t62.5 55.5z" />
    <glyph glyph-name="Dcaron" unicode="&#x10e;" horiz-adv-x="1708" 
d="M1347 1273q130 -85 210 -226.5t80 -346.5q0 -180 -71.5 -313.5t-189.5 -218.5q-120 -85 -272.5 -126.5t-319.5 -41.5h-715v78q32 1 80 6t64 12q36 15 50 40.5t14 61.5v1006q0 34 -13 61.5t-51 44.5t-80.5 23t-65.5 8v78h755q121 0 259 -31t266 -115zM1143 256
q49 80 71.5 190.5t22.5 254.5q0 141 -30 257t-88 198t-144.5 127t-196.5 45q-35 0 -79.5 -1.5t-66.5 -2.5v-1077q0 -36 9.5 -63.5t32.5 -48.5t56.5 -32.5t87.5 -11.5q113 0 194 42t131 123zM1147 1839l-150 -184.5t-85 -103.5q-27 -30 -47 -43.5t-86 -13.5q-60 0 -88.5 16
t-51.5 45l-72 91l-157 193l33 29l332 -193l339 193z" />
    <glyph glyph-name="dcaron" unicode="&#x10f;" horiz-adv-x="1691" 
d="M1351 21l-493 -29l-15 14v92l-7 2q-49 -53 -132.5 -92.5t-168.5 -39.5q-202 0 -333 150t-131 388q0 211 146.5 362t354.5 151q82 0 154 -18.5t115 -43.5v327q0 37 -15 69.5t-40 50.5q-31 22 -77.5 31.5t-93.5 13.5v73l540 26l15 -16v-1311q0 -38 12.5 -64t40.5 -41
q21 -11 61.5 -16t66.5 -6v-73zM841 199v565q-7 23 -19.5 51t-34.5 53q-20 21 -53.5 37t-75.5 16q-100 0 -164 -113t-64 -319q0 -81 11.5 -145.5t40.5 -117.5t74.5 -83t109.5 -30q61 0 101 23.5t74 62.5zM1322 899q113 55 177 128t74 177h-56q-62 0 -101 14t-63 39
q-23 23 -32.5 52.5t-9.5 60.5q0 64 51.5 112t121.5 48q110 0 169 -73t59 -202q0 -120 -101.5 -242t-244.5 -185z" />
    <glyph glyph-name="Dcroat" unicode="&#x110;" horiz-adv-x="1708" 
d="M1347 1273q130 -85 210 -226.5t80 -346.5q0 -180 -71.5 -313.5t-189.5 -218.5q-120 -85 -272.5 -126.5t-319.5 -41.5h-715v78q32 1 80 6t64 12q36 15 50 40.5t14 61.5v488h-195v105h195v413q0 34 -13 61.5t-51 44.5t-80.5 23t-65.5 8v78h755q121 0 259 -31t266 -115z
M1237 701q0 141 -30 257t-88 198t-144.5 127t-196.5 45q-35 0 -80 -1.5t-67 -2.5v-533h305v-105h-305v-439q0 -36 9.5 -63.5t32.5 -47.5q24 -22 57.5 -33.5t87.5 -11.5q113 0 194 42t131 123q49 80 71.5 190.5t22.5 254.5z" />
    <glyph glyph-name="Eogonek" unicode="&#x118;" horiz-adv-x="1477" 
d="M1327 1057h-76q-29 81 -100 164t-141 98q-30 7 -83.5 8.5t-88.5 1.5h-206v-548h146q55 0 100 13t82 50q23 23 46.5 81t30.5 101h76v-592h-76q-6 42 -30.5 105.5t-46.5 87.5q-33 36 -78 49.5t-104 13.5h-146v-409q0 -64 9.5 -101.5t35.5 -57.5q25 -19 68.5 -25t118.5 -6
q35 0 84 1t86 6q42 5 78.5 15t54.5 29q48 49 108 149.5t79 150.5h73l-27 -442h-130q-51 -61 -74.5 -110t-23.5 -105q0 -74 59 -110t168 -37v-82h-140q-158 0 -231.5 47.5t-73.5 142.5q0 74 53 134.5t150 119.5h-1088v78q28 2 76 8t68 14q38 16 51 40.5t13 62.5v1001
q0 36 -11 59.5t-53 42.5q-26 12 -73 22t-71 13v78h1258v-362z" />
    <glyph glyph-name="eogonek" unicode="&#x119;" horiz-adv-x="1171" 
d="M569 -254q0 68 41 121t121 107q-23 -3 -42 -4.5t-46 -1.5q-148 0 -255.5 42t-177.5 113t-104.5 167.5t-34.5 209.5q0 102 37.5 195.5t106.5 166.5q68 71 171.5 115t231.5 44q140 0 230 -34t149 -94q57 -57 83 -134.5t26 -162.5v-65h-676q0 -205 79 -312t251 -107
q94 0 169 51.5t128 130.5l76 -55q-39 -63 -95 -117t-124 -89q-65 -72 -96 -129t-31 -119q0 -74 59 -110t168 -37v-82h-140q-158 0 -231.5 47.5t-73.5 142.5zM751 619q0 60 -6 123t-21 103q-17 47 -46.5 71t-74.5 24q-77 0 -123 -78t-50 -247z" />
    <glyph glyph-name="Ecaron" unicode="&#x11a;" horiz-adv-x="1477" 
d="M1327 1057h-76q-29 81 -100 164t-141 98q-30 7 -83.5 8.5t-88.5 1.5h-206v-548h146q55 0 100 13t82 50q23 23 46.5 81t30.5 101h76v-592h-76q-6 42 -30.5 105.5t-46.5 87.5q-33 36 -78 49.5t-104 13.5h-146v-409q0 -64 9.5 -101.5t35.5 -57.5q25 -19 68.5 -25t118.5 -6
q35 0 84 1t86 6q42 5 78.5 15t54.5 29q48 49 108 149.5t79 150.5h73l-27 -442h-1331v78q28 2 76 8t68 14q38 16 51 40.5t13 62.5v1001q0 36 -11 59.5t-53 42.5q-26 12 -73 22t-71 13v78h1258v-362zM1122 1839l-150 -184.5t-85 -103.5q-27 -30 -47 -43.5t-86 -13.5
q-60 0 -88.5 16t-51.5 45l-72 91l-157 193l33 29l332 -193l339 193z" />
    <glyph glyph-name="ecaron" unicode="&#x11b;" horiz-adv-x="1171" 
d="M1133 239q-35 -57 -84.5 -107.5t-112.5 -86.5q-67 -38 -135.5 -57.5t-157.5 -19.5q-148 0 -255.5 42t-177.5 113t-104.5 167.5t-34.5 209.5q0 102 37.5 195.5t106.5 166.5q68 71 171.5 115t231.5 44q140 0 230 -34t149 -94q57 -57 83 -134.5t26 -162.5v-65h-676
q0 -205 79 -312t251 -107q94 0 169 51.5t128 130.5zM751 619q0 60 -6 123t-21 103q-17 47 -46.5 71t-74.5 24q-77 0 -123 -78t-50 -247zM981 1519l-136 -217t-101 -142q-26 -30 -49 -43.5t-84 -13.5q-60 0 -88.5 16t-51.5 45q-47 59 -106.5 155l-124.5 200l51 29l316 -254
l320 254z" />
    <glyph glyph-name="Lacute" unicode="&#x139;" horiz-adv-x="1404" 
d="M1404 455l-28 -455h-1307v78q35 3 82 9.5t62 12.5q36 14 50 39t14 64v1001q0 36 -11 59.5t-53 42.5q-31 14 -74.5 22.5t-69.5 12.5v78h779v-78q-32 -3 -75.5 -8.5t-75.5 -15.5q-39 -13 -52 -40.5t-13 -62.5v-933q0 -66 9 -104t35 -56q26 -19 72.5 -24.5t128.5 -5.5
q80 0 155.5 9.5t108.5 41.5q51 51 104.5 143.5t85.5 169.5h73zM1003 1768q0 -42 -26 -69t-75 -47q-56 -23 -168 -64t-260 -103l-33 41l155 151l110 115q38 40 73 58t74 18q65 0 107.5 -27.5t42.5 -72.5z" />
    <glyph glyph-name="lacute" unicode="&#x13a;" horiz-adv-x="705" 
d="M667 0h-627v73q26 2 50.5 5t43.5 10q32 12 43.5 34.5t11.5 59.5v979q0 38 -15.5 70.5t-41.5 49.5q-19 13 -60 25t-72 14v73l503 26l15 -16v-1208q0 -37 13 -60t42 -36q20 -9 42 -16t52 -10v-73zM684 1768q0 -42 -26 -69t-75 -47q-56 -23 -168 -64t-260 -103l-33 41
l155 151l110 115q38 40 73 58t74 18q65 0 107.5 -27.5t42.5 -72.5z" />
    <glyph glyph-name="Lcaron" unicode="&#x13d;" horiz-adv-x="1404" 
d="M1404 455l-28 -455h-1307v78q35 3 82 9.5t62 12.5q36 14 50 39t14 64v1001q0 36 -11 59.5t-53 42.5q-31 14 -74.5 22.5t-69.5 12.5v78h779v-78q-32 -3 -75.5 -8.5t-75.5 -15.5q-39 -13 -52 -40.5t-13 -62.5v-933q0 -66 9 -104t35 -56q26 -19 72.5 -24.5t128.5 -5.5
q80 0 155.5 9.5t108.5 41.5q51 51 104.5 143.5t85.5 169.5h73zM957 802q113 55 177 128t74 177h-56q-62 0 -101 14t-63 39q-23 23 -32.5 52.5t-9.5 60.5q0 64 51.5 112t121.5 48q110 0 169 -73t59 -202q0 -120 -101.5 -242t-244.5 -185z" />
    <glyph glyph-name="lcaron" unicode="&#x13e;" horiz-adv-x="1039" 
d="M667 0h-627v73q26 2 50.5 5t43.5 10q32 12 43.5 34.5t11.5 59.5v1108q0 38 -15.5 70.5t-41.5 49.5q-20 13 -60.5 25t-71.5 14v73l503 26l15 -16v-1337q0 -37 13 -60t42 -36q20 -9 42 -16t52 -10v-73zM670 899q113 55 177 128t74 177h-56q-62 0 -101 14t-63 39
q-23 23 -32.5 52.5t-9.5 60.5q0 64 51.5 112t121.5 48q110 0 169 -73t59 -202q0 -120 -101.5 -242t-244.5 -185z" />
    <glyph glyph-name="Ldot" unicode="&#x13f;" horiz-adv-x="1404" 
d="M1404 455l-28 -455h-1307v78q35 3 82 9.5t62 12.5q36 14 50 39t14 64v1001q0 36 -11 59.5t-53 42.5q-31 14 -74.5 22.5t-69.5 12.5v78h779v-78q-32 -3 -75.5 -8.5t-75.5 -15.5q-39 -13 -52 -40.5t-13 -62.5v-933q0 -66 9 -104t35 -56q26 -19 72.5 -24.5t128.5 -5.5
q80 0 155.5 9.5t108.5 41.5q51 51 104.5 143.5t85.5 169.5h73zM1329 767q0 -79 -58.5 -137t-138.5 -58q-81 0 -139.5 57.5t-58.5 137.5t58.5 138.5t139.5 58.5q80 0 138.5 -59t58.5 -138z" />
    <glyph glyph-name="ldot" unicode="&#x140;" horiz-adv-x="1098" 
d="M667 0h-627v73q26 2 50.5 5t43.5 10q32 12 43.5 34.5t11.5 59.5v1108q0 38 -15.5 70.5t-41.5 49.5q-20 13 -60.5 25t-71.5 14v73l503 26l15 -16v-1337q0 -37 13 -60t42 -36q20 -9 42 -16t52 -10v-73zM1100 672q0 -79 -58.5 -137t-138.5 -58q-81 0 -139.5 57.5
t-58.5 137.5t58.5 138.5t139.5 58.5q80 0 138.5 -59t58.5 -138z" />
    <glyph glyph-name="Nacute" unicode="&#x143;" horiz-adv-x="1719" 
d="M1699 1341q-28 -3 -80 -11t-94 -39q-37 -27 -52.5 -92.5t-15.5 -192.5v-1014h-178l-884 1097v-666q0 -124 16.5 -188.5t53.5 -94.5q27 -22 86 -39t94 -23v-78h-610v78q39 3 89.5 14.5t84.5 35.5q39 29 53.5 87.5t14.5 196.5v672q0 50 -15.5 94.5t-48.5 76.5
q-35 34 -80.5 53.5t-103.5 30.5v80h534l776 -960v537q0 128 -17 190.5t-54 92.5q-29 23 -86 39.5t-92 22.5v78h609v-78zM1258 1768q0 -42 -26 -69t-75 -47q-56 -23 -168 -64t-260 -103l-33 41l155 151l110 115q38 40 73 58t74 18q65 0 107.5 -27.5t42.5 -72.5z" />
    <glyph glyph-name="nacute" unicode="&#x144;" horiz-adv-x="1413" 
d="M1378 0h-602v73l46 5t41 10q21 11 30 32t9 62v468q0 102 -37.5 153.5t-110.5 51.5q-40 0 -74.5 -12t-67.5 -35q-29 -20 -46.5 -41t-29.5 -37v-537q0 -35 10 -58.5t33 -35.5q16 -9 40 -16t47 -10v-73h-608v73q25 2 50.5 5.5t43.5 9.5q32 11 44 34t12 60v582q0 31 -16 61
t-42 49q-18 12 -45.5 20t-60.5 11v73l477 26l15 -15v-145h4l68 60t74 57q37 24 97 41t128 17q163 0 244.5 -92.5t81.5 -245.5v-490q0 -37 11 -59t41 -35q16 -7 39.5 -14t53.5 -10v-73zM1011 1460q0 -45 -20.5 -72.5t-65.5 -56.5q-49 -32 -155 -90.5t-240 -139.5l-42 38
q88 117 136 186.5l83 118.5q43 61 82 82.5t97 21.5q48 0 86.5 -26t38.5 -62z" />
    <glyph glyph-name="Ncaron" unicode="&#x147;" horiz-adv-x="1719" 
d="M1699 1341q-28 -3 -80 -11t-94 -39q-37 -27 -52.5 -92.5t-15.5 -192.5v-1014h-178l-884 1097v-666q0 -124 16.5 -188.5t53.5 -94.5q27 -22 86 -39t94 -23v-78h-610v78q39 3 89.5 14.5t84.5 35.5q39 29 53.5 87.5t14.5 196.5v672q0 50 -15.5 94.5t-48.5 76.5
q-35 34 -80.5 53.5t-103.5 30.5v80h534l776 -960v537q0 128 -17 190.5t-54 92.5q-29 23 -86 39.5t-92 22.5v78h609v-78zM1241 1839l-150 -184.5t-85 -103.5q-27 -30 -47 -43.5t-86 -13.5q-60 0 -88.5 16t-51.5 45l-72 91l-157 193l33 29l332 -193l339 193z" />
    <glyph glyph-name="ncaron" unicode="&#x148;" horiz-adv-x="1413" 
d="M1378 0h-602v73l46 5t41 10q21 11 30 32t9 62v468q0 102 -37.5 153.5t-110.5 51.5q-40 0 -74.5 -12t-67.5 -35q-29 -20 -46.5 -41t-29.5 -37v-537q0 -35 10 -58.5t33 -35.5q16 -9 40 -16t47 -10v-73h-608v73q25 2 50.5 5.5t43.5 9.5q32 11 44 34t12 60v582q0 31 -16 61
t-42 49q-18 12 -45.5 20t-60.5 11v73l477 26l15 -15v-145h4l68 60t74 57q37 24 97 41t128 17q163 0 244.5 -92.5t81.5 -245.5v-490q0 -37 11 -59t41 -35q16 -7 39.5 -14t53.5 -10v-73zM1095 1519l-136 -217t-101 -142q-26 -30 -49 -43.5t-84 -13.5q-60 0 -88.5 16t-51.5 45
q-47 59 -106.5 155l-124.5 200l51 29l316 -254l320 254z" />
    <glyph glyph-name="Ohungarumlaut" unicode="&#x150;" horiz-adv-x="1679" 
d="M1380 1261q105 -96 166.5 -232t61.5 -310q0 -155 -52 -295t-150 -241q-103 -105 -242 -163.5t-331 -58.5q-155 0 -293 51t-243 148q-104 95 -165 231t-61 303q0 174 59.5 315.5t163.5 242.5q103 99 244.5 152.5t301.5 53.5q159 0 298.5 -52t241.5 -145zM1123 246
q45 91 65 206t20 260q0 123 -17.5 239.5t-59.5 207.5q-43 91 -114 146t-177 55q-181 0 -275 -171.5t-94 -484.5q0 -133 20.5 -251t64.5 -206q45 -89 114 -138.5t170 -49.5q99 0 170 50t113 137zM1530 1768q0 -42 -26.5 -69t-74.5 -47q-76 -31 -142 -55t-276 -112l-33 41
l150 153.5l105 112.5q38 41 73 58.5t74 17.5q65 0 107.5 -27.5t42.5 -72.5zM994 1768q0 -42 -26.5 -69t-74.5 -47l-141 -56.5l-277 -110.5l-33 41q99 98 153.5 156.5l101.5 109.5q37 41 72.5 58.5t74.5 17.5q65 0 107.5 -27.5t42.5 -72.5z" />
    <glyph glyph-name="ohungarumlaut" unicode="&#x151;" horiz-adv-x="1302" 
d="M1079 874q74 -69 113 -165t39 -208q0 -111 -38.5 -209.5t-112.5 -168.5q-79 -75 -188.5 -115t-250.5 -40q-122 0 -224.5 35t-181.5 105q-76 67 -120 165.5t-44 220.5q0 120 38.5 213.5t115.5 166.5q74 70 182.5 108.5t242.5 38.5q140 0 246.5 -38.5t182.5 -108.5z
M823 181q22 56 32.5 136t10.5 186q0 70 -10 160t-30 142q-24 63 -66.5 99t-107.5 36q-71 0 -113.5 -39t-65.5 -101q-21 -57 -29 -133.5t-8 -159.5q0 -109 7 -180.5t34 -143.5q23 -62 66 -98t109 -36q60 0 103 33.5t68 98.5zM773 1467q0 -40 -32.5 -71.5t-65.5 -57.5
l-108.5 -83.5t-200.5 -160.5l-38 35q73 111 115 183.5l79 137.5q25 46 58.5 72t94.5 26q37 0 67.5 -24.5t30.5 -56.5zM1178 1467q0 -40 -32.5 -71.5t-65.5 -57.5l-108.5 -83.5t-200.5 -160.5l-38 35q73 111 115 183.5l79 137.5q26 46 59 72t94 26q37 0 67.5 -24.5
t30.5 -56.5z" />
    <glyph glyph-name="Racute" unicode="&#x154;" horiz-adv-x="1633" 
d="M1698 0h-544q-141 216 -234.5 344t-232.5 296h-55v-431q0 -36 13.5 -61t51.5 -42q19 -8 59.5 -16.5t69.5 -11.5v-78h-757v78q29 3 76.5 8.5t67.5 13.5q38 16 51 40.5t13 62.5v1001q0 36 -11 60t-53 42q-32 13 -75.5 22t-68.5 13v78h796q267 0 405.5 -83.5t138.5 -252.5
q0 -149 -85.5 -239.5t-260.5 -141.5l158.5 -204l188.5 -237q31 -39 84.5 -95.5t94.5 -69.5q23 -7 58.5 -12t50.5 -6v-78zM1017 1055q0 142 -79.5 207.5t-226.5 65.5h-79v-594h76q147 0 228 77t81 244zM1101 1768q0 -42 -26 -69t-75 -47q-56 -23 -168 -64t-260 -103l-33 41
l155 151l110 115q38 40 73 58t74 18q65 0 107.5 -27.5t42.5 -72.5z" />
    <glyph glyph-name="racute" unicode="&#x155;" horiz-adv-x="1065" 
d="M1054 809q0 -76 -47 -133.5t-124 -57.5q-73 0 -123.5 37t-50.5 109q0 35 5 54.5l9 36.5q-46 -2 -97 -32t-90 -80v-549q0 -35 11 -58t37 -36q22 -11 71.5 -18.5t71.5 -8.5v-73h-669v73q25 2 50.5 5.5t43.5 9.5q32 11 44 34t12 60v582q0 36 -17 64.5t-41 45.5
q-18 12 -45.5 20t-60.5 11v73l477 26l15 -15v-145h4q69 80 146.5 125.5t161.5 45.5q93 0 149.5 -57.5t56.5 -148.5zM850 1460q0 -45 -20.5 -72.5t-65.5 -56.5q-49 -32 -155 -90.5t-240 -139.5l-42 38q88 117 136 186.5l83 118.5q43 61 82 82.5t97 21.5q48 0 86.5 -26
t38.5 -62z" />
    <glyph glyph-name="Rcaron" unicode="&#x158;" horiz-adv-x="1633" 
d="M1698 0h-544q-141 216 -234.5 344t-232.5 296h-55v-431q0 -36 13.5 -61t51.5 -42q19 -8 59.5 -16.5t69.5 -11.5v-78h-757v78q29 3 76.5 8.5t67.5 13.5q38 16 51 40.5t13 62.5v1001q0 36 -11 60t-53 42q-32 13 -75.5 22t-68.5 13v78h796q267 0 405.5 -83.5t138.5 -252.5
q0 -149 -85.5 -239.5t-260.5 -141.5l158.5 -204l188.5 -237q31 -39 84.5 -95.5t94.5 -69.5q23 -7 58.5 -12t50.5 -6v-78zM1017 1055q0 142 -79.5 207.5t-226.5 65.5h-79v-594h76q147 0 228 77t81 244zM1145 1839l-150 -184.5t-85 -103.5q-27 -30 -47 -43.5t-86 -13.5
q-60 0 -88.5 16t-51.5 45l-72 91l-157 193l33 29l332 -193l339 193z" />
    <glyph glyph-name="rcaron" unicode="&#x159;" horiz-adv-x="1065" 
d="M1054 809q0 -76 -47 -133.5t-124 -57.5q-73 0 -123.5 37t-50.5 109q0 35 5 54.5l9 36.5q-46 -2 -97 -32t-90 -80v-549q0 -35 11 -58t37 -36q22 -11 71.5 -18.5t71.5 -8.5v-73h-669v73q25 2 50.5 5.5t43.5 9.5q32 11 44 34t12 60v582q0 36 -17 64.5t-41 45.5
q-18 12 -45.5 20t-60.5 11v73l477 26l15 -15v-145h4q69 80 146.5 125.5t161.5 45.5q93 0 149.5 -57.5t56.5 -148.5zM879 1519l-136 -217t-101 -142q-26 -30 -49 -43.5t-84 -13.5q-60 0 -88.5 16t-51.5 45q-47 59 -106.5 155l-124.5 200l51 29l316 -254l320 254z" />
    <glyph glyph-name="Sacute" unicode="&#x15a;" horiz-adv-x="1329" 
d="M664 -38q-130 0 -242.5 32t-190.5 76l-69 -70h-85l-13 513h86q29 -73 74 -154t104 -145q61 -67 136.5 -109t176.5 -42q136 0 208.5 66.5t72.5 167.5q0 83 -61.5 139.5t-190.5 97.5l-154.5 50t-132.5 47q-143 57 -212.5 163t-69.5 237q0 83 36 159.5t105 137.5
q66 57 169 93t224 36q118 0 221 -32.5t162 -65.5l61 60h87l8 -484h-86q-30 78 -70.5 159.5t-85.5 135.5q-49 58 -113 92.5t-150 34.5q-108 0 -176.5 -61t-68.5 -151q0 -85 59.5 -139t185.5 -95l151 -50t137 -48q145 -56 220.5 -154.5t75.5 -244.5q0 -92 -43 -178t-116 -143
q-80 -63 -185 -97t-245 -34zM993 1768q0 -42 -26 -69t-75 -47q-56 -23 -168 -64t-260 -103l-33 41l155 151l110 115q38 40 73 58t74 18q65 0 107.5 -27.5t42.5 -72.5z" />
    <glyph glyph-name="sacute" unicode="&#x15b;" horiz-adv-x="1050" 
d="M521 -34q-97 0 -189.5 28.5t-143.5 60.5l-30 -68h-78l-13 373h73q15 -45 50 -101.5t80 -101.5q47 -45 107.5 -76t129.5 -31q91 0 135.5 35.5t44.5 109.5q0 40 -20 66t-55 45q-39 20 -85.5 34l-114.5 34t-116.5 40.5t-100.5 64.5q-45 39 -72 94t-27 131q0 141 118.5 228
t310.5 87q91 0 167.5 -18.5t128.5 -40.5l21 59h76l16 -341h-71q-35 104 -120 179.5t-183 75.5q-77 0 -121 -32t-44 -89q0 -76 64.5 -110t180.5 -64q179 -46 262 -125.5t83 -202.5q0 -164 -128.5 -254t-335.5 -90zM847 1460q0 -45 -20.5 -72.5t-65.5 -56.5
q-49 -32 -155 -90.5t-240 -139.5l-42 38q88 117 136 186.5l83 118.5q43 61 82 82.5t97 21.5q48 0 86.5 -26t38.5 -62z" />
    <glyph glyph-name="Tcommaaccent" unicode="&#x162;" horiz-adv-x="1401" 
d="M1388 1013h-77q-31 91 -99.5 195t-126.5 112q-32 4 -79 7t-81 3h-47v-1113q0 -36 13 -63.5t51 -43.5q23 -9 71.5 -18.5t82.5 -13.5v-78h-791v78l81.5 8.5t71.5 13.5q39 16 52 43t13 64v1123h-47q-34 0 -81 -3t-79 -7q-58 -8 -126.5 -112t-99.5 -195h-77v406h1375v-406z
M895 -231q0 -107 -82 -160t-228 -53v64q106 5 149.5 33t51.5 83h-57q-82 0 -114 21t-32 79q0 44 39.5 71t102.5 27q81 0 125.5 -45.5t44.5 -119.5z" />
    <glyph glyph-name="tcommaaccent" unicode="&#x163;" horiz-adv-x="814" 
d="M802 46q-64 -28 -137 -50.5t-178 -22.5q-156 0 -231.5 76t-75.5 217v614h-180v108h184v303h325v-303h280v-108h-278v-548q0 -117 32.5 -166t116.5 -49q27 0 75 4t67 9v-84zM661 -231q0 -107 -82 -160t-228 -53v64q106 5 149.5 33t51.5 83h-57q-82 0 -114 21t-32 79
q0 44 39.5 71t102.5 27q81 0 125.5 -45.5t44.5 -119.5z" />
    <glyph glyph-name="Tcaron" unicode="&#x164;" horiz-adv-x="1401" 
d="M1388 1013h-77q-31 91 -99.5 195t-126.5 112q-32 4 -79 7t-81 3h-47v-1113q0 -36 13 -63.5t51 -43.5q23 -9 71.5 -18.5t82.5 -13.5v-78h-791v78l81.5 8.5t71.5 13.5q39 16 52 43t13 64v1123h-47q-34 0 -81 -3t-79 -7q-58 -8 -126.5 -112t-99.5 -195h-77v406h1375v-406z
M1066 1839l-150 -184.5t-85 -103.5q-27 -30 -47 -43.5t-86 -13.5q-60 0 -88.5 16t-51.5 45l-72 91l-157 193l33 29l332 -193l339 193z" />
    <glyph glyph-name="tcaron" unicode="&#x165;" horiz-adv-x="814" 
d="M802 46q-64 -28 -137 -50.5t-178 -22.5q-156 0 -231.5 76t-75.5 217v614h-180v108h184v303h325v-303h280v-108h-278v-548q0 -117 32.5 -166t116.5 -49q27 0 75 4t67 9v-84zM923 1368q0 -62 -30.5 -112t-72.5 -85q-44 -37 -91.5 -63t-90.5 -42l-38 68q83 37 140 81.5
t65 110.5h-50q-70 0 -107.5 31t-37.5 91q0 40 35.5 75t97.5 35q96 0 138 -51.5t42 -138.5z" />
    <glyph glyph-name="Uring" unicode="&#x16e;" horiz-adv-x="1707" 
d="M1703 1341q-29 -3 -83.5 -13.5t-91.5 -36.5q-38 -25 -53.5 -90t-15.5 -195v-528q0 -233 -158 -375t-418 -142q-303 0 -469 137t-166 382v726q0 35 -13.5 60t-51.5 45q-26 13 -64 21t-62 11v76h744v-76q-32 -2 -65 -7.5t-67 -16.5q-38 -12 -51 -40t-13 -63v-716
q0 -211 93 -307t270 -96q174 0 273 106t99 312v481q0 128 -17.5 191.5t-53.5 91.5q-26 22 -90.5 40t-90.5 22v78h615v-78zM1198 1637q0 -104 -77 -168t-202 -64q-128 0 -203.5 61.5t-75.5 170.5q0 106 80.5 168.5t198.5 62.5q120 0 199.5 -62t79.5 -169zM1051 1636
q0 71 -33.5 116.5t-98.5 45.5q-63 0 -97.5 -43.5t-34.5 -118.5q0 -72 34 -116.5t98 -44.5t98 43.5t34 117.5z" />
    <glyph glyph-name="uring" unicode="&#x16f;" horiz-adv-x="1386" 
d="M1363 21l-477 -29l-15 14v131h-6l-66.5 -60.5t-77.5 -53.5q-51 -27 -96.5 -40t-132.5 -13q-151 0 -231.5 91t-80.5 257v450q0 39 -15 63.5t-40 43.5q-20 15 -52 21.5t-58 8.5v73l485 26l11 -15v-665q0 -103 39.5 -152t108.5 -49q71 0 127.5 37t82.5 79v539q0 34 -13 61
t-38 44q-18 12 -51.5 16t-68.5 6v73l485 26l15 -15v-772q0 -35 14 -59.5t41 -41.5q19 -12 49.5 -16.5t60.5 -5.5v-73zM942 1336q0 -104 -77 -168t-202 -64q-128 0 -203.5 61.5t-75.5 170.5q0 106 80.5 168.5t198.5 62.5q120 0 199.5 -62t79.5 -169zM795 1335
q0 71 -33.5 116.5t-98.5 45.5q-63 0 -97.5 -43.5t-34.5 -118.5q0 -72 34 -116.5t98 -44.5t98 43.5t34 117.5z" />
    <glyph glyph-name="Uhungarumlaut" unicode="&#x170;" horiz-adv-x="1707" 
d="M1703 1341q-29 -3 -83.5 -13.5t-91.5 -36.5q-38 -25 -53.5 -90t-15.5 -195v-528q0 -233 -158 -375t-418 -142q-303 0 -469 137t-166 382v726q0 35 -13.5 60t-51.5 45q-26 13 -64 21t-62 11v76h744v-76q-32 -2 -65 -7.5t-67 -16.5q-38 -12 -51 -40t-13 -63v-716
q0 -211 93 -307t270 -96q174 0 273 106t99 312v481q0 128 -17.5 191.5t-53.5 91.5q-26 22 -90.5 40t-90.5 22v78h615v-78zM1560 1768q0 -42 -26.5 -69t-74.5 -47q-76 -31 -142 -55t-276 -112l-33 41l150 153.5l105 112.5q38 41 73 58.5t74 17.5q65 0 107.5 -27.5t42.5 -72.5
zM1024 1768q0 -42 -26.5 -69t-74.5 -47l-141 -56.5l-277 -110.5l-33 41q99 98 153.5 156.5l101.5 109.5q37 41 72.5 58.5t74.5 17.5q65 0 107.5 -27.5t42.5 -72.5z" />
    <glyph glyph-name="uhungarumlaut" unicode="&#x171;" horiz-adv-x="1386" 
d="M1363 21l-477 -29l-15 14v131h-6l-66.5 -60.5t-77.5 -53.5q-51 -27 -96.5 -40t-132.5 -13q-151 0 -231.5 91t-80.5 257v450q0 39 -15 63.5t-40 43.5q-20 15 -52 21.5t-58 8.5v73l485 26l11 -15v-665q0 -103 39.5 -152t108.5 -49q71 0 127.5 37t82.5 79v539q0 34 -13 61
t-38 44q-18 12 -51.5 16t-68.5 6v73l485 26l15 -15v-772q0 -35 14 -59.5t41 -41.5q19 -12 49.5 -16.5t60.5 -5.5v-73zM817 1467q0 -40 -32.5 -71.5t-65.5 -57.5l-108.5 -83.5t-200.5 -160.5l-38 35q73 111 115 183.5l79 137.5q25 46 58.5 72t94.5 26q37 0 67.5 -24.5
t30.5 -56.5zM1222 1467q0 -40 -32.5 -71.5t-65.5 -57.5l-108.5 -83.5t-200.5 -160.5l-38 35q73 111 115 183.5l79 137.5q26 46 59 72t94 26q37 0 67.5 -24.5t30.5 -56.5z" />
    <glyph glyph-name="Zacute" unicode="&#x179;" horiz-adv-x="1412" 
d="M1397 479l-48 -479h-1332v61l917 1266h-311q-95 0 -137 -5.5t-79 -22.5q-43 -16 -95 -84.5t-139 -228.5h-81l44 433h1234v-61l-917 -1266h357q168 0 228.5 13.5t88.5 48.5q57 69 105.5 151.5t89.5 173.5h75zM1094 1768q0 -42 -26 -69t-75 -47q-56 -23 -168 -64t-260 -103
l-33 41l155 151l110 115q38 40 73 58t74 18q65 0 107.5 -27.5t42.5 -72.5z" />
    <glyph glyph-name="zacute" unicode="&#x17a;" horiz-adv-x="1076" 
d="M1028 0h-984v69l574 832q-119 0 -214 -3t-150 -24q-19 -7 -50.5 -72.5t-49.5 -136.5h-71v327h930v-62l-576 -839q24 0 70 -1t88 -1q49 0 105 2.5t87 6.5q41 5 65.5 28t38.5 55q13 29 34 87.5t32 104.5h71v-373zM877 1460q0 -45 -20.5 -72.5t-65.5 -56.5
q-49 -32 -155 -90.5t-240 -139.5l-42 38q88 117 136 186.5l83 118.5q43 61 82 82.5t97 21.5q48 0 86.5 -26t38.5 -62z" />
    <glyph glyph-name="Zdotaccent" unicode="&#x17b;" horiz-adv-x="1412" 
d="M1397 479l-48 -479h-1332v61l917 1266h-311q-95 0 -137 -5.5t-79 -22.5q-43 -16 -95 -84.5t-139 -228.5h-81l44 433h1234v-61l-917 -1266h357q168 0 228.5 13.5t88.5 48.5q57 69 105.5 151.5t89.5 173.5h75zM910 1681q0 -70 -49 -119t-119 -49t-119 49t-49 119t49 119
t119 49t119 -49t49 -119z" />
    <glyph glyph-name="zdotaccent" unicode="&#x17c;" horiz-adv-x="1076" 
d="M1028 0h-984v69l574 832q-119 0 -214 -3t-150 -24q-19 -7 -50.5 -72.5t-49.5 -136.5h-71v327h930v-62l-576 -839q24 0 70 -1t88 -1q49 0 105 2.5t87 6.5q41 5 65.5 28t38.5 55q13 29 34 87.5t32 104.5h71v-373zM711 1349q0 -70 -49 -119t-119 -49t-119 49t-49 119t49 119
t119 49t119 -49t49 -119z" />
    <glyph glyph-name="Gamma" unicode="&#x393;" horiz-adv-x="1347" 
d="M1334 994h-79q-11 34 -39 90.5t-60 102.5q-37 54 -73 89t-75 42q-36 6 -80 8.5t-93 2.5h-203v-1120q0 -37 16 -62.5t50 -39.5q21 -8 66 -15.5t93 -13.5v-78h-788v78q29 3 77 8.5t67 13.5q36 14 50 39t14 64v1001q0 34 -12.5 59.5t-51.5 42.5q-28 12 -74 22t-70 13v78
h1265v-425z" />
    <glyph glyph-name="Theta" unicode="&#x398;" horiz-adv-x="1685" 
d="M1384 1261q106 -96 168 -233t62 -309q0 -157 -52.5 -296t-151.5 -240q-103 -105 -242.5 -163.5t-331.5 -58.5q-155 0 -293.5 51t-243.5 148q-105 95 -166.5 231t-61.5 303q0 176 60 316.5t164 241.5q104 99 246 152.5t302 53.5q159 0 298.5 -52t242.5 -145zM1137 246
q47 91 67.5 206t20.5 260q0 118 -19 239t-62 208q-45 92 -118.5 146.5t-182.5 54.5q-186 0 -284.5 -172t-98.5 -484q0 -140 20.5 -253.5t67.5 -203.5q47 -89 119 -138.5t176 -49.5q101 0 174.5 49t119.5 138zM1105 461h-66q-8 43 -14.5 60.5t-21.5 40.5q-11 18 -45 24.5
t-116 6.5q-83 0 -115 -6t-45 -25q-17 -25 -23 -44.5t-13 -56.5h-66v495h66q7 -41 14.5 -59t21.5 -40q11 -18 37 -24.5t123 -6.5q89 0 120 6.5t41 24.5q17 27 22.5 40t13.5 59h66v-495z" />
    <glyph glyph-name="Phi" unicode="&#x3a6;" horiz-adv-x="1867" 
d="M491 459q40 -80 106.5 -123t160.5 -43v846h-31q-85 0 -140 -41t-88 -101q-31 -55 -47 -132t-16 -150q0 -52 8 -115t47 -141zM1375 459q34 67 45 138t11 118q0 64 -15.5 144t-47.5 138q-35 64 -88.5 103t-139.5 39h-31v-846q93 0 161.5 44t104.5 122zM1609 342
q-99 -71 -226.5 -106t-274.5 -35v-29q0 -35 11.5 -58t47.5 -37q18 -7 62.5 -12.5t82.5 -6.5v-78h-744v78q24 2 69.5 6.5t63.5 12.5q30 13 44 36t14 59v29q-153 0 -282 36t-223 105q-95 69 -147.5 169t-52.5 228q0 98 37.5 184t124.5 157q82 67 216 108t315 41h12
q0 46 -11.5 68t-46.5 37q-29 13 -67.5 21t-67.5 10v78h735v-78q-29 -1 -67 -5.5t-67 -14.5q-35 -12 -47 -35.5t-12 -80.5h11q184 0 315.5 -40.5t216.5 -108.5q83 -68 122.5 -156t39.5 -185q0 -126 -55 -228t-149 -169z" />
    <glyph glyph-name="alpha" unicode="&#x3b1;" horiz-adv-x="1391" 
d="M1416 22q-47 -17 -124 -34.5t-154 -17.5q-110 0 -178 50.5t-82 156.5l-7 1q-22 -45 -51 -83.5t-73 -66.5q-47 -30 -100.5 -45t-137.5 -15q-89 0 -169 38t-140 108q-59 68 -94 167t-35 215q0 115 37 208t103 166q65 70 153 109.5t187 39.5q139 0 215.5 -45t115.5 -142l8 1
l23 159h344q-7 -71 -34 -214l-60 -308q0 -93 28 -209t88 -153q16 -9 59.5 -11t77.5 -2v-73zM853 525q-5 71 -17 140.5t-38 129.5q-25 58 -64 94.5t-96 36.5q-93 0 -146.5 -108t-53.5 -334q0 -94 10 -162.5t34 -124.5q24 -53 63.5 -82.5t97.5 -29.5q95 0 149.5 123.5
t60.5 316.5z" />
    <glyph glyph-name="delta" unicode="&#x3b4;" horiz-adv-x="1302" 
d="M1230 484q0 -106 -43 -202.5t-118 -164.5q-81 -73 -186.5 -111t-231.5 -38q-131 0 -238 39t-183 108q-75 67 -117 161.5t-42 200.5q0 104 36 186.5t101 145.5q64 61 151.5 98t186.5 50v6q-216 69 -296.5 134.5t-80.5 171.5q0 52 27.5 98.5t94.5 90.5q64 42 168 67t238 25
q218 0 343.5 -65t125.5 -176q0 -77 -43.5 -122t-123.5 -45q-81 0 -124 38.5t-43 98.5q0 43 11.5 82l21.5 74q-20 11 -56.5 21t-78.5 10q-88 0 -146.5 -46.5t-58.5 -122.5q0 -83 80.5 -140.5t262.5 -157.5q104 -57 175 -114.5t111 -117.5q40 -58 58 -127t18 -156zM864 474
q0 164 -53 269t-155 151q-102 -6 -160.5 -116.5t-58.5 -303.5q0 -96 11.5 -172.5t36.5 -133.5t64.5 -88t99.5 -31t102 32.5t66 87.5q26 62 36.5 134t10.5 171z" />
    <glyph glyph-name="epsilon" unicode="&#x3b5;" horiz-adv-x="1097" 
d="M1086 262q-35 -61 -81 -114.5t-109 -93.5q-67 -42 -141 -64t-186 -22q-95 0 -183.5 17t-154.5 54q-65 36 -104 92.5t-39 133.5q0 118 75.5 180.5t191.5 68.5v10q-121 22 -180 78t-59 158q0 67 38 114.5t105 81.5q64 32 150.5 48.5t179.5 16.5q214 0 333.5 -63.5
t119.5 -184.5q0 -68 -41.5 -110.5t-123.5 -42.5q-70 0 -118 34.5t-48 90.5q0 43 12.5 88l20.5 76q-6 10 -31 21t-64 11q-74 0 -123.5 -48.5t-49.5 -127.5q0 -105 40.5 -154.5t159.5 -49.5h56v-100h-81q-100 0 -150 -45t-50 -130q0 -90 63 -139.5t174 -49.5q96 0 183 59.5
t140 157.5z" />
    <glyph glyph-name="sigma" unicode="&#x3c3;" horiz-adv-x="1372" 
d="M1357 823h-265v-5q61 -56 99.5 -138t38.5 -190q0 -102 -39.5 -198t-113.5 -166q-78 -74 -184.5 -116t-253.5 -42q-114 0 -216 36t-181 105t-125 164.5t-46 218.5q0 118 41.5 214.5t117.5 167.5q76 70 185.5 108.5t241.5 38.5q71 0 127.5 -7.5t113.5 -21.5h459v-169z
M814 183q27 66 39 142t12 175q0 82 -10.5 163t-34.5 139q-26 62 -65 97t-101 35q-64 0 -105.5 -38.5t-67.5 -100.5q-23 -57 -34 -132.5t-11 -156.5q0 -92 12.5 -175.5t38.5 -145.5q27 -63 67.5 -99.5t99.5 -36.5q54 0 94 35.5t66 98.5z" />
    <glyph glyph-name="tau" unicode="&#x3c4;" horiz-adv-x="994" 
d="M989 823h-319v-471q0 -67 3.5 -105t20.5 -71q14 -29 43.5 -44t76.5 -15q30 0 73 4.5t59 8.5v-84q-29 -13 -61 -26t-73 -23q-45 -12 -81 -18t-88 -6q-156 0 -228.5 76t-72.5 217v557h-54q-53 0 -88.5 -19t-58.5 -50t-33 -68.5t-15 -74.5h-73q-1 22 -2 59.5t-1 70.5
q0 42 9.5 80t40.5 82q26 37 76 63t120 26h726v-169z" />
    <glyph glyph-name="phi" unicode="&#x3c6;" horiz-adv-x="1686" 
d="M1444 901q77 -61 122 -153t45 -221q0 -130 -51.5 -233t-138.5 -174q-86 -70 -195 -108.5t-223 -42.5v-413h-328v413q-271 12 -435.5 154.5t-164.5 367.5q0 194 121.5 333.5t347.5 189.5l40 -78q-74 -52 -108 -166.5t-34 -278.5q0 -194 65 -312t168 -122v686q0 133 99 205
t283 72q109 0 210.5 -30.5t176.5 -88.5zM1246 535q0 188 -45 295.5t-116 107.5q-39 0 -60.5 -26.5t-21.5 -88.5v-766q114 12 178.5 137.5t64.5 340.5z" />
    <glyph glyph-name="underscoredbl" unicode="&#x2017;" horiz-adv-x="1440" 
d="M1445 -444h-1450v122h1450v-122zM1445 -222h-1450v122h1450v-122z" />
    <glyph glyph-name="exclamdbl" unicode="&#x203c;" horiz-adv-x="1361" 
d="M580 1261q0 -41 -14.5 -108.5t-36.5 -158.5q-21 -86 -48 -214.5t-57 -317.5h-77q-30 191 -57 318t-48 213q-19 79 -35 154.5t-16 113.5q0 77 57 131.5t137 54.5q79 0 137 -54.5t58 -131.5zM578 156q0 -76 -57.5 -130.5t-134.5 -54.5q-78 0 -135.5 54.5t-57.5 130.5
t57.5 131.5t135.5 55.5q77 0 134.5 -55.5t57.5 -131.5zM1169 1261q0 -41 -14.5 -108.5t-36.5 -158.5q-21 -86 -48 -214.5t-57 -317.5h-77q-30 191 -57 318t-48 213q-19 79 -35 154.5t-16 113.5q0 77 57 131.5t137 54.5q79 0 137 -54.5t58 -131.5zM1167 156
q0 -76 -57.5 -130.5t-134.5 -54.5q-78 0 -135.5 54.5t-57.5 130.5t57.5 131.5t135.5 55.5q77 0 134.5 -55.5t57.5 -131.5z" />
    <glyph glyph-name="nsuperior" unicode="&#x207f;" horiz-adv-x="1206" 
d="M1158 633h-497v63q16 2 37.5 4t33.5 8q17 9 24 25.5t7 50.5v367q0 86 -28.5 125.5t-88.5 39.5q-37 0 -64 -12t-48 -28q-20 -16 -34 -35t-22 -29v-419q0 -32 7 -48.5t28 -27.5q13 -7 32 -12.5t38 -8.5v-63h-501v63l42 4t39 8q25 8 36 27.5t11 48.5v459q0 24 -13.5 49
t-34.5 40q-16 10 -40.5 16t-50.5 9v62l394 21l13 -12v-117h3l54.5 48.5t57.5 46.5q31 20 75 33.5t106 13.5q125 0 192.5 -67t67.5 -206v-388q0 -30 9 -48t35 -28q18 -8 37 -12.5t43 -7.5v-63z" />
    <glyph glyph-name="peseta" unicode="&#x20a7;" horiz-adv-x="2777" 
d="M2653 302q0 -162 -114.5 -249t-294.5 -87q-72 0 -148.5 23t-138.5 64l-27 -66h-69l-2 50q-58 -26 -112 -45t-124 -19q-132 0 -196 68t-64 218v595h-163q-65 -129 -210 -186t-343 -57h-52v-399q0 -36 13.5 -62.5t48.5 -42.5q19 -8 62 -17t70 -12v-78h-720v78l71.5 8.5
t63.5 13.5q36 16 48 39t12 64v1001q0 35 -11.5 60.5t-48.5 42.5q-24 11 -69.5 21t-65.5 13v78h675q258 0 379 -89t121 -269q0 -26 -2 -52.5t-6 -45.5h131v295h292v-295h210v-109h-209v-511q0 -66 2 -103t15 -69q12 -30 35.5 -44t69.5 -14q11 0 31 1t43 3l-7 233h70
q15 -50 40.5 -100t68.5 -98q40 -45 92 -74.5t113 -29.5q81 0 117.5 34.5t36.5 106.5q0 38 -15.5 64t-47.5 47q-28 19 -80 37.5l-95 32.5q-56 18 -102.5 39t-88.5 60q-39 36 -62.5 89.5t-23.5 127.5q0 137 104.5 222t271.5 85q84 0 148.5 -18t109.5 -40l21 58h67l14 -333h-69
q-31 102 -101.5 175.5t-158.5 73.5q-66 0 -103.5 -31.5t-37.5 -86.5q0 -76 54.5 -112t177.5 -73q62 -19 116 -46t90 -60q38 -36 57.5 -85t19.5 -113zM825 789q36 42 51.5 97.5t15.5 126.5q0 77 -13.5 137.5t-43.5 98.5q-31 40 -82 59.5t-127 19.5h-31v-623q80 0 138 22
t92 62z" />
    <glyph glyph-name="IJ" unicode="&#x132;" horiz-adv-x="2040" 
d="M850 0h-787v78l79.5 6t72.5 12q37 15 50.5 39.5t13.5 62.5v1006q0 34 -13 60t-51 42q-24 10 -71 20.5t-81 14.5v78h787v-78q-30 -3 -75 -8.5t-76 -15.5q-39 -13 -52 -40.5t-13 -62.5v-1005q0 -36 13.5 -61.5t51.5 -41.5q21 -9 69.5 -17.5t81.5 -10.5v-78zM1987 1341
q-40 -5 -68 -10t-63 -14q-41 -11 -52.5 -39t-11.5 -64v-782q0 -114 -39.5 -198t-121.5 -151q-76 -61 -163.5 -91t-195.5 -30q-187 0 -300.5 90t-113.5 247q0 93 52.5 154t144.5 61q87 0 138.5 -51t51.5 -126q0 -64 -44.5 -118.5t-101.5 -100.5v-13q9 -20 38 -34t60 -14
q116 0 177.5 86t61.5 260v801q0 36 -11 60t-53 42q-30 13 -72.5 22t-70.5 13v78h758v-78z" />
    <glyph glyph-name="ij" unicode="&#x133;" horiz-adv-x="1386" 
d="M690 0h-632v73q26 2 51 5t43 10q32 12 45 34.5t13 59.5v582q0 35 -16 61.5t-40 42.5q-18 12 -54.5 23t-66.5 14v73l490 26l15 -15v-794q0 -35 15 -59.5t43 -36.5q20 -9 44 -16t50 -10v-73zM544 1364q0 -76 -58.5 -129.5t-138.5 -53.5q-81 0 -139.5 53.5t-58.5 129.5
t58.5 130t139.5 54t139 -54t58 -130zM1228 118q0 -103 -35 -208t-100 -180q-71 -82 -172 -128t-231 -46q-121 0 -186.5 46.5t-65.5 125.5q0 28 6.5 52t27.5 50q16 22 49.5 37.5t75.5 15.5q83 0 128 -59.5t92 -178.5q41 23 60.5 98t19.5 326v691q0 35 -15 61.5t-41 44.5
q-19 13 -60.5 24.5t-73.5 14.5v73l506 26l15 -15v-871zM1232 1364q0 -76 -58.5 -129.5t-138.5 -53.5q-81 0 -139.5 53.5t-58.5 129.5t58.5 130t139.5 54t139 -54t58 -130z" />
    <glyph glyph-name="napostrophe" unicode="&#x149;" horiz-adv-x="1694" 
d="M1659 0h-602v73l46 5t41 10q21 11 30 32t9 62v468q0 102 -37.5 153.5t-110.5 51.5q-40 0 -74.5 -12t-67.5 -35q-29 -20 -46.5 -41t-29.5 -37v-537q0 -35 10 -58.5t33 -35.5q16 -9 40 -16t47 -10v-73h-608v73q25 2 50.5 5.5t43.5 9.5q32 11 44 34t12 60v582q0 31 -16 61
t-42 49q-18 12 -45.5 20t-60.5 11v73l477 26l15 -15v-145h4l68 60t74 57q37 24 97 41t128 17q163 0 244.5 -92.5t81.5 -245.5v-490q0 -37 11 -59t41 -35q16 -7 39.5 -14t53.5 -10v-73zM-34 899q113 55 177 128t74 177h-56q-62 0 -101 14t-63 39q-23 23 -32.5 52.5t-9.5 60.5
q0 64 51.5 112t121.5 48q110 0 169 -73t59 -202q0 -120 -101.5 -242t-244.5 -185z" />
    <glyph glyph-name="minute" unicode="&#x2032;" horiz-adv-x="658" 
d="M601 1338q0 -29 -11 -61t-32 -61l-111.5 -153l-189.5 -262h-92l57.5 291.5l41.5 200.5q19 88 68.5 125.5t132.5 37.5q57 0 96.5 -35.5t39.5 -82.5z" />
    <glyph glyph-name="second" unicode="&#x2033;" horiz-adv-x="1091" 
d="M1048 1338q0 -27 -11.5 -58.5t-36.5 -63.5l-114 -149l-201 -266h-92l67.5 292.5t48.5 199.5q22 88 72 125.5t135 37.5q57 0 94.5 -35.5t37.5 -82.5zM596 1338q0 -29 -11 -61t-32 -61l-111.5 -153l-189.5 -262h-92l57.5 291.5l41.5 200.5q19 88 68.5 125.5t132.5 37.5
q57 0 96.5 -35.5t39.5 -82.5z" />
    <glyph glyph-name="afii61248" unicode="&#x2105;" horiz-adv-x="1801" 
d="M829 913q-47 -92 -135.5 -147.5t-197.5 -55.5q-192 0 -298.5 100.5t-106.5 276.5q0 152 115.5 262t303.5 110q128 0 208 -53t80 -139q0 -53 -30 -84.5t-95 -31.5q-52 0 -90.5 26.5t-38.5 68.5q0 35 11.5 69t13.5 52q-9 14 -17.5 19t-36.5 5q-35 0 -60 -12t-51 -50
q-22 -33 -35.5 -91.5t-13.5 -141.5q0 -127 59 -199t147 -72q69 0 118.5 33t92.5 104zM1710 339q0 -167 -112.5 -270.5t-276.5 -103.5q-166 0 -278 103.5t-112 270.5t112 270.5t277 103.5t277.5 -103.5t112.5 -270.5zM1445 337q0 138 -27 220.5t-99 82.5q-65 0 -94 -77.5
t-29 -215.5q0 -144 26.5 -226.5t100.5 -82.5q64 0 93 77.5t29 221.5zM1574 1428l-1183 -1428h-163l1180 1428h166z" />
    <glyph glyph-name="afii61289" unicode="&#x2113;" horiz-adv-x="662" 
d="M609 1255q0 -139 -64 -273t-224 -282v-488q0 -85 27 -109.5t58 -24.5q41 0 75.5 16t77.5 60l36 -55q-61 -65 -124 -95t-134 -30q-90 0 -146 60.5t-56 165.5v339l-64 -57l-71 77l135 119v558q0 151 76.5 231.5t186.5 80.5q103 0 157 -77.5t54 -215.5zM497 1242
q0 107 -26 154.5t-63 47.5q-35 0 -61 -40.5t-26 -126.5v-436q90 92 133 188.5t43 212.5z" />
    <glyph glyph-name="H22073" unicode="&#x25a1;" horiz-adv-x="1237" 
d="M146 944h944v-944h-944v944zM222 868v-792h792v792h-792z" />
    <glyph glyph-name="H18543" unicode="&#x25aa;" horiz-adv-x="726" 
d="M594 908v-463h-463v463h463z" />
    <glyph glyph-name="H18551" unicode="&#x25ab;" horiz-adv-x="726" 
d="M594 908v-463h-463v463h463zM518 832h-311v-311h311v311z" />
    <glyph glyph-name="H18533" unicode="&#x25cf;" horiz-adv-x="1237" 
d="M177 576q0 183 129 312t312 129q182 0 311 -129t129 -312q0 -182 -129 -311t-311 -129q-183 0 -312 129t-129 311z" />
    <glyph glyph-name="openbullet" unicode="&#x25e6;" horiz-adv-x="726" 
d="M363 928q104 0 177.5 -73.5t73.5 -177.5t-73.5 -177.5t-177.5 -73.5t-177.5 73.5t-73.5 177.5t73 177.5t178 73.5zM363 852q-73 0 -124 -51.5t-51 -123.5q0 -73 51.5 -124t123.5 -51t123.5 51t51.5 124q0 72 -51 123.5t-124 51.5z" />
    <glyph glyph-name="Amacron" unicode="&#x100;" horiz-adv-x="1553" 
d="M1609 0h-773v78q54 4 127 19.5t73 38.5q0 8 -1.5 18t-8.5 27l-121 294h-490q-17 -41 -37.5 -96l-35.5 -98q-19 -56 -22.5 -81t-3.5 -35q0 -32 48.5 -54.5t161.5 -32.5v-78h-582v78q33 2 74.5 10.5t65.5 23.5q41 24 69.5 59t47.5 83l232.5 563l257.5 622h200l307 -762
l189 -464q13 -30 33 -54.5t57 -46.5q28 -16 65 -24t67 -10v-78zM864 574l-206 514l-203 -514h409zM1154 1645h-748v173h748v-173z" />
    <glyph glyph-name="amacron" unicode="&#x101;" horiz-adv-x="1220" 
d="M1201 21q-44 -19 -104 -35t-127 -16q-123 0 -181 36.5t-79 104.5h-6q-34 -34 -65.5 -58t-67.5 -41q-47 -22 -90.5 -32.5t-121.5 -10.5q-116 0 -198 68.5t-82 181.5q0 65 18 110.5t51 80.5q30 32 69.5 53t86.5 39q90 33 216 68.5t184 63.5v96q0 25 -4 66t-17 69
q-14 32 -44 54t-79 22q-44 0 -73.5 -12.5t-47.5 -25.5q3 -20 17 -61t14 -79q0 -17 -9 -42.5t-26 -40.5q-23 -20 -51.5 -31t-87.5 -11q-84 0 -127 40.5t-43 105.5q0 56 44.5 100.5t108.5 73.5q63 30 145 46.5t152 16.5q97 0 178 -11.5t146 -47.5q62 -35 98.5 -101.5
t36.5 -173.5q0 -113 -4.5 -268t-4.5 -204q0 -45 13.5 -71t41.5 -39q17 -8 53.5 -9.5t66.5 -1.5v-73zM704 542q-56 -19 -111 -43.5t-90 -51.5q-37 -28 -58 -71.5t-21 -102.5q0 -78 35.5 -113t87.5 -35q55 0 90.5 22.5t62.5 55.5zM975 1246h-748v173h748v-173z" />
    <glyph glyph-name="Ccircumflex" unicode="&#x108;" horiz-adv-x="1465" 
d="M813 -38q-156 0 -292 50.5t-237 146.5q-99 94 -156 232.5t-57 304.5q0 165 57.5 305.5t161.5 243.5q102 101 245 156.5t306 55.5q118 0 215 -28.5t164 -64.5l62 55h87l9 -518h-88q-75 237 -180 348t-256 111q-188 0 -286 -165.5t-98 -464.5q0 -169 33.5 -288.5
t87.5 -192.5q58 -76 137 -111.5t175 -35.5q140 0 249.5 76t199.5 230l86 -52q-43 -88 -98 -157.5t-127 -119.5q-79 -55 -174.5 -86t-225.5 -31zM1206 1513l-33 -29l-351 203l-344 -203l-33 29l155.5 189t85.5 105q23 30 54.5 45.5t85.5 15.5q55 0 81.5 -14t51.5 -43
l82.5 -98z" />
    <glyph glyph-name="ccircumflex" unicode="&#x109;" horiz-adv-x="1088" 
d="M629 -32q-139 0 -245.5 40.5t-175.5 110.5q-69 71 -103 168t-34 211q0 104 41.5 198t112.5 165q73 73 181.5 116.5t239.5 43.5q184 0 291 -69.5t107 -187.5q0 -72 -38 -116t-131 -44q-75 0 -125.5 36t-50.5 94q0 49 16 97t19 73q-11 18 -28 27.5t-53 9.5q-45 0 -82 -21
t-69 -74q-31 -50 -49.5 -134t-18.5 -202q0 -178 83.5 -287t199.5 -109q111 0 176.5 49.5t116.5 140.5l75 -52q-31 -61 -74 -111.5t-103 -89.5q-63 -41 -128 -62t-151 -21zM989 1132l-54 -29l-320 254l-316 -254l-51 29l139 224t92 131q23 31 54.5 46t85.5 15q55 0 82 -14
t51 -43q47 -57 100.5 -141z" />
    <glyph glyph-name="Cdotaccent" unicode="&#x10a;" horiz-adv-x="1465" 
d="M813 -38q-156 0 -292 50.5t-237 146.5q-99 94 -156 232.5t-57 304.5q0 165 57.5 305.5t161.5 243.5q102 101 245 156.5t306 55.5q118 0 215 -28.5t164 -64.5l62 55h87l9 -518h-88q-75 237 -180 348t-256 111q-188 0 -286 -165.5t-98 -464.5q0 -169 33.5 -288.5
t87.5 -192.5q58 -76 137 -111.5t175 -35.5q140 0 249.5 76t199.5 230l86 -52q-43 -88 -98 -157.5t-127 -119.5q-79 -55 -174.5 -86t-225.5 -31zM1001 1681q0 -70 -49 -119t-119 -49t-119 49t-49 119t49 119t119 49t119 -49t49 -119z" />
    <glyph glyph-name="cdotaccent" unicode="&#x10b;" horiz-adv-x="1088" 
d="M629 -32q-139 0 -245.5 40.5t-175.5 110.5q-69 71 -103 168t-34 211q0 104 41.5 198t112.5 165q73 73 181.5 116.5t239.5 43.5q184 0 291 -69.5t107 -187.5q0 -72 -38 -116t-131 -44q-75 0 -125.5 36t-50.5 94q0 49 16 97t19 73q-11 18 -28 27.5t-53 9.5q-45 0 -82 -21
t-69 -74q-31 -50 -49.5 -134t-18.5 -202q0 -178 83.5 -287t199.5 -109q111 0 176.5 49.5t116.5 140.5l75 -52q-31 -61 -74 -111.5t-103 -89.5q-63 -41 -128 -62t-151 -21zM789 1349q0 -70 -49 -119t-119 -49t-119 49t-49 119t49 119t119 49t119 -49t49 -119z" />
    <glyph glyph-name="Emacron" unicode="&#x112;" horiz-adv-x="1477" 
d="M1327 1057h-76q-29 81 -100 164t-141 98q-30 7 -83.5 8.5t-88.5 1.5h-206v-548h146q55 0 100 13t82 50q23 23 46.5 81t30.5 101h76v-592h-76q-6 42 -30.5 105.5t-46.5 87.5q-33 36 -78 49.5t-104 13.5h-146v-409q0 -64 9.5 -101.5t35.5 -57.5q25 -19 68.5 -25t118.5 -6
q35 0 84 1t86 6q42 5 78.5 15t54.5 29q48 49 108 149.5t79 150.5h73l-27 -442h-1331v78q28 2 76 8t68 14q38 16 51 40.5t13 62.5v1001q0 36 -11 59.5t-53 42.5q-26 12 -73 22t-71 13v78h1258v-362zM1141 1657h-748v173h748v-173z" />
    <glyph glyph-name="emacron" unicode="&#x113;" horiz-adv-x="1171" 
d="M1133 239q-35 -57 -84.5 -107.5t-112.5 -86.5q-67 -38 -135.5 -57.5t-157.5 -19.5q-148 0 -255.5 42t-177.5 113t-104.5 167.5t-34.5 209.5q0 102 37.5 195.5t106.5 166.5q68 71 171.5 115t231.5 44q140 0 230 -34t149 -94q57 -57 83 -134.5t26 -162.5v-65h-676
q0 -205 79 -312t251 -107q94 0 169 51.5t128 130.5zM751 619q0 60 -6 123t-21 103q-17 47 -46.5 71t-74.5 24q-77 0 -123 -78t-50 -247zM978 1246h-748v173h748v-173z" />
    <glyph glyph-name="Ebreve" unicode="&#x114;" horiz-adv-x="1477" 
d="M1327 1057h-76q-29 81 -100 164t-141 98q-30 7 -83.5 8.5t-88.5 1.5h-206v-548h146q55 0 100 13t82 50q23 23 46.5 81t30.5 101h76v-592h-76q-6 42 -30.5 105.5t-46.5 87.5q-33 36 -78 49.5t-104 13.5h-146v-409q0 -64 9.5 -101.5t35.5 -57.5q25 -19 68.5 -25t118.5 -6
q35 0 84 1t86 6q42 5 78.5 15t54.5 29q48 49 108 149.5t79 150.5h73l-27 -442h-1331v78q28 2 76 8t68 14q38 16 51 40.5t13 62.5v1001q0 36 -11 59.5t-53 42.5q-26 12 -73 22t-71 13v78h1258v-362zM1124 1852q-15 -122 -107.5 -222t-235.5 -100t-235.5 100t-107.5 222l71 16
q10 -33 30 -61t52 -52q34 -26 80.5 -38t109.5 -12t109.5 12t80.5 38q32 24 52 52t30 61z" />
    <glyph glyph-name="ebreve" unicode="&#x115;" horiz-adv-x="1171" 
d="M1133 239q-35 -57 -84.5 -107.5t-112.5 -86.5q-67 -38 -135.5 -57.5t-157.5 -19.5q-148 0 -255.5 42t-177.5 113t-104.5 167.5t-34.5 209.5q0 102 37.5 195.5t106.5 166.5q68 71 171.5 115t231.5 44q140 0 230 -34t149 -94q57 -57 83 -134.5t26 -162.5v-65h-676
q0 -205 79 -312t251 -107q94 0 169 51.5t128 130.5zM751 619q0 60 -6 123t-21 103q-17 47 -46.5 71t-74.5 24q-77 0 -123 -78t-50 -247zM941 1532q-25 -194 -103.5 -295.5t-226.5 -101.5q-143 0 -225.5 103t-104.5 294l71 16q14 -48 33 -92t46 -75q30 -34 70 -52.5
t110 -18.5q59 0 104.5 17t74.5 51q28 32 46.5 75.5t33.5 94.5z" />
    <glyph glyph-name="Edotaccent" unicode="&#x116;" horiz-adv-x="1477" 
d="M1327 1057h-76q-29 81 -100 164t-141 98q-30 7 -83.5 8.5t-88.5 1.5h-206v-548h146q55 0 100 13t82 50q23 23 46.5 81t30.5 101h76v-592h-76q-6 42 -30.5 105.5t-46.5 87.5q-33 36 -78 49.5t-104 13.5h-146v-409q0 -64 9.5 -101.5t35.5 -57.5q25 -19 68.5 -25t118.5 -6
q35 0 84 1t86 6q42 5 78.5 15t54.5 29q48 49 108 149.5t79 150.5h73l-27 -442h-1331v78q28 2 76 8t68 14q38 16 51 40.5t13 62.5v1001q0 36 -11 59.5t-53 42.5q-26 12 -73 22t-71 13v78h1258v-362zM944 1681q0 -70 -49 -119t-119 -49t-119 49t-49 119t49 119t119 49t119 -49
t49 -119z" />
    <glyph glyph-name="edotaccent" unicode="&#x117;" horiz-adv-x="1171" 
d="M1133 239q-35 -57 -84.5 -107.5t-112.5 -86.5q-67 -38 -135.5 -57.5t-157.5 -19.5q-148 0 -255.5 42t-177.5 113t-104.5 167.5t-34.5 209.5q0 102 37.5 195.5t106.5 166.5q68 71 171.5 115t231.5 44q140 0 230 -34t149 -94q57 -57 83 -134.5t26 -162.5v-65h-676
q0 -205 79 -312t251 -107q94 0 169 51.5t128 130.5zM751 619q0 60 -6 123t-21 103q-17 47 -46.5 71t-74.5 24q-77 0 -123 -78t-50 -247zM772 1349q0 -70 -49 -119t-119 -49t-119 49t-49 119t49 119t119 49t119 -49t49 -119z" />
    <glyph glyph-name="Gcircumflex" unicode="&#x11c;" horiz-adv-x="1653" 
d="M1649 577q-31 -3 -55 -7t-60 -16q-41 -13 -54 -43t-13 -63v-165q0 -50 1 -80.5t3 -75.5q-100 -60 -295.5 -113t-359.5 -53q-154 0 -289 47t-237 141q-102 93 -160.5 231t-58.5 316q0 166 55 307t159 243q102 101 248.5 156t324.5 55q121 0 224 -29.5t170 -63.5l62 55h87
l9 -518h-88q-76 233 -182 346t-268 113q-192 0 -296.5 -168t-104.5 -463q0 -313 102.5 -490t290.5 -177q88 0 156.5 26.5t106.5 61.5v288q0 36 -13 60.5t-52 42.5q-30 14 -75 23t-75 13v78h737v-78zM1216 1513l-33 -29l-351 203l-344 -203l-33 29l155.5 189t85.5 105
q23 30 54.5 45.5t85.5 15.5q55 0 81.5 -14t51.5 -43l82.5 -98z" />
    <glyph glyph-name="gcircumflex" unicode="&#x11d;" horiz-adv-x="1181" 
d="M1178 880h-220q39 -44 58.5 -93t19.5 -102q0 -69 -37 -129.5t-97 -98.5q-61 -39 -143 -61t-178 -22h-163q-12 -9 -26.5 -28.5t-14.5 -37.5q0 -44 35 -61t127 -19q91 -2 184 -7.5t133 -6.5q58 -3 115 -23.5t99 -53.5q46 -35 76 -89.5t30 -125.5q0 -76 -36.5 -143
t-111.5 -116q-79 -51 -189.5 -79t-273.5 -28q-263 0 -400 64t-137 192q0 79 74 130t230 56v12q-92 31 -143.5 82.5t-51.5 119.5q0 42 20.5 71t52.5 51q28 19 68 32.5t67 21.5v11q-135 50 -198.5 122t-63.5 176q0 147 135.5 235t343.5 88q68 0 131.5 -11.5t96.5 -20.5h388
v-108zM709 689q0 117 -37 185t-114 68q-39 0 -68 -18.5t-47 -53.5q-17 -34 -23 -79.5t-6 -93.5q0 -109 38 -179t108 -70q72 0 110.5 63t38.5 178zM877 -151q0 34 -19 67.5t-85 54.5q-36 6 -118.5 8t-226.5 2q-35 -30 -58.5 -71t-23.5 -99q0 -25 14 -55t44 -56
q35 -29 78 -45.5t130 -16.5q129 0 197 50t68 161zM936 1132l-54 -29l-320 254l-316 -254l-51 29l139 224t92 131q23 31 54.5 46t85.5 15q55 0 82 -14t51 -43q47 -57 100.5 -141z" />
    <glyph glyph-name="Gdotaccent" unicode="&#x120;" horiz-adv-x="1653" 
d="M1649 577q-31 -3 -55 -7t-60 -16q-41 -13 -54 -43t-13 -63v-165q0 -50 1 -80.5t3 -75.5q-100 -60 -295.5 -113t-359.5 -53q-154 0 -289 47t-237 141q-102 93 -160.5 231t-58.5 316q0 166 55 307t159 243q102 101 248.5 156t324.5 55q121 0 224 -29.5t170 -63.5l62 55h87
l9 -518h-88q-76 233 -182 346t-268 113q-192 0 -296.5 -168t-104.5 -463q0 -313 102.5 -490t290.5 -177q88 0 156.5 26.5t106.5 61.5v288q0 36 -13 60.5t-52 42.5q-30 14 -75 23t-75 13v78h737v-78zM1017 1681q0 -70 -49 -119t-119 -49t-119 49t-49 119t49 119t119 49
t119 -49t49 -119z" />
    <glyph glyph-name="gdotaccent" unicode="&#x121;" horiz-adv-x="1181" 
d="M1178 880h-220q39 -44 58.5 -93t19.5 -102q0 -69 -37 -129.5t-97 -98.5q-61 -39 -143 -61t-178 -22h-163q-12 -9 -26.5 -28.5t-14.5 -37.5q0 -44 35 -61t127 -19q91 -2 184 -7.5t133 -6.5q58 -3 115 -23.5t99 -53.5q46 -35 76 -89.5t30 -125.5q0 -76 -36.5 -143
t-111.5 -116q-79 -51 -189.5 -79t-273.5 -28q-263 0 -400 64t-137 192q0 79 74 130t230 56v12q-92 31 -143.5 82.5t-51.5 119.5q0 42 20.5 71t52.5 51q28 19 68 32.5t67 21.5v11q-135 50 -198.5 122t-63.5 176q0 147 135.5 235t343.5 88q68 0 131.5 -11.5t96.5 -20.5h388
v-108zM709 689q0 117 -37 185t-114 68q-39 0 -68 -18.5t-47 -53.5q-17 -34 -23 -79.5t-6 -93.5q0 -109 38 -179t108 -70q72 0 110.5 63t38.5 178zM877 -151q0 34 -19 67.5t-85 54.5q-36 6 -118.5 8t-226.5 2q-35 -30 -58.5 -71t-23.5 -99q0 -25 14 -55t44 -56
q35 -29 78 -45.5t130 -16.5q129 0 197 50t68 161zM751 1349q0 -70 -49 -119t-119 -49t-119 49t-49 119t49 119t119 49t119 -49t49 -119z" />
    <glyph glyph-name="Gcommaaccent" unicode="&#x122;" horiz-adv-x="1653" 
d="M1649 577q-31 -3 -55 -7t-60 -16q-41 -13 -54 -43t-13 -63v-165q0 -50 1 -80.5t3 -75.5q-100 -60 -295.5 -113t-359.5 -53q-154 0 -289 47t-237 141q-102 93 -160.5 231t-58.5 316q0 166 55 307t159 243q102 101 248.5 156t324.5 55q121 0 224 -29.5t170 -63.5l62 55h87
l9 -518h-88q-76 233 -182 346t-268 113q-192 0 -296.5 -168t-104.5 -463q0 -313 102.5 -490t290.5 -177q88 0 156.5 26.5t106.5 61.5v288q0 36 -13 60.5t-52 42.5q-30 14 -75 23t-75 13v78h737v-78zM1032 -231q0 -107 -82 -160t-228 -53v64q106 5 149.5 33t51.5 83h-57
q-82 0 -114 21t-32 79q0 44 39.5 71t102.5 27q81 0 125.5 -45.5t44.5 -119.5z" />
    <glyph glyph-name="gcommaaccent" unicode="&#x123;" horiz-adv-x="1181" 
d="M1178 880h-220q39 -44 58.5 -93t19.5 -102q0 -69 -37 -129.5t-97 -98.5q-61 -39 -143 -61t-178 -22h-163q-12 -9 -26.5 -28.5t-14.5 -37.5q0 -44 35 -61t127 -19q91 -2 184 -7.5t133 -6.5q58 -3 115 -23.5t99 -53.5q46 -35 76 -89.5t30 -125.5q0 -76 -36.5 -143
t-111.5 -116q-79 -51 -189.5 -79t-273.5 -28q-263 0 -400 64t-137 192q0 79 74 130t230 56v12q-92 31 -143.5 82.5t-51.5 119.5q0 42 20.5 71t52.5 51q28 19 68 32.5t67 21.5v11q-135 50 -198.5 122t-63.5 176q0 147 135.5 235t343.5 88q68 0 131.5 -11.5t96.5 -20.5h388
v-108zM709 689q0 117 -37 185t-114 68q-39 0 -68 -18.5t-47 -53.5q-17 -34 -23 -79.5t-6 -93.5q0 -109 38 -179t108 -70q72 0 110.5 63t38.5 178zM877 -151q0 34 -19 67.5t-85 54.5q-36 6 -118.5 8t-226.5 2q-35 -30 -58.5 -71t-23.5 -99q0 -25 14 -55t44 -56
q35 -29 78 -45.5t130 -16.5q129 0 197 50t68 161zM737 1262q0 -57 -45 -101.5t-116 -44.5q-107 0 -161.5 62.5t-54.5 174.5q0 114 95.5 216.5t231.5 159.5l41 -64q-102 -43 -164 -109t-70 -155h53q90 0 140 -34.5t50 -104.5z" />
    <glyph glyph-name="Hcircumflex" unicode="&#x124;" horiz-adv-x="1870" 
d="M1801 0h-767v78l73 6t66 12q37 15 51 39.5t14 62.5v489h-606v-478q0 -34 14.5 -61t49.5 -42q19 -8 65 -17t75 -11v-78h-767v78q25 1 73.5 6.5t70.5 13.5q36 13 50 39.5t14 62.5v1004q0 35 -12.5 59t-51.5 42q-29 13 -76 23.5t-68 12.5v78h767v-78q-31 -2 -74 -10t-66 -15
q-39 -13 -51.5 -41.5t-12.5 -60.5v-424h606v414q0 35 -13 59t-52 42q-26 12 -69.5 22.5t-69.5 13.5v78h767v-78q-32 -2 -72 -8.5t-72 -16.5q-38 -13 -51 -41t-13 -61v-1005q0 -36 13 -61t51 -42q24 -10 69.5 -18t74.5 -10v-78zM1313 1513l-33 -29l-351 203l-344 -203l-33 29
l155.5 189t85.5 105q23 30 54.5 45.5t85.5 15.5q55 0 81.5 -14t51.5 -43l82.5 -98z" />
    <glyph glyph-name="hcircumflex" unicode="&#x125;" horiz-adv-x="1392" 
d="M1358 0h-602v73q20 2 47 5t40 10q21 11 29.5 32t8.5 62v468q0 103 -38.5 154t-109.5 51q-40 0 -74.5 -12t-67.5 -35q-29 -20 -46.5 -41t-29.5 -37v-537q0 -37 9 -58.5t34 -35.5q15 -9 39.5 -16t47.5 -10v-73h-608v73q26 2 50.5 5t43.5 10q32 12 43.5 34.5t11.5 59.5v986
q0 32 -15 68t-42 54q-20 13 -58 20.5t-68 9.5v73l497 26l15 -16v-559h4l68.5 61.5t74.5 55.5q37 24 96.5 41t128.5 17q162 0 243.5 -93t81.5 -245v-490q0 -37 11 -59t41 -35q18 -8 40 -14t54 -10v-73zM1095 1513l-33 -29l-351 203l-344 -203l-33 29l155.5 189t85.5 105
q23 30 54.5 45.5t85.5 15.5q55 0 81.5 -14t51.5 -43l82.5 -98z" />
    <glyph glyph-name="Hbar" unicode="&#x126;" horiz-adv-x="1870" 
d="M1801 0h-767v78l73 6t66 12q37 15 51 39.5t14 62.5v488h-606v-477q0 -34 14.5 -61t49.5 -42q19 -8 65 -17t75 -11v-78h-767v78q25 1 73.5 6.5t70.5 13.5q36 13 50 39.5t14 62.5v808h-195v102h195v94q0 35 -12.5 59t-51.5 42q-29 13 -76 23.5t-68 12.5v78h767v-78
q-31 -2 -74 -10t-66 -15q-39 -13 -51.5 -41.5t-12.5 -60.5v-104h606v94q0 35 -13 59t-52 42q-26 12 -69.5 22.5t-69.5 13.5v78h767v-78q-32 -2 -72 -8.5t-72 -16.5q-38 -13 -51 -41t-13 -61v-104h195v-102h-195v-799q0 -36 13 -61t51 -42q24 -10 69.5 -18t74.5 -10v-78z
M1238 791v217h-606v-217h606z" />
    <glyph glyph-name="hbar" unicode="&#x127;" horiz-adv-x="1392" 
d="M1358 0h-602v73q20 2 47 5t40 10q21 11 29.5 32t8.5 62v461q0 103 -38.5 154t-109.5 51q-40 0 -74.5 -12t-67.5 -35q-29 -20 -46.5 -41t-29.5 -37v-530q0 -37 9 -58.5t34 -35.5q15 -9 39.5 -16t47.5 -10v-73h-608v73q26 2 50.5 5t43.5 10q32 12 43.5 34.5t11.5 59.5v969
h-239v99h239v47q0 32 -15 68t-42 54q-20 13 -58 20.5t-68 9.5v73l497 26l15 -16v-282h352v-99h-352v-314h4l68.5 61.5t74.5 55.5q37 24 96.5 41t128.5 17q162 0 243.5 -93t81.5 -245v-483q0 -37 11 -59t41 -35q18 -8 40 -14t54 -10v-73z" />
    <glyph glyph-name="Itilde" unicode="&#x128;" horiz-adv-x="913" 
d="M850 0h-787v78l79.5 6t72.5 12q37 15 50.5 39.5t13.5 62.5v1006q0 34 -13 60t-51 42q-24 10 -71 20.5t-81 14.5v78h787v-78q-30 -3 -75 -8.5t-76 -15.5q-39 -13 -52 -40.5t-13 -62.5v-1005q0 -36 13.5 -61.5t51.5 -41.5q21 -9 69.5 -17.5t81.5 -10.5v-78zM915 1844
q-12 -43 -39.5 -94.5t-66.5 -94.5q-43 -46 -89.5 -74t-107.5 -28q-75 0 -129.5 16t-93.5 34q-35 17 -78.5 34t-80.5 17q-46 0 -74 -28.5t-73 -109.5l-72 30q14 40 41 90t64 94q35 43 85 73.5t105 30.5q72 0 125.5 -16t93.5 -34q48 -20 79 -34.5t74 -14.5q83 0 106.5 30
t53.5 103z" />
    <glyph glyph-name="itilde" unicode="&#x129;" horiz-adv-x="724" 
d="M690 0h-632v73q26 2 51 5t43 10q32 12 45 34.5t13 59.5v582q0 35 -16 61.5t-40 42.5q-18 12 -54.5 23t-66.5 14v73l490 26l15 -15v-794q0 -35 15 -59.5t43 -36.5q20 -9 44 -16t50 -10v-73zM762 1479q-13 -46 -40.5 -99.5t-62.5 -94.5q-40 -48 -86 -77.5t-107 -29.5
q-58 0 -103.5 17.5t-81.5 37.5q-31 18 -71.5 37t-75.5 19q-42 0 -74 -40t-66 -108l-72 30q15 43 41 94t60 95q33 43 84 76t103 33q57 0 103 -17t82 -38l70 -37t67 -17q74 0 102 43.5t51 99.5z" />
    <glyph glyph-name="Imacron" unicode="&#x12a;" horiz-adv-x="913" 
d="M850 0h-787v78l79.5 6t72.5 12q37 15 50.5 39.5t13.5 62.5v1006q0 34 -13 60t-51 42q-24 10 -71 20.5t-81 14.5v78h787v-78q-30 -3 -75 -8.5t-76 -15.5q-39 -13 -52 -40.5t-13 -62.5v-1005q0 -36 13.5 -61.5t51.5 -41.5q21 -9 69.5 -17.5t81.5 -10.5v-78zM831 1657h-748
v173h748v-173z" />
    <glyph glyph-name="imacron" unicode="&#x12b;" horiz-adv-x="724" 
d="M690 0h-632v73q26 2 51 5t43 10q32 12 45 34.5t13 59.5v582q0 35 -16 61.5t-40 42.5q-18 12 -54.5 23t-66.5 14v73l490 26l15 -15v-794q0 -35 15 -59.5t43 -36.5q20 -9 44 -16t50 -10v-73zM688 1246h-698v173h698v-173z" />
    <glyph glyph-name="Ibreve" unicode="&#x12c;" horiz-adv-x="913" 
d="M850 0h-787v78l79.5 6t72.5 12q37 15 50.5 39.5t13.5 62.5v1006q0 34 -13 60t-51 42q-24 10 -71 20.5t-81 14.5v78h787v-78q-30 -3 -75 -8.5t-76 -15.5q-39 -13 -52 -40.5t-13 -62.5v-1005q0 -36 13.5 -61.5t51.5 -41.5q21 -9 69.5 -17.5t81.5 -10.5v-78zM800 1852
q-15 -122 -107.5 -222t-235.5 -100t-235.5 100t-107.5 222l71 16q10 -33 30 -61t52 -52q34 -26 80.5 -38t109.5 -12t109.5 12t80.5 38q32 24 52 52t30 61z" />
    <glyph glyph-name="ibreve" unicode="&#x12d;" horiz-adv-x="724" 
d="M690 0h-632v73q26 2 51 5t43 10q32 12 45 34.5t13 59.5v582q0 35 -16 61.5t-40 42.5q-18 12 -54.5 23t-66.5 14v73l490 26l15 -15v-794q0 -35 15 -59.5t43 -36.5q20 -9 44 -16t50 -10v-73zM654 1532q-25 -194 -98.5 -295.5t-221.5 -101.5q-144 0 -221 103.5t-99 293.5
l71 16q12 -41 32 -90.5t42 -76.5q28 -36 70.5 -53.5t104.5 -17.5q64 0 106.5 18t67.5 50q26 32 42 72.5t33 97.5z" />
    <glyph glyph-name="Iogonek" unicode="&#x12e;" horiz-adv-x="913" 
d="M495 0h-432v78l79.5 6t72.5 12q37 15 50.5 39.5t13.5 62.5v1006q0 34 -13 60t-51 42q-24 10 -71 20.5t-81 14.5v78h787v-78q-30 -3 -75 -8.5t-76 -15.5q-39 -13 -52 -40.5t-13 -62.5v-1005q0 -36 13.5 -61.5t51.5 -41.5q21 -9 69.5 -17.5t81.5 -10.5v-78h-242
q-51 -61 -74.5 -110t-23.5 -105q0 -74 59 -110t168 -37v-82h-140q-158 0 -231.5 47.5t-73.5 142.5q0 74 53 134.5t150 119.5z" />
    <glyph glyph-name="iogonek" unicode="&#x12f;" horiz-adv-x="724" 
d="M422 0h-364v73q26 2 51 5t43 10q32 12 45 34.5t13 59.5v582q0 35 -16 61.5t-40 42.5q-18 12 -54.5 23t-66.5 14v73l490 26l15 -15v-794q0 -35 15 -59.5t43 -36.5q20 -9 44 -16t50 -10v-73h-155q-51 -61 -74.5 -110t-23.5 -105q0 -74 59 -110t168 -37v-82h-140
q-158 0 -231.5 47.5t-73.5 142.5q0 74 53 134.5t150 119.5zM544 1364q0 -76 -58.5 -129.5t-138.5 -53.5q-81 0 -139.5 53.5t-58.5 129.5t58.5 130t139.5 54t139 -54t58 -130z" />
    <glyph glyph-name="Jcircumflex" unicode="&#x134;" horiz-adv-x="1219" 
d="M1166 1341q-40 -5 -68 -10t-63 -14q-41 -11 -52.5 -39t-11.5 -64v-782q0 -108 -43.5 -198t-119.5 -151q-77 -60 -172 -90.5t-203 -30.5q-187 0 -301.5 90t-114.5 247q0 93 52.5 154t144.5 61q87 0 138.5 -51t51.5 -126q0 -64 -44.5 -118.5t-101.5 -100.5v-13
q9 -20 39 -34t61 -14q120 0 188.5 86t68.5 260v801q0 36 -11 60t-53 42q-30 13 -72.5 22t-70.5 13v78h758v-78zM1150 1513l-33 -29l-351 203l-344 -203l-33 29l155.5 189t85.5 105q23 30 54.5 45.5t85.5 15.5q55 0 81.5 -14t51.5 -43l82.5 -98z" />
    <glyph glyph-name="jcircumflex" unicode="&#x135;" horiz-adv-x="709" 
d="M551 118q0 -103 -35 -208t-100 -180q-71 -82 -172 -128t-231 -46q-121 0 -186.5 46.5t-65.5 125.5q0 28 6.5 52t27.5 50q16 22 49.5 37.5t75.5 15.5q83 0 128 -59.5t92 -178.5q41 23 60.5 98t19.5 326v691q0 35 -15 61.5t-41 44.5q-19 13 -60.5 24.5t-73.5 14.5v73
l506 26l15 -15v-871zM685 1132l-54 -29l-320 254l-316 -254l-51 29l139 224t92 131q23 31 54.5 46t85.5 15q55 0 82 -14t51 -43q47 -57 100.5 -141z" />
    <glyph glyph-name="Kcommaaccent" unicode="&#x136;" horiz-adv-x="1673" 
d="M1736 0h-562q-127 195 -229 326l-261 329h-52v-446q0 -36 13 -61t52 -42q18 -8 53.5 -16t70.5 -12v-78h-754v78q27 2 76.5 6t69.5 12q36 14 50 39t14 63v1006q0 35 -12 59t-52 43q-31 14 -75 23t-71 12v78h779v-78q-31 -3 -74.5 -8.5t-74.5 -15.5q-39 -13 -52 -41
t-13 -62v-478h42l182 171t161 164q80 89 117.5 141t37.5 90q0 17 -36 26t-110 13v78h617v-78q-112 -12 -188 -40.5t-151 -95.5q-107 -96 -176.5 -166.5l-178.5 -180.5l231 -286.5l269 -330.5q34 -41 78 -78.5t97 -60.5q25 -11 57 -17t55 -7v-78zM1058 -231q0 -107 -82 -160
t-228 -53v64q106 5 149.5 33t51.5 83h-57q-82 0 -114 21t-32 79q0 44 39.5 71t102.5 27q81 0 125.5 -45.5t44.5 -119.5z" />
    <glyph glyph-name="kcommaaccent" unicode="&#x137;" horiz-adv-x="1294" 
d="M1341 0h-471q-87 153 -159 259.5l-136 197.5l-60 -51v-218q0 -36 10.5 -59t40.5 -34q18 -8 42 -14t48 -8v-73h-619v73q25 2 50 5.5t44 9.5q32 11 43.5 34t11.5 60v1115q0 33 -14.5 68.5t-42.5 53.5q-19 12 -57 20t-69 10v73l497 26l15 -16v-1032l166.5 153l148.5 144
q33 34 36.5 51.5t3.5 21.5q0 18 -31.5 30t-94.5 21v71h508v-69q-100 -28 -152.5 -52.5t-114.5 -65.5q-41 -27 -79.5 -56.5t-88.5 -73.5l181 -263l174 -256q31 -47 77 -63t92 -20v-73zM896 -231q0 -107 -82 -160t-228 -53v64q106 5 149.5 33t51.5 83h-57q-82 0 -114 21
t-32 79q0 44 39.5 71t102.5 27q81 0 125.5 -45.5t44.5 -119.5z" />
    <glyph glyph-name="kgreenlandic" unicode="&#x138;" horiz-adv-x="1316" 
d="M1363 0h-471q-87 153 -159 259.5l-136 197.5l-60 -51v-218q0 -36 10.5 -59t40.5 -34q18 -7 42 -13.5t48 -8.5v-73h-619v73q25 2 51 5.5t43 9.5q32 11 43.5 34t11.5 60v582q0 31 -16 61t-42 49q-18 12 -45.5 20t-60.5 11v73l478 26l15 -16v-488l166.5 153l148.5 144
q33 34 36.5 51.5t3.5 21.5q0 18 -31.5 30t-94.5 21v71h508v-69q-100 -28 -152.5 -52.5t-114.5 -65.5q-41 -27 -79.5 -56.5t-88.5 -73.5l181 -263l174 -256q31 -47 77 -63t92 -20v-73z" />
    <glyph glyph-name="Lcommaaccent" unicode="&#x13b;" horiz-adv-x="1404" 
d="M1404 455l-28 -455h-1307v78q35 3 82 9.5t62 12.5q36 14 50 39t14 64v1001q0 36 -11 59.5t-53 42.5q-31 14 -74.5 22.5t-69.5 12.5v78h779v-78q-32 -3 -75.5 -8.5t-75.5 -15.5q-39 -13 -52 -40.5t-13 -62.5v-933q0 -66 9 -104t35 -56q26 -19 72.5 -24.5t128.5 -5.5
q80 0 155.5 9.5t108.5 41.5q51 51 104.5 143.5t85.5 169.5h73zM948 -231q0 -107 -82 -160t-228 -53v64q106 5 149.5 33t51.5 83h-57q-82 0 -114 21t-32 79q0 44 39.5 71t102.5 27q81 0 125.5 -45.5t44.5 -119.5z" />
    <glyph glyph-name="lcommaaccent" unicode="&#x13c;" horiz-adv-x="705" 
d="M667 0h-627v73q26 2 50.5 5t43.5 10q32 12 43.5 34.5t11.5 59.5v1108q0 38 -15.5 70.5t-41.5 49.5q-20 13 -60.5 25t-71.5 14v73l503 26l15 -16v-1337q0 -37 13 -60t42 -36q20 -9 42 -16t52 -10v-73zM518 -231q0 -107 -82 -160t-228 -53v64q106 5 149.5 33t51.5 83h-57
q-82 0 -114 21t-32 79q0 44 39.5 71t102.5 27q81 0 125.5 -45.5t44.5 -119.5z" />
    <glyph glyph-name="Ncommaaccent" unicode="&#x145;" horiz-adv-x="1719" 
d="M1699 1341q-28 -3 -80 -11t-94 -39q-37 -27 -52.5 -92.5t-15.5 -192.5v-1014h-178l-884 1097v-666q0 -124 16.5 -188.5t53.5 -94.5q27 -22 86 -39t94 -23v-78h-610v78q39 3 89.5 14.5t84.5 35.5q39 29 53.5 87.5t14.5 196.5v672q0 50 -15.5 94.5t-48.5 76.5
q-35 34 -80.5 53.5t-103.5 30.5v80h534l776 -960v537q0 128 -17 190.5t-54 92.5q-29 23 -86 39.5t-92 22.5v78h609v-78zM1013 -231q0 -107 -82 -160t-228 -53v64q106 5 149.5 33t51.5 83h-57q-82 0 -114 21t-32 79q0 44 39.5 71t102.5 27q81 0 125.5 -45.5t44.5 -119.5z" />
    <glyph glyph-name="ncommaaccent" unicode="&#x146;" horiz-adv-x="1413" 
d="M1378 0h-602v73l46 5t41 10q21 11 30 32t9 62v468q0 102 -37.5 153.5t-110.5 51.5q-40 0 -74.5 -12t-67.5 -35q-29 -20 -46.5 -41t-29.5 -37v-537q0 -35 10 -58.5t33 -35.5q16 -9 40 -16t47 -10v-73h-608v73q25 2 50.5 5.5t43.5 9.5q32 11 44 34t12 60v582q0 31 -16 61
t-42 49q-18 12 -45.5 20t-60.5 11v73l477 26l15 -15v-145h4l68 60t74 57q37 24 97 41t128 17q163 0 244.5 -92.5t81.5 -245.5v-490q0 -37 11 -59t41 -35q16 -7 39.5 -14t53.5 -10v-73zM899 -231q0 -107 -82 -160t-228 -53v64q106 5 149.5 33t51.5 83h-57q-82 0 -114 21
t-32 79q0 44 39.5 71t102.5 27q81 0 125.5 -45.5t44.5 -119.5z" />
    <glyph glyph-name="Eng" unicode="&#x14a;" horiz-adv-x="1719" 
d="M948.5 -122.5q32.5 -17.5 56.5 -46.5q20 -25 40.5 -63t40.5 -85q103 8 169 95t69 205l-929 1106v-666q0 -124 16.5 -188.5t53.5 -94.5q27 -22 86 -39t94 -23v-78h-610v78q39 3 89.5 14.5t84.5 35.5q39 29 53.5 87.5t14.5 196.5v672q0 50 -15.5 94.5t-48.5 76.5
q-35 34 -80.5 53.5t-103.5 30.5v80h534l776 -916v493q0 128 -17 190.5t-54 92.5q-29 23 -86 39.5t-92 22.5v78h609v-78q-28 -3 -80 -11t-94 -39q-37 -27 -52.5 -92.5t-15.5 -192.5l1 -893q0 -110 -28 -212.5t-89 -179.5t-146.5 -120.5t-208.5 -43.5q-111 0 -183 48.5
t-72 133.5q0 68 38.5 112t103.5 44q43 0 75.5 -17.5z" />
    <glyph glyph-name="eng" unicode="&#x14b;" horiz-adv-x="1394" 
d="M821 -355q28 18 44 53t23 93q8 63 13 243.5t5 340.5q0 75 -1 138.5t-3 136.5q-1 102 -38 153.5t-110 51.5q-40 0 -74.5 -12t-67.5 -35q-29 -20 -46.5 -41t-29.5 -37v-537q0 -35 10 -58.5t33 -35.5q16 -9 40 -16t47 -10v-73h-608v73q25 2 50.5 5.5t43.5 9.5q32 11 44 34
t12 60v582q0 31 -16 61t-42 49q-18 12 -45.5 20t-60.5 11v73l477 26l15 -15v-145h4l68 60t74 57q37 24 97 41t128 17q163 0 244.5 -93t82.5 -245q0 -50 2 -124t2 -161q0 -86 -2.5 -181l-2.5 -95q-2 -114 -36 -216.5t-101 -179.5q-69 -78 -167.5 -123t-234.5 -45
q-112 0 -182 44t-70 128q0 68 42 111.5t117 43.5q44 0 74 -15t54 -45q25 -32 45.5 -73.5t46.5 -104.5z" />
    <glyph glyph-name="Omacron" unicode="&#x14c;" horiz-adv-x="1679" 
d="M1380 1261q105 -96 166.5 -232t61.5 -310q0 -155 -52 -295t-150 -241q-103 -105 -242 -163.5t-331 -58.5q-155 0 -293 51t-243 148q-104 95 -165 231t-61 303q0 174 59.5 315.5t163.5 242.5q103 99 244.5 152.5t301.5 53.5q159 0 298.5 -52t241.5 -145zM1123 246
q45 91 65 206t20 260q0 123 -17.5 239.5t-59.5 207.5q-43 91 -114 146t-177 55q-181 0 -275 -171.5t-94 -484.5q0 -133 20.5 -251t64.5 -206q45 -89 114 -138.5t170 -49.5q99 0 170 50t113 137zM1217 1657h-748v173h748v-173z" />
    <glyph glyph-name="omacron" unicode="&#x14d;" horiz-adv-x="1302" 
d="M1079 874q74 -69 113 -165t39 -208q0 -111 -38.5 -209.5t-112.5 -168.5q-79 -75 -188.5 -115t-250.5 -40q-122 0 -224.5 35t-181.5 105q-76 67 -120 165.5t-44 220.5q0 120 38.5 213.5t115.5 166.5q74 70 182.5 108.5t242.5 38.5q140 0 246.5 -38.5t182.5 -108.5z
M823 181q22 56 32.5 136t10.5 186q0 70 -10 160t-30 142q-24 63 -66.5 99t-107.5 36q-71 0 -113.5 -39t-65.5 -101q-21 -57 -29 -133.5t-8 -159.5q0 -109 7 -180.5t34 -143.5q23 -62 66 -98t109 -36q60 0 103 33.5t68 98.5zM1019 1246h-748v173h748v-173z" />
    <glyph glyph-name="Obreve" unicode="&#x14e;" horiz-adv-x="1679" 
d="M1380 1261q105 -96 166.5 -232t61.5 -310q0 -155 -52 -295t-150 -241q-103 -105 -242 -163.5t-331 -58.5q-155 0 -293 51t-243 148q-104 95 -165 231t-61 303q0 174 59.5 315.5t163.5 242.5q103 99 244.5 152.5t301.5 53.5q159 0 298.5 -52t241.5 -145zM1123 246
q45 91 65 206t20 260q0 123 -17.5 239.5t-59.5 207.5q-43 91 -114 146t-177 55q-181 0 -275 -171.5t-94 -484.5q0 -133 20.5 -251t64.5 -206q45 -89 114 -138.5t170 -49.5q99 0 170 50t113 137zM1183 1852q-15 -122 -107.5 -222t-235.5 -100t-235.5 100t-107.5 222l71 16
q10 -33 30 -61t52 -52q34 -26 80.5 -38t109.5 -12t109.5 12t80.5 38q32 24 52 52t30 61z" />
    <glyph glyph-name="obreve" unicode="&#x14f;" horiz-adv-x="1302" 
d="M1079 874q74 -69 113 -165t39 -208q0 -111 -38.5 -209.5t-112.5 -168.5q-79 -75 -188.5 -115t-250.5 -40q-122 0 -224.5 35t-181.5 105q-76 67 -120 165.5t-44 220.5q0 120 38.5 213.5t115.5 166.5q74 70 182.5 108.5t242.5 38.5q140 0 246.5 -38.5t182.5 -108.5z
M823 181q22 56 32.5 136t10.5 186q0 70 -10 160t-30 142q-24 63 -66.5 99t-107.5 36q-71 0 -113.5 -39t-65.5 -101q-21 -57 -29 -133.5t-8 -159.5q0 -109 7 -180.5t34 -143.5q23 -62 66 -98t109 -36q60 0 103 33.5t68 98.5zM982 1532q-25 -194 -103.5 -295.5t-226.5 -101.5
q-143 0 -225.5 103t-104.5 294l71 16q14 -48 33 -92t46 -75q30 -34 70 -52.5t110 -18.5q59 0 104.5 17t74.5 51q28 32 46.5 75.5t33.5 94.5z" />
    <glyph glyph-name="Rcommaaccent" unicode="&#x156;" horiz-adv-x="1633" 
d="M1698 0h-544q-141 216 -234.5 344t-232.5 296h-55v-431q0 -36 13.5 -61t51.5 -42q19 -8 59.5 -16.5t69.5 -11.5v-78h-757v78q29 3 76.5 8.5t67.5 13.5q38 16 51 40.5t13 62.5v1001q0 36 -11 60t-53 42q-32 13 -75.5 22t-68.5 13v78h796q267 0 405.5 -83.5t138.5 -252.5
q0 -149 -85.5 -239.5t-260.5 -141.5l158.5 -204l188.5 -237q31 -39 84.5 -95.5t94.5 -69.5q23 -7 58.5 -12t50.5 -6v-78zM1017 1055q0 142 -79.5 207.5t-226.5 65.5h-79v-594h76q147 0 228 77t81 244zM1048 -231q0 -107 -82 -160t-228 -53v64q106 5 149.5 33t51.5 83h-57
q-82 0 -114 21t-32 79q0 44 39.5 71t102.5 27q81 0 125.5 -45.5t44.5 -119.5z" />
    <glyph glyph-name="rcommaaccent" unicode="&#x157;" horiz-adv-x="1065" 
d="M1054 809q0 -76 -47 -133.5t-124 -57.5q-73 0 -123.5 37t-50.5 109q0 35 5 54.5l9 36.5q-46 -2 -97 -32t-90 -80v-549q0 -35 11 -58t37 -36q22 -11 71.5 -18.5t71.5 -8.5v-73h-669v73q25 2 50.5 5.5t43.5 9.5q32 11 44 34t12 60v582q0 36 -17 64.5t-41 45.5
q-18 12 -45.5 20t-60.5 11v73l477 26l15 -15v-145h4q69 80 146.5 125.5t161.5 45.5q93 0 149.5 -57.5t56.5 -148.5zM612 -231q0 -107 -82 -160t-228 -53v64q106 5 149.5 33t51.5 83h-57q-82 0 -114 21t-32 79q0 44 39.5 71t102.5 27q81 0 125.5 -45.5t44.5 -119.5z" />
    <glyph glyph-name="Scircumflex" unicode="&#x15c;" horiz-adv-x="1329" 
d="M664 -38q-130 0 -242.5 32t-190.5 76l-69 -70h-85l-13 513h86q29 -73 74 -154t104 -145q61 -67 136.5 -109t176.5 -42q136 0 208.5 66.5t72.5 167.5q0 83 -61.5 139.5t-190.5 97.5l-154.5 50t-132.5 47q-143 57 -212.5 163t-69.5 237q0 83 36 159.5t105 137.5
q66 57 169 93t224 36q118 0 221 -32.5t162 -65.5l61 60h87l8 -484h-86q-30 78 -70.5 159.5t-85.5 135.5q-49 58 -113 92.5t-150 34.5q-108 0 -176.5 -61t-68.5 -151q0 -85 59.5 -139t185.5 -95l151 -50t137 -48q145 -56 220.5 -154.5t75.5 -244.5q0 -92 -43 -178t-116 -143
q-80 -63 -185 -97t-245 -34zM1028 1512l-33 -29l-351 203l-344 -203l-33 29l155.5 189t85.5 105q23 30 54.5 45.5t85.5 15.5q55 0 81.5 -14t51.5 -43l82.5 -98z" />
    <glyph glyph-name="scircumflex" unicode="&#x15d;" horiz-adv-x="1050" 
d="M521 -34q-97 0 -189.5 28.5t-143.5 60.5l-30 -68h-78l-13 373h73q15 -45 50 -101.5t80 -101.5q47 -45 107.5 -76t129.5 -31q91 0 135.5 35.5t44.5 109.5q0 40 -20 66t-55 45q-39 20 -85.5 34l-114.5 34t-116.5 40.5t-100.5 64.5q-45 39 -72 94t-27 131q0 141 118.5 228
t310.5 87q91 0 167.5 -18.5t128.5 -40.5l21 59h76l16 -341h-71q-35 104 -120 179.5t-183 75.5q-77 0 -121 -32t-44 -89q0 -76 64.5 -110t180.5 -64q179 -46 262 -125.5t83 -202.5q0 -164 -128.5 -254t-335.5 -90zM903 1132l-54 -29l-320 254l-316 -254l-51 29l139 224
t92 131q23 31 54.5 46t85.5 15q55 0 82 -14t51 -43q47 -57 100.5 -141z" />
    <glyph glyph-name="Tbar" unicode="&#x166;" horiz-adv-x="1401" 
d="M1388 1013h-77q-31 91 -99.5 195t-126.5 112q-32 4 -79 7t-81 3h-47v-552h305v-105h-305v-456q0 -36 13 -63.5t51 -43.5q23 -9 71.5 -18.5t82.5 -13.5v-78h-791v78l81.5 8.5t71.5 13.5q39 16 52 43t13 64v466h-305v105h305v552h-47q-34 0 -81 -3t-79 -7
q-58 -8 -126.5 -112t-99.5 -195h-77v406h1375v-406z" />
    <glyph glyph-name="tbar" unicode="&#x167;" horiz-adv-x="814" 
d="M802 46q-64 -28 -137 -50.5t-178 -22.5q-156 0 -231.5 76t-75.5 217v209h-170v99h170v306h-180v108h184v303h325v-303h280v-108h-278v-306h233v-99h-233v-143q0 -117 32.5 -166t116.5 -49q27 0 75 4t67 9v-84z" />
    <glyph glyph-name="Utilde" unicode="&#x168;" horiz-adv-x="1707" 
d="M1703 1341q-29 -3 -83.5 -13.5t-91.5 -36.5q-38 -25 -53.5 -90t-15.5 -195v-528q0 -233 -158 -375t-418 -142q-303 0 -469 137t-166 382v726q0 35 -13.5 60t-51.5 45q-26 13 -64 21t-62 11v76h744v-76q-32 -2 -65 -7.5t-67 -16.5q-38 -12 -51 -40t-13 -63v-716
q0 -211 93 -307t270 -96q174 0 273 106t99 312v481q0 128 -17.5 191.5t-53.5 91.5q-26 22 -90.5 40t-90.5 22v78h615v-78zM1354 1844q-12 -43 -39.5 -96.5t-66.5 -97.5q-44 -49 -90 -78t-107 -29q-72 0 -125.5 17.5t-92.5 37.5q-34 18 -75.5 37t-78.5 19q-45 0 -75.5 -34
t-71.5 -114l-72 30q14 40 40 90t65 99q34 43 86 76t104 33q66 0 118 -16.5t96 -38.5l75.5 -38.5t72.5 -15.5q80 0 109.5 40t50.5 103z" />
    <glyph glyph-name="utilde" unicode="&#x169;" horiz-adv-x="1386" 
d="M1363 21l-477 -29l-15 14v131h-6l-66.5 -60.5t-77.5 -53.5q-51 -27 -96.5 -40t-132.5 -13q-151 0 -231.5 91t-80.5 257v450q0 39 -15 63.5t-40 43.5q-20 15 -52 21.5t-58 8.5v73l485 26l11 -15v-665q0 -103 39.5 -152t108.5 -49q71 0 127.5 37t82.5 79v539q0 34 -13 61
t-38 44q-18 12 -51.5 16t-68.5 6v73l485 26l15 -15v-772q0 -35 14 -59.5t41 -41.5q19 -12 49.5 -16.5t60.5 -5.5v-73zM1135 1479q-12 -43 -39.5 -96.5t-66.5 -97.5q-44 -49 -90 -78t-107 -29q-72 0 -125.5 17.5t-92.5 37.5q-34 18 -75.5 37t-78.5 19q-45 0 -75.5 -34
t-71.5 -114l-72 30q14 40 40 90t65 99q34 43 86 76t104 33q66 0 118 -16.5t96 -38.5l75.5 -38.5t72.5 -15.5q80 0 109.5 40t50.5 103z" />
    <glyph glyph-name="Umacron" unicode="&#x16a;" horiz-adv-x="1707" 
d="M1703 1341q-29 -3 -83.5 -13.5t-91.5 -36.5q-38 -25 -53.5 -90t-15.5 -195v-528q0 -233 -158 -375t-418 -142q-303 0 -469 137t-166 382v726q0 35 -13.5 60t-51.5 45q-26 13 -64 21t-62 11v76h744v-76q-32 -2 -65 -7.5t-67 -16.5q-38 -12 -51 -40t-13 -63v-716
q0 -211 93 -307t270 -96q174 0 273 106t99 312v481q0 128 -17.5 191.5t-53.5 91.5q-26 22 -90.5 40t-90.5 22v78h615v-78zM1267 1657h-748v173h748v-173z" />
    <glyph glyph-name="umacron" unicode="&#x16b;" horiz-adv-x="1386" 
d="M1363 21l-477 -29l-15 14v131h-6l-66.5 -60.5t-77.5 -53.5q-51 -27 -96.5 -40t-132.5 -13q-151 0 -231.5 91t-80.5 257v450q0 39 -15 63.5t-40 43.5q-20 15 -52 21.5t-58 8.5v73l485 26l11 -15v-665q0 -103 39.5 -152t108.5 -49q71 0 127.5 37t82.5 79v539q0 34 -13 61
t-38 44q-18 12 -51.5 16t-68.5 6v73l485 26l15 -15v-772q0 -35 14 -59.5t41 -41.5q19 -12 49.5 -16.5t60.5 -5.5v-73zM1067 1246h-748v173h748v-173z" />
    <glyph glyph-name="Ubreve" unicode="&#x16c;" horiz-adv-x="1707" 
d="M1703 1341q-29 -3 -83.5 -13.5t-91.5 -36.5q-38 -25 -53.5 -90t-15.5 -195v-528q0 -233 -158 -375t-418 -142q-303 0 -469 137t-166 382v726q0 35 -13.5 60t-51.5 45q-26 13 -64 21t-62 11v76h744v-76q-32 -2 -65 -7.5t-67 -16.5q-38 -12 -51 -40t-13 -63v-716
q0 -211 93 -307t270 -96q174 0 273 106t99 312v481q0 128 -17.5 191.5t-53.5 91.5q-26 22 -90.5 40t-90.5 22v78h615v-78zM1244 1852q-15 -122 -107.5 -222t-235.5 -100t-235.5 100t-107.5 222l71 16q10 -33 30 -61t52 -52q34 -26 80.5 -38t109.5 -12t109.5 12t80.5 38
q32 24 52 52t30 61z" />
    <glyph glyph-name="ubreve" unicode="&#x16d;" horiz-adv-x="1386" 
d="M1363 21l-477 -29l-15 14v131h-6l-66.5 -60.5t-77.5 -53.5q-51 -27 -96.5 -40t-132.5 -13q-151 0 -231.5 91t-80.5 257v450q0 39 -15 63.5t-40 43.5q-20 15 -52 21.5t-58 8.5v73l485 26l11 -15v-665q0 -103 39.5 -152t108.5 -49q71 0 127.5 37t82.5 79v539q0 34 -13 61
t-38 44q-18 12 -51.5 16t-68.5 6v73l485 26l15 -15v-772q0 -35 14 -59.5t41 -41.5q19 -12 49.5 -16.5t60.5 -5.5v-73zM992 1532q-25 -194 -103.5 -295.5t-226.5 -101.5q-143 0 -225.5 103t-104.5 294l71 16q14 -48 33 -92t46 -75q30 -34 70 -52.5t110 -18.5q59 0 104.5 17
t74.5 51q28 32 46.5 75.5t33.5 94.5z" />
    <glyph glyph-name="Uogonek" unicode="&#x172;" horiz-adv-x="1707" 
d="M1301 -444h-140q-158 0 -231.5 47.5t-73.5 142.5q0 66 41 119.5t118 106.5q-31 -5 -64 -8t-68 -3q-303 0 -469 137t-166 382v726q0 35 -13.5 60t-51.5 45q-26 13 -64 21t-62 11v76h744v-76q-32 -2 -65 -7.5t-67 -16.5q-38 -12 -51 -40t-13 -63v-716q0 -211 93 -307
t270 -96q174 0 273 106t99 312v481q0 128 -17.5 191.5t-53.5 91.5q-26 22 -90.5 40t-90.5 22v78h615v-78q-29 -3 -83.5 -13.5t-91.5 -36.5q-38 -25 -53.5 -90t-15.5 -195v-528q0 -155 -69.5 -268t-187.5 -175q-66 -74 -97 -131t-31 -119q0 -74 59 -110t168 -37v-82z" />
    <glyph glyph-name="uogonek" unicode="&#x173;" horiz-adv-x="1386" 
d="M1067 3l-181 -11l-15 14v131h-6l-66.5 -60.5t-77.5 -53.5q-51 -27 -96.5 -40t-132.5 -13q-151 0 -231.5 91t-80.5 257v450q0 39 -15 63.5t-40 43.5q-20 15 -52 21.5t-58 8.5v73l485 26l11 -15v-665q0 -103 39.5 -152t108.5 -49q71 0 127.5 37t82.5 79v539q0 34 -13 61
t-38 44q-18 12 -51.5 16t-68.5 6v73l485 26l15 -15v-772q0 -35 14 -59.5t41 -41.5q19 -12 49.5 -16.5t60.5 -5.5v-73l-179 -11q-54 -63 -80.5 -116t-26.5 -109q0 -74 59 -110t168 -37v-82h-140q-158 0 -231.5 47.5t-73.5 142.5q0 75 54.5 136.5t153.5 120.5z" />
    <glyph glyph-name="Wcircumflex" unicode="&#x174;" horiz-adv-x="2307" 
d="M2345 1339q-31 -3 -62 -13.5t-61 -26.5q-46 -26 -65.5 -57t-35.5 -75l-169.5 -487l-238.5 -696h-201l-375 1055l-338 -1055h-201l-256 748.5l-150 440.5q-19 54 -43 78.5t-62 49.5q-27 18 -57.5 26.5t-70.5 13.5v78h757v-76q-67 -8 -100 -15.5t-52 -15.5q-18 -8 -22 -17
t-4 -16q0 -14 3.5 -27t7.5 -30q24 -78 97 -296l180 -541l323 1034h212l375 -1066l132.5 420l83.5 279q20 71 32 119t12 83q0 21 -19.5 36t-52.5 26q-28 9 -72.5 14.5t-77.5 8.5v80h571v-80zM1620 1513l-33 -29l-351 203l-344 -203l-33 29l155.5 189t85.5 105
q23 30 54.5 45.5t85.5 15.5q55 0 81.5 -14t51.5 -43l82.5 -98z" />
    <glyph glyph-name="wcircumflex" unicode="&#x175;" horiz-adv-x="1768" 
d="M1782 919q-46 -7 -85 -30.5t-66 -87.5l-112 -276l-118 -303q-16 -41 -38.5 -113t-35.5 -118h-195l-252 680l-236 -680h-193l-159 423.5l-155 397.5q-18 47 -61.5 74t-89.5 33v73h614v-73q-34 -3 -81 -16t-47 -35q0 -10 2.5 -17.5t8.5 -27.5q27 -78 74 -201.5l110 -287.5
l222 658h198l253 -680l89.5 242.5l79.5 228.5q7 21 8.5 37.5t0.5 21.5q0 18 -18 32.5t-43 23.5t-48.5 14t-39.5 7v73h413v-73zM1337 1132l-54 -29l-320 254l-316 -254l-51 29l139 224t92 131q23 31 54.5 46t85.5 15q55 0 82 -14t51 -43q47 -57 100.5 -141z" />
    <glyph glyph-name="Ycircumflex" unicode="&#x176;" horiz-adv-x="1499" 
d="M1567 1341q-36 -4 -66 -13t-57 -25q-43 -24 -76.5 -61.5t-65.5 -83.5l-136.5 -206.5l-155.5 -245.5q-55 -85 -67.5 -130.5t-12.5 -157.5v-201q0 -36 13.5 -63t51.5 -44q17 -7 72 -18.5t81 -13.5v-78h-791v78q28 2 80.5 8t73.5 14q37 16 50.5 42.5t13.5 64.5v250
q0 33 -1 58t-7 42q-7 19 -24 48.5l-44 76.5l-149 256l-137 227q-34 55 -68.5 88.5t-70.5 54.5q-27 15 -65.5 23t-69.5 10v78h813v-78q-112 -3 -151 -15.5t-39 -34.5q0 -11 14.5 -44t51.5 -102q34 -65 99.5 -179l157.5 -267l261 420.5t71 146.5q0 34 -41.5 52t-134.5 23v78
h526v-78zM1190 1513l-33 -29l-351 203l-344 -203l-33 29l155.5 189t85.5 105q23 30 54.5 45.5t85.5 15.5q55 0 81.5 -14t51.5 -43l82.5 -98z" />
    <glyph glyph-name="ycircumflex" unicode="&#x177;" horiz-adv-x="1151" 
d="M1188 919q-45 -7 -87.5 -34t-70.5 -84l-177 -387.5l-202 -444.5q-62 -134 -120 -214t-109 -123q-48 -40 -95 -58t-95 -18q-95 0 -153.5 53t-58.5 119q0 28 6.5 52t27.5 50q16 22 49.5 37.5t75.5 15.5q56 0 107 -39t106 -108q33 33 81.5 98.5t71.5 134.5l-211 433.5
l-206 409.5q-25 48 -67 74.5t-89 32.5v73h612v-73q-34 -1 -78.5 -15t-44.5 -36q0 -8 3 -17.5t11 -27.5l96.5 -194.5l145.5 -291.5l105.5 244.5l84.5 201.5q10 25 11.5 39.5t1.5 19.5q0 18 -17.5 31.5t-41.5 23.5q-25 10 -48 15t-38 7v73h413v-73zM975 1132l-54 -29l-320 254
l-316 -254l-51 29l139 224t92 131q23 31 54.5 46t85.5 15q55 0 82 -14t51 -43q47 -57 100.5 -141z" />
    <glyph glyph-name="longs" unicode="&#x17f;" horiz-adv-x="723" 
d="M984 1379q0 -25 -8 -55t-26 -51q-21 -25 -47 -38t-78 -13q-79 0 -124 55t-96 183q-40 -17 -63.5 -88t-23.5 -305v-876q0 -39 18 -60.5t47 -31.5q24 -8 63 -15.5t70 -10.5v-73h-676v73q26 2 50.5 5t43.5 10q32 12 43.5 34.5t11.5 59.5v806q0 107 31 207.5t96 179.5
q64 77 166.5 125.5t241.5 48.5q124 0 192 -47t68 -123z" />
    <glyph glyph-name="Aringacute" unicode="&#x1fa;" horiz-adv-x="1553" 
d="M1609 0h-773v78q54 4 127 19.5t73 38.5q0 8 -1.5 18t-8.5 27l-132 294h-479q-17 -41 -37.5 -96l-35.5 -98q-19 -56 -22.5 -81t-3.5 -35q0 -32 48.5 -54.5t161.5 -32.5v-78h-582v78q33 2 74.5 10.5t65.5 23.5q41 24 69.5 60t49.5 82l221 493.5l216 489.5q-68 31 -104.5 79
t-36.5 119q0 48 22 89.5t60 70.5l141.5 111l104.5 85q40 33 76 55t74 22q54 0 82 -24t28 -56q0 -43 -27.5 -64t-83.5 -33q-34 -7 -65.5 -15t-76.5 -23q117 -15 175 -85t58 -133q0 -74 -40 -122t-90 -71l228 -530.5l221 -498.5q11 -25 32.5 -52t58.5 -49q28 -16 65 -24
t67 -10v-78zM850 574l-192 445l-199 -445h391zM915 1433q0 71 -33.5 112t-98.5 41q-63 0 -97.5 -39t-34.5 -114q0 -72 34 -112.5t98 -40.5t98 39.5t34 113.5z" />
    <glyph glyph-name="aringacute" unicode="&#x1fb;" horiz-adv-x="1220" 
d="M1201 21q-44 -19 -104 -35t-127 -16q-123 0 -181 36.5t-79 104.5h-6q-34 -34 -65.5 -58t-67.5 -41q-47 -22 -90.5 -32.5t-121.5 -10.5q-116 0 -198 68.5t-82 181.5q0 65 18 110.5t51 80.5q30 32 69.5 53t86.5 39q90 33 216 68.5t184 63.5v96q0 25 -4 66t-17 69
q-14 32 -44 54t-79 22q-44 0 -73.5 -12.5t-47.5 -25.5q3 -20 17 -61t14 -79q0 -17 -9 -42.5t-26 -40.5q-23 -20 -51.5 -31t-87.5 -11q-84 0 -127 40.5t-43 105.5q0 56 44.5 100.5t108.5 73.5q41 19 102 36t112 22q-86 21 -133.5 77.5t-47.5 141.5q0 106 80.5 167.5
t198.5 61.5q120 0 199.5 -61t79.5 -168q0 -82 -49 -139.5t-132 -78.5q40 -1 102 -15t109 -40q62 -35 98.5 -101.5t36.5 -173.5q0 -113 -4.5 -268t-4.5 -204q0 -45 13.5 -71t41.5 -39q17 -8 53.5 -9.5t66.5 -1.5v-73zM704 542q-56 -19 -111 -43.5t-90 -51.5
q-37 -28 -58 -71.5t-21 -102.5q0 -78 35.5 -113t87.5 -35q55 0 90.5 22.5t62.5 55.5zM723 1234q0 71 -33.5 115.5t-98.5 44.5q-63 0 -97.5 -42t-34.5 -118q0 -72 34 -115.5t98 -43.5t98 42.5t34 116.5zM928 1768q0 -42 -25.5 -69t-75.5 -47q-56 -23 -168 -64t-260 -103
l-33 41l155 151l110 115q38 41 73 58.5t74 17.5q65 0 107.5 -27.5t42.5 -72.5z" />
    <glyph glyph-name="AEacute" unicode="&#x1fc;" horiz-adv-x="2191" 
d="M2041 1057h-76q-29 81 -100 164t-141 98q-30 6 -83.5 8t-88.5 2h-186v-548h126q55 0 100 13t82 50q23 23 46.5 81t30.5 101h76v-592h-76q-6 42 -30.5 105.5t-46.5 87.5q-33 36 -78 49.5t-104 13.5h-126v-409q0 -130 39 -160t183 -30q141 0 204 13t89 38q48 49 108 149.5
t79 150.5h73l-27 -442h-1310v78q28 2 76 8t68 14q34 14 49 38t15 65v388h-496l-120 -212l-55 -99q-37 -69 -42 -92.5t-5 -29.5q0 -21 21.5 -36t50.5 -23q32 -9 64 -14t58 -7v-78h-582v78q25 2 69 11.5t66 22.5q45 24 78.5 59.5t60.5 82.5l300.5 511l321.5 551
q-29 9 -85.5 15.5t-98.5 9.5v78h1423v-362zM1012 688v641h-77l-364 -641h441zM1719 1768q0 -42 -26 -69t-75 -47q-56 -23 -168 -64t-260 -103l-33 41l155 151l110 115q38 40 73 58t74 18q65 0 107.5 -27.5t42.5 -72.5z" />
    <glyph glyph-name="aeacute" unicode="&#x1fd;" horiz-adv-x="1756" 
d="M1718 239q-70 -120 -194.5 -195.5t-283.5 -75.5q-163 0 -278.5 50.5t-181.5 141.5h-6q-26 -30 -61.5 -64t-83.5 -62q-52 -30 -111.5 -47.5t-148.5 -17.5q-124 0 -207 68.5t-83 181.5q0 65 18 110.5t51 80.5q30 32 69.5 53t86.5 39q95 35 223 69.5t176 48.5v110
q0 25 -4 66t-17 69q-14 32 -43.5 54t-78.5 22q-44 0 -73.5 -12.5t-47.5 -25.5q3 -20 17 -61t14 -79q0 -17 -9 -42.5t-26 -40.5q-23 -20 -51.5 -31t-87.5 -11q-84 0 -127 40t-43 106q0 54 42 98t111 76q63 30 145 46.5t152 16.5q109 0 194.5 -22t153.5 -77q53 38 131.5 68.5
t159.5 30.5q130 0 222 -34.5t148 -93.5q56 -58 81 -135t25 -162v-65h-658q0 -204 77 -311.5t245 -107.5q92 0 163.5 53t123.5 130zM1341 619q0 52 -5.5 119t-17.5 104q-15 44 -43 71t-75 27q-79 0 -121 -79.5t-46 -245.5zM703 203v329q-60 -16 -111 -35.5t-89 -47.5
q-36 -27 -57.5 -70.5t-21.5 -102.5q0 -81 35.5 -116t87.5 -35q55 0 95 24t61 54zM1260 1460q0 -45 -20.5 -72.5t-65.5 -56.5q-49 -32 -155 -90.5t-240 -139.5l-42 38q88 117 136 186.5l83 118.5q43 61 82 82.5t97 21.5q48 0 86.5 -26t38.5 -62z" />
    </font>
</defs>
</svg>
